%TF.GenerationSoftware,KiCad,Pcbnew,9.0.7*%
%TF.CreationDate,2026-08-23T13:54:47-04:00*%
%TF.ProjectId,Ornament,4f726e61-6d65-46e7-942e-6b696361645f,rev?*%
%TF.SameCoordinates,Original*%
%TF.FileFunction,Legend,Top*%
%TF.FilePolarity,Positive*%
%FSLAX46Y46*%
G04 Gerber Fmt 4.6, Leading zero omitted, Abs format (unit mm)*
G04 Created by KiCad (PCBNEW 9.0.7) date 2026-08-23 13:54:47*
%MOMM*%
%LPD*%
G01*
G04 APERTURE LIST*
%ADD10C,0.100000*%
%ADD11C,0.150000*%
%ADD12C,0.250000*%
%ADD13C,0.120000*%
G04 APERTURE END LIST*
D10*
X94500000Y-39000000D02*
X97300000Y-47500000D01*
X75463884Y-138472419D02*
X75463884Y-137472419D01*
X75463884Y-137472419D02*
X75844836Y-137472419D01*
X75844836Y-137472419D02*
X75940074Y-137520038D01*
X75940074Y-137520038D02*
X75987693Y-137567657D01*
X75987693Y-137567657D02*
X76035312Y-137662895D01*
X76035312Y-137662895D02*
X76035312Y-137805752D01*
X76035312Y-137805752D02*
X75987693Y-137900990D01*
X75987693Y-137900990D02*
X75940074Y-137948609D01*
X75940074Y-137948609D02*
X75844836Y-137996228D01*
X75844836Y-137996228D02*
X75463884Y-137996228D01*
X77035312Y-138472419D02*
X76701979Y-137996228D01*
X76463884Y-138472419D02*
X76463884Y-137472419D01*
X76463884Y-137472419D02*
X76844836Y-137472419D01*
X76844836Y-137472419D02*
X76940074Y-137520038D01*
X76940074Y-137520038D02*
X76987693Y-137567657D01*
X76987693Y-137567657D02*
X77035312Y-137662895D01*
X77035312Y-137662895D02*
X77035312Y-137805752D01*
X77035312Y-137805752D02*
X76987693Y-137900990D01*
X76987693Y-137900990D02*
X76940074Y-137948609D01*
X76940074Y-137948609D02*
X76844836Y-137996228D01*
X76844836Y-137996228D02*
X76463884Y-137996228D01*
X77987693Y-137520038D02*
X77892455Y-137472419D01*
X77892455Y-137472419D02*
X77749598Y-137472419D01*
X77749598Y-137472419D02*
X77606741Y-137520038D01*
X77606741Y-137520038D02*
X77511503Y-137615276D01*
X77511503Y-137615276D02*
X77463884Y-137710514D01*
X77463884Y-137710514D02*
X77416265Y-137900990D01*
X77416265Y-137900990D02*
X77416265Y-138043847D01*
X77416265Y-138043847D02*
X77463884Y-138234323D01*
X77463884Y-138234323D02*
X77511503Y-138329561D01*
X77511503Y-138329561D02*
X77606741Y-138424800D01*
X77606741Y-138424800D02*
X77749598Y-138472419D01*
X77749598Y-138472419D02*
X77844836Y-138472419D01*
X77844836Y-138472419D02*
X77987693Y-138424800D01*
X77987693Y-138424800D02*
X78035312Y-138377180D01*
X78035312Y-138377180D02*
X78035312Y-138043847D01*
X78035312Y-138043847D02*
X77844836Y-138043847D01*
X72279027Y-135896419D02*
X72850455Y-135896419D01*
X72564741Y-136896419D02*
X72564741Y-135896419D01*
X73088551Y-135896419D02*
X73755217Y-136896419D01*
X73755217Y-135896419D02*
X73088551Y-136896419D01*
X75469503Y-136896419D02*
X75136170Y-136420228D01*
X74898075Y-136896419D02*
X74898075Y-135896419D01*
X74898075Y-135896419D02*
X75279027Y-135896419D01*
X75279027Y-135896419D02*
X75374265Y-135944038D01*
X75374265Y-135944038D02*
X75421884Y-135991657D01*
X75421884Y-135991657D02*
X75469503Y-136086895D01*
X75469503Y-136086895D02*
X75469503Y-136229752D01*
X75469503Y-136229752D02*
X75421884Y-136324990D01*
X75421884Y-136324990D02*
X75374265Y-136372609D01*
X75374265Y-136372609D02*
X75279027Y-136420228D01*
X75279027Y-136420228D02*
X74898075Y-136420228D01*
X75802837Y-135896419D02*
X76469503Y-136896419D01*
X76469503Y-135896419D02*
X75802837Y-136896419D01*
X77612361Y-136515466D02*
X78374266Y-136515466D01*
X80374266Y-136515466D02*
X81136171Y-136515466D01*
X80755218Y-136896419D02*
X80755218Y-136134514D01*
X101909884Y-138539419D02*
X101909884Y-137539419D01*
X101909884Y-137539419D02*
X102147979Y-137539419D01*
X102147979Y-137539419D02*
X102290836Y-137587038D01*
X102290836Y-137587038D02*
X102386074Y-137682276D01*
X102386074Y-137682276D02*
X102433693Y-137777514D01*
X102433693Y-137777514D02*
X102481312Y-137967990D01*
X102481312Y-137967990D02*
X102481312Y-138110847D01*
X102481312Y-138110847D02*
X102433693Y-138301323D01*
X102433693Y-138301323D02*
X102386074Y-138396561D01*
X102386074Y-138396561D02*
X102290836Y-138491800D01*
X102290836Y-138491800D02*
X102147979Y-138539419D01*
X102147979Y-138539419D02*
X101909884Y-138539419D01*
X103243217Y-138015609D02*
X103386074Y-138063228D01*
X103386074Y-138063228D02*
X103433693Y-138110847D01*
X103433693Y-138110847D02*
X103481312Y-138206085D01*
X103481312Y-138206085D02*
X103481312Y-138348942D01*
X103481312Y-138348942D02*
X103433693Y-138444180D01*
X103433693Y-138444180D02*
X103386074Y-138491800D01*
X103386074Y-138491800D02*
X103290836Y-138539419D01*
X103290836Y-138539419D02*
X102909884Y-138539419D01*
X102909884Y-138539419D02*
X102909884Y-137539419D01*
X102909884Y-137539419D02*
X103243217Y-137539419D01*
X103243217Y-137539419D02*
X103338455Y-137587038D01*
X103338455Y-137587038D02*
X103386074Y-137634657D01*
X103386074Y-137634657D02*
X103433693Y-137729895D01*
X103433693Y-137729895D02*
X103433693Y-137825133D01*
X103433693Y-137825133D02*
X103386074Y-137920371D01*
X103386074Y-137920371D02*
X103338455Y-137967990D01*
X103338455Y-137967990D02*
X103243217Y-138015609D01*
X103243217Y-138015609D02*
X102909884Y-138015609D01*
X104433693Y-137587038D02*
X104338455Y-137539419D01*
X104338455Y-137539419D02*
X104195598Y-137539419D01*
X104195598Y-137539419D02*
X104052741Y-137587038D01*
X104052741Y-137587038D02*
X103957503Y-137682276D01*
X103957503Y-137682276D02*
X103909884Y-137777514D01*
X103909884Y-137777514D02*
X103862265Y-137967990D01*
X103862265Y-137967990D02*
X103862265Y-138110847D01*
X103862265Y-138110847D02*
X103909884Y-138301323D01*
X103909884Y-138301323D02*
X103957503Y-138396561D01*
X103957503Y-138396561D02*
X104052741Y-138491800D01*
X104052741Y-138491800D02*
X104195598Y-138539419D01*
X104195598Y-138539419D02*
X104290836Y-138539419D01*
X104290836Y-138539419D02*
X104433693Y-138491800D01*
X104433693Y-138491800D02*
X104481312Y-138444180D01*
X104481312Y-138444180D02*
X104481312Y-138110847D01*
X104481312Y-138110847D02*
X104290836Y-138110847D01*
X102636646Y-116310085D02*
X102836646Y-116310085D01*
X102922360Y-116624371D02*
X102636646Y-116624371D01*
X102636646Y-116624371D02*
X102636646Y-116024371D01*
X102636646Y-116024371D02*
X102922360Y-116024371D01*
X105350932Y-116567228D02*
X105322360Y-116595800D01*
X105322360Y-116595800D02*
X105236646Y-116624371D01*
X105236646Y-116624371D02*
X105179503Y-116624371D01*
X105179503Y-116624371D02*
X105093789Y-116595800D01*
X105093789Y-116595800D02*
X105036646Y-116538657D01*
X105036646Y-116538657D02*
X105008075Y-116481514D01*
X105008075Y-116481514D02*
X104979503Y-116367228D01*
X104979503Y-116367228D02*
X104979503Y-116281514D01*
X104979503Y-116281514D02*
X105008075Y-116167228D01*
X105008075Y-116167228D02*
X105036646Y-116110085D01*
X105036646Y-116110085D02*
X105093789Y-116052942D01*
X105093789Y-116052942D02*
X105179503Y-116024371D01*
X105179503Y-116024371D02*
X105236646Y-116024371D01*
X105236646Y-116024371D02*
X105322360Y-116052942D01*
X105322360Y-116052942D02*
X105350932Y-116081514D01*
D11*
X94507779Y-126098866D02*
X95269684Y-126098866D01*
X94888731Y-126479819D02*
X94888731Y-125717914D01*
D10*
X101900000Y-33600000D02*
X94500000Y-39000000D01*
X122600000Y-125000000D02*
X112700000Y-125000000D01*
X116000000Y-84200000D02*
X111000000Y-84200000D01*
X85500000Y-38900000D02*
X78200000Y-33600000D01*
X42100000Y-129000000D02*
X70300000Y-129000000D01*
X104900000Y-61800000D02*
X99900000Y-61800000D01*
X92800000Y-33600000D02*
X101900000Y-33600000D01*
X112700000Y-129300000D02*
X109000000Y-129300000D01*
X97300000Y-47500000D02*
X90000000Y-42200000D01*
X80100000Y-61800000D02*
X63900000Y-84300000D01*
X122600000Y-129200000D02*
X122600000Y-125000000D01*
X104900000Y-61800000D02*
X91900000Y-43600000D01*
X138500000Y-129200000D02*
X122600000Y-129200000D01*
X69000000Y-84300000D02*
X53000000Y-106600000D01*
X75100000Y-61800000D02*
X88000000Y-43700000D01*
X127300000Y-106800000D02*
X122300000Y-106800000D01*
X90000000Y-25000000D02*
X92800000Y-33600000D01*
X75100000Y-61800000D02*
X80100000Y-61800000D01*
X112700000Y-125000000D02*
X112700000Y-129300000D01*
X58000000Y-106600000D02*
X42100000Y-129000000D01*
X111000000Y-84200000D02*
X127300000Y-106800000D01*
X63900000Y-84300000D02*
X69000000Y-84300000D01*
X78200000Y-33600000D02*
X87200000Y-33600000D01*
X90000000Y-42200000D02*
X82700000Y-47500000D01*
X87200000Y-33600000D02*
X90000000Y-25000000D01*
X83500000Y-50000000D02*
G75*
G02*
X96500000Y-50000000I6500000J12500000D01*
G01*
X100452000Y-116788000D02*
X107284000Y-116788000D01*
X107284000Y-122010000D01*
X100452000Y-122010000D01*
X100452000Y-116788000D01*
X53000000Y-106600000D02*
X58000000Y-106600000D01*
X82700000Y-47500000D02*
X85500000Y-38900000D01*
X122300000Y-106800000D02*
X138500000Y-129200000D01*
X99900000Y-61800000D02*
X116000000Y-84200000D01*
D11*
G36*
X79459616Y-83695194D02*
G01*
X79551444Y-83384109D01*
X79598102Y-83229728D01*
X79799244Y-82448449D01*
X79825064Y-82349355D01*
X79832020Y-82321629D01*
X80064667Y-81443153D01*
X80165234Y-80977687D01*
X80656528Y-80562230D01*
X79925631Y-80536951D01*
X79359806Y-80554741D01*
X78848748Y-80608935D01*
X78435890Y-80688669D01*
X78057934Y-80799008D01*
X77731329Y-80931232D01*
X77428754Y-81091914D01*
X77166359Y-81267298D01*
X76896928Y-81488769D01*
X76672751Y-81721963D01*
X76507372Y-81945757D01*
X76377149Y-82183044D01*
X76221091Y-82688335D01*
X76183770Y-83141801D01*
X76204117Y-83408034D01*
X76276203Y-83737778D01*
X76284337Y-83770482D01*
X77229557Y-83456141D01*
X77122101Y-83001451D01*
X77091419Y-82642077D01*
X77091071Y-82588407D01*
X77108440Y-82304637D01*
X77159679Y-82045392D01*
X77239354Y-81821366D01*
X77347793Y-81622558D01*
X77478832Y-81455642D01*
X77634628Y-81314698D01*
X77884616Y-81166731D01*
X78152233Y-81081664D01*
X78474335Y-81030393D01*
X79270572Y-81002966D01*
X78754108Y-82912398D01*
X78640792Y-83355574D01*
X78552315Y-83720473D01*
X78098939Y-84198578D01*
X78426469Y-84223308D01*
X78125893Y-85295143D01*
X77840127Y-86040876D01*
X77691806Y-86303278D01*
X77530112Y-86508238D01*
X77378204Y-86642072D01*
X77209276Y-86743269D01*
X76803332Y-86864428D01*
X76196409Y-86902896D01*
X75528711Y-86878167D01*
X74936300Y-87696991D01*
X75553990Y-87747000D01*
X75992801Y-87728560D01*
X76358280Y-87669829D01*
X76523939Y-87621153D01*
X76896943Y-87443047D01*
X77491971Y-86997079D01*
X78199506Y-86324224D01*
X78585688Y-85906924D01*
X78837509Y-85549279D01*
X79038787Y-85097705D01*
X79273340Y-84398619D01*
X79321130Y-84248587D01*
X82042484Y-84110101D01*
X81966251Y-84417652D01*
X81916638Y-84626125D01*
X81627027Y-85695543D01*
X81240902Y-87257628D01*
X81185741Y-87621153D01*
X81247960Y-87785806D01*
X81324872Y-87850266D01*
X81421626Y-87884477D01*
X81463262Y-87887683D01*
X81816071Y-87825035D01*
X83718601Y-87446947D01*
X83945014Y-87132607D01*
X82748102Y-87207894D01*
X82599701Y-87190690D01*
X82482455Y-87140602D01*
X82406726Y-87070147D01*
X82360295Y-86977030D01*
X82345284Y-86868275D01*
X82357881Y-86593725D01*
X82446057Y-86135043D01*
X83151469Y-83343484D01*
X83875840Y-80857405D01*
X84009045Y-80479411D01*
X84109328Y-80297348D01*
X84242260Y-80118934D01*
X84390876Y-79990899D01*
X84689514Y-79880930D01*
X84864955Y-79868702D01*
X85175274Y-79891576D01*
X85494322Y-79981348D01*
X85532653Y-79995098D01*
X85961300Y-79302120D01*
X85684053Y-79229442D01*
X85406807Y-79213643D01*
X84990801Y-79264201D01*
X84648823Y-79442450D01*
X84012605Y-79936048D01*
X83491638Y-80435834D01*
X83169241Y-80812252D01*
X82935485Y-81170911D01*
X82687668Y-81775549D01*
X82596976Y-82084473D01*
X82256807Y-83305565D01*
X82216737Y-83442478D01*
X82143601Y-83695743D01*
X79459616Y-83695194D01*
G37*
G36*
X88010702Y-82590324D02*
G01*
X88550990Y-82649732D01*
X89143723Y-82765911D01*
X89107120Y-82807076D01*
X88778274Y-83219836D01*
X88467796Y-84412796D01*
X88089845Y-86095698D01*
X88022099Y-86611637D01*
X88067483Y-86799105D01*
X88173224Y-86863878D01*
X88293841Y-86834366D01*
X88505493Y-86722164D01*
X89433334Y-86107703D01*
X89420694Y-86485790D01*
X88286980Y-87280435D01*
X87650604Y-87694430D01*
X87307971Y-87885509D01*
X87127437Y-87922854D01*
X86991655Y-87870814D01*
X86942784Y-87785149D01*
X86925754Y-87658523D01*
X86968343Y-87277137D01*
X87114797Y-86536349D01*
X85808465Y-87453702D01*
X85168531Y-87834558D01*
X84987145Y-87903025D01*
X84846819Y-87922854D01*
X84774216Y-87915382D01*
X84662138Y-87870128D01*
X84564177Y-87786346D01*
X84469053Y-87642990D01*
X84397081Y-87455250D01*
X84347393Y-87205498D01*
X84330246Y-86914437D01*
X84334233Y-86752509D01*
X84377068Y-86322026D01*
X85300745Y-86322026D01*
X85343200Y-86683330D01*
X85453353Y-86883692D01*
X85532829Y-86934980D01*
X85628274Y-86952355D01*
X85753887Y-86930844D01*
X86089734Y-86785840D01*
X86535576Y-86523709D01*
X86731642Y-86377351D01*
X87215914Y-86019226D01*
X87329121Y-85590579D01*
X87424084Y-85162757D01*
X87543444Y-84632170D01*
X87896252Y-83320403D01*
X87415607Y-83221143D01*
X86825187Y-83156638D01*
X86779085Y-83157694D01*
X86470478Y-83235109D01*
X86319143Y-83335297D01*
X86177276Y-83480437D01*
X85996118Y-83750707D01*
X85817318Y-84115047D01*
X85592491Y-84695828D01*
X85368878Y-85584611D01*
X85300745Y-86322026D01*
X84377068Y-86322026D01*
X84381494Y-86277549D01*
X84475250Y-85765112D01*
X84764555Y-84752082D01*
X85072889Y-84039079D01*
X85326024Y-83661122D01*
X85696494Y-83348052D01*
X86472378Y-82829109D01*
X86765212Y-82678971D01*
X87107432Y-82598423D01*
X87556083Y-82576867D01*
X88010702Y-82590324D01*
G37*
G36*
X94107418Y-82609018D02*
G01*
X94237558Y-82674698D01*
X94349627Y-82773550D01*
X94449667Y-82916751D01*
X94524594Y-83093966D01*
X94574717Y-83317091D01*
X94591926Y-83572095D01*
X94527523Y-84256221D01*
X94427450Y-84722427D01*
X94286810Y-85200915D01*
X93923677Y-86089568D01*
X93776148Y-86346141D01*
X93531215Y-86644736D01*
X93155412Y-86971040D01*
X92924574Y-87161995D01*
X92310662Y-87623374D01*
X92079824Y-87745953D01*
X91861235Y-87815077D01*
X91340809Y-87852512D01*
X91052778Y-87840148D01*
X90736308Y-87789864D01*
X90597823Y-88331717D01*
X90517713Y-88700638D01*
X90421418Y-89138451D01*
X90215418Y-90078651D01*
X90131258Y-90474398D01*
X91542493Y-90549686D01*
X91151765Y-90865126D01*
X90559904Y-90877216D01*
X89753170Y-90865126D01*
X88846418Y-90852486D01*
X88417772Y-90839847D01*
X88795860Y-90436480D01*
X89249236Y-90411200D01*
X90113623Y-86920482D01*
X90950631Y-86920482D01*
X91441233Y-87129895D01*
X91907941Y-87197453D01*
X92141438Y-87171143D01*
X92324523Y-87109574D01*
X92498997Y-87011620D01*
X92679249Y-86863133D01*
X92849266Y-86670671D01*
X93027746Y-86402008D01*
X93193330Y-86076928D01*
X93390039Y-85599058D01*
X93616120Y-84784026D01*
X93684625Y-84113399D01*
X93683014Y-84041187D01*
X93611564Y-83686453D01*
X93468462Y-83488655D01*
X93375172Y-83438224D01*
X93268618Y-83420970D01*
X93211506Y-83423135D01*
X93017508Y-83460830D01*
X92784745Y-83554014D01*
X92269149Y-83857319D01*
X91517214Y-84390370D01*
X91459633Y-84648302D01*
X91416647Y-84843196D01*
X91227603Y-85661471D01*
X91038559Y-86517664D01*
X90950631Y-86920482D01*
X90113623Y-86920482D01*
X90229952Y-86450704D01*
X90644993Y-84498511D01*
X90711029Y-84012282D01*
X90705447Y-83919584D01*
X90630030Y-83728332D01*
X90560262Y-83677354D01*
X90471427Y-83660023D01*
X90328270Y-83680493D01*
X90081249Y-83785869D01*
X89564675Y-84000192D01*
X89639963Y-83672662D01*
X90579216Y-83134780D01*
X91533064Y-82642440D01*
X91718897Y-82576867D01*
X91836992Y-82627507D01*
X91895302Y-82741181D01*
X91630970Y-83886436D01*
X92315836Y-83397471D01*
X92664117Y-83143999D01*
X93022621Y-82903001D01*
X93546653Y-82647209D01*
X93911587Y-82576867D01*
X94107418Y-82609018D01*
G37*
G36*
X99646845Y-82609018D02*
G01*
X99776985Y-82674698D01*
X99889055Y-82773550D01*
X99989095Y-82916751D01*
X100064022Y-83093966D01*
X100114144Y-83317091D01*
X100131354Y-83572095D01*
X100066951Y-84256221D01*
X99966878Y-84722427D01*
X99826237Y-85200915D01*
X99463105Y-86089568D01*
X99315576Y-86346141D01*
X99070643Y-86644736D01*
X98694839Y-86971040D01*
X98464002Y-87161995D01*
X97850089Y-87623374D01*
X97619252Y-87745953D01*
X97400662Y-87815077D01*
X96880237Y-87852512D01*
X96592206Y-87840148D01*
X96275736Y-87789864D01*
X96137250Y-88331717D01*
X96057141Y-88700638D01*
X95960846Y-89138451D01*
X95754846Y-90078651D01*
X95670685Y-90474398D01*
X97081921Y-90549686D01*
X96691193Y-90865126D01*
X96099332Y-90877216D01*
X95292598Y-90865126D01*
X94385846Y-90852486D01*
X93957200Y-90839847D01*
X94335288Y-90436480D01*
X94788664Y-90411200D01*
X95653051Y-86920482D01*
X96490059Y-86920482D01*
X96980661Y-87129895D01*
X97447369Y-87197453D01*
X97680866Y-87171143D01*
X97863951Y-87109574D01*
X98038425Y-87011620D01*
X98218677Y-86863133D01*
X98388694Y-86670671D01*
X98567174Y-86402008D01*
X98732758Y-86076928D01*
X98929466Y-85599058D01*
X99155548Y-84784026D01*
X99224053Y-84113399D01*
X99222442Y-84041187D01*
X99150992Y-83686453D01*
X99007889Y-83488655D01*
X98914600Y-83438224D01*
X98808046Y-83420970D01*
X98750934Y-83423135D01*
X98556936Y-83460830D01*
X98324173Y-83554014D01*
X97808577Y-83857319D01*
X97056642Y-84390370D01*
X96999061Y-84648302D01*
X96956075Y-84843196D01*
X96767031Y-85661471D01*
X96577987Y-86517664D01*
X96490059Y-86920482D01*
X95653051Y-86920482D01*
X95769380Y-86450704D01*
X96184420Y-84498511D01*
X96250457Y-84012282D01*
X96244874Y-83919584D01*
X96169457Y-83728332D01*
X96099689Y-83677354D01*
X96010855Y-83660023D01*
X95867698Y-83680493D01*
X95620677Y-83785869D01*
X95104103Y-84000192D01*
X95179391Y-83672662D01*
X96118643Y-83134780D01*
X97072492Y-82642440D01*
X97258325Y-82576867D01*
X97376420Y-82627507D01*
X97434729Y-82741181D01*
X97170398Y-83886436D01*
X97855264Y-83397471D01*
X98203545Y-83143999D01*
X98562049Y-82903001D01*
X99086081Y-82647209D01*
X99451015Y-82576867D01*
X99646845Y-82609018D01*
G37*
G36*
X99771401Y-90789288D02*
G01*
X101021748Y-90876159D01*
X101157357Y-90877216D01*
X101545387Y-90858518D01*
X101890453Y-90797977D01*
X102147430Y-90714089D01*
X102393521Y-90595119D01*
X102883451Y-90238003D01*
X103261570Y-89870447D01*
X103587292Y-89503450D01*
X103823053Y-89175436D01*
X104002908Y-88803980D01*
X104160909Y-88306657D01*
X104483761Y-86901797D01*
X104951003Y-84859782D01*
X105376449Y-83259658D01*
X105592196Y-82526858D01*
X105437265Y-82610364D01*
X105239388Y-82715902D01*
X104798651Y-82930225D01*
X104521130Y-83068711D01*
X104407924Y-83522636D01*
X104143592Y-84556333D01*
X103891350Y-85590579D01*
X103752864Y-86132982D01*
X102590368Y-86835714D01*
X102363603Y-86934220D01*
X102203144Y-86952355D01*
X102051782Y-86886777D01*
X101952774Y-86689865D01*
X101938262Y-86548988D01*
X101959177Y-86260776D01*
X102035236Y-85844663D01*
X102480115Y-84077678D01*
X102782366Y-82728542D01*
X102723348Y-82603223D01*
X102643880Y-82576867D01*
X102439536Y-82644510D01*
X101533749Y-83111375D01*
X100640783Y-83623203D01*
X100602864Y-83963922D01*
X101221791Y-83669228D01*
X101472247Y-83611113D01*
X101570130Y-83628730D01*
X101632748Y-83681707D01*
X101661291Y-83800157D01*
X101573855Y-84345116D01*
X101270563Y-85514742D01*
X100969755Y-86668515D01*
X100917935Y-86968842D01*
X100905115Y-87217237D01*
X100922013Y-87424352D01*
X100969960Y-87602604D01*
X101042229Y-87742869D01*
X101136067Y-87846069D01*
X101235332Y-87903034D01*
X101346177Y-87922854D01*
X101346401Y-87922854D01*
X101631925Y-87840253D01*
X102102027Y-87570046D01*
X103116421Y-86927008D01*
X103714946Y-86511070D01*
X103576460Y-87179318D01*
X103195144Y-88907435D01*
X103087201Y-89278937D01*
X102984049Y-89531377D01*
X102877358Y-89709867D01*
X102744864Y-89856727D01*
X102425206Y-90048173D01*
X101971214Y-90146522D01*
X101673930Y-90159508D01*
X101300470Y-90138972D01*
X100862885Y-90065562D01*
X100275335Y-89933095D01*
X99771401Y-90789288D01*
G37*
D10*
X102765952Y-120054475D02*
X102289762Y-120054475D01*
X102289762Y-120054475D02*
X102289762Y-119054475D01*
X103099286Y-120054475D02*
X103099286Y-119387808D01*
X103099286Y-119054475D02*
X103051667Y-119102094D01*
X103051667Y-119102094D02*
X103099286Y-119149713D01*
X103099286Y-119149713D02*
X103146905Y-119102094D01*
X103146905Y-119102094D02*
X103099286Y-119054475D01*
X103099286Y-119054475D02*
X103099286Y-119149713D01*
X104004047Y-119387808D02*
X104004047Y-120197332D01*
X104004047Y-120197332D02*
X103956428Y-120292570D01*
X103956428Y-120292570D02*
X103908809Y-120340189D01*
X103908809Y-120340189D02*
X103813571Y-120387808D01*
X103813571Y-120387808D02*
X103670714Y-120387808D01*
X103670714Y-120387808D02*
X103575476Y-120340189D01*
X104004047Y-120006856D02*
X103908809Y-120054475D01*
X103908809Y-120054475D02*
X103718333Y-120054475D01*
X103718333Y-120054475D02*
X103623095Y-120006856D01*
X103623095Y-120006856D02*
X103575476Y-119959236D01*
X103575476Y-119959236D02*
X103527857Y-119863998D01*
X103527857Y-119863998D02*
X103527857Y-119578284D01*
X103527857Y-119578284D02*
X103575476Y-119483046D01*
X103575476Y-119483046D02*
X103623095Y-119435427D01*
X103623095Y-119435427D02*
X103718333Y-119387808D01*
X103718333Y-119387808D02*
X103908809Y-119387808D01*
X103908809Y-119387808D02*
X104004047Y-119435427D01*
X104480238Y-120054475D02*
X104480238Y-119054475D01*
X104908809Y-120054475D02*
X104908809Y-119530665D01*
X104908809Y-119530665D02*
X104861190Y-119435427D01*
X104861190Y-119435427D02*
X104765952Y-119387808D01*
X104765952Y-119387808D02*
X104623095Y-119387808D01*
X104623095Y-119387808D02*
X104527857Y-119435427D01*
X104527857Y-119435427D02*
X104480238Y-119483046D01*
X105242143Y-119387808D02*
X105623095Y-119387808D01*
X105385000Y-119054475D02*
X105385000Y-119911617D01*
X105385000Y-119911617D02*
X105432619Y-120006856D01*
X105432619Y-120006856D02*
X105527857Y-120054475D01*
X105527857Y-120054475D02*
X105623095Y-120054475D01*
X101551666Y-121616800D02*
X101694523Y-121664419D01*
X101694523Y-121664419D02*
X101932618Y-121664419D01*
X101932618Y-121664419D02*
X102027856Y-121616800D01*
X102027856Y-121616800D02*
X102075475Y-121569180D01*
X102075475Y-121569180D02*
X102123094Y-121473942D01*
X102123094Y-121473942D02*
X102123094Y-121378704D01*
X102123094Y-121378704D02*
X102075475Y-121283466D01*
X102075475Y-121283466D02*
X102027856Y-121235847D01*
X102027856Y-121235847D02*
X101932618Y-121188228D01*
X101932618Y-121188228D02*
X101742142Y-121140609D01*
X101742142Y-121140609D02*
X101646904Y-121092990D01*
X101646904Y-121092990D02*
X101599285Y-121045371D01*
X101599285Y-121045371D02*
X101551666Y-120950133D01*
X101551666Y-120950133D02*
X101551666Y-120854895D01*
X101551666Y-120854895D02*
X101599285Y-120759657D01*
X101599285Y-120759657D02*
X101646904Y-120712038D01*
X101646904Y-120712038D02*
X101742142Y-120664419D01*
X101742142Y-120664419D02*
X101980237Y-120664419D01*
X101980237Y-120664419D02*
X102123094Y-120712038D01*
X102932618Y-121616800D02*
X102837380Y-121664419D01*
X102837380Y-121664419D02*
X102646904Y-121664419D01*
X102646904Y-121664419D02*
X102551666Y-121616800D01*
X102551666Y-121616800D02*
X102504047Y-121521561D01*
X102504047Y-121521561D02*
X102504047Y-121140609D01*
X102504047Y-121140609D02*
X102551666Y-121045371D01*
X102551666Y-121045371D02*
X102646904Y-120997752D01*
X102646904Y-120997752D02*
X102837380Y-120997752D01*
X102837380Y-120997752D02*
X102932618Y-121045371D01*
X102932618Y-121045371D02*
X102980237Y-121140609D01*
X102980237Y-121140609D02*
X102980237Y-121235847D01*
X102980237Y-121235847D02*
X102504047Y-121331085D01*
X103408809Y-120997752D02*
X103408809Y-121664419D01*
X103408809Y-121092990D02*
X103456428Y-121045371D01*
X103456428Y-121045371D02*
X103551666Y-120997752D01*
X103551666Y-120997752D02*
X103694523Y-120997752D01*
X103694523Y-120997752D02*
X103789761Y-121045371D01*
X103789761Y-121045371D02*
X103837380Y-121140609D01*
X103837380Y-121140609D02*
X103837380Y-121664419D01*
X104265952Y-121616800D02*
X104361190Y-121664419D01*
X104361190Y-121664419D02*
X104551666Y-121664419D01*
X104551666Y-121664419D02*
X104646904Y-121616800D01*
X104646904Y-121616800D02*
X104694523Y-121521561D01*
X104694523Y-121521561D02*
X104694523Y-121473942D01*
X104694523Y-121473942D02*
X104646904Y-121378704D01*
X104646904Y-121378704D02*
X104551666Y-121331085D01*
X104551666Y-121331085D02*
X104408809Y-121331085D01*
X104408809Y-121331085D02*
X104313571Y-121283466D01*
X104313571Y-121283466D02*
X104265952Y-121188228D01*
X104265952Y-121188228D02*
X104265952Y-121140609D01*
X104265952Y-121140609D02*
X104313571Y-121045371D01*
X104313571Y-121045371D02*
X104408809Y-120997752D01*
X104408809Y-120997752D02*
X104551666Y-120997752D01*
X104551666Y-120997752D02*
X104646904Y-121045371D01*
X105265952Y-121664419D02*
X105170714Y-121616800D01*
X105170714Y-121616800D02*
X105123095Y-121569180D01*
X105123095Y-121569180D02*
X105075476Y-121473942D01*
X105075476Y-121473942D02*
X105075476Y-121188228D01*
X105075476Y-121188228D02*
X105123095Y-121092990D01*
X105123095Y-121092990D02*
X105170714Y-121045371D01*
X105170714Y-121045371D02*
X105265952Y-120997752D01*
X105265952Y-120997752D02*
X105408809Y-120997752D01*
X105408809Y-120997752D02*
X105504047Y-121045371D01*
X105504047Y-121045371D02*
X105551666Y-121092990D01*
X105551666Y-121092990D02*
X105599285Y-121188228D01*
X105599285Y-121188228D02*
X105599285Y-121473942D01*
X105599285Y-121473942D02*
X105551666Y-121569180D01*
X105551666Y-121569180D02*
X105504047Y-121616800D01*
X105504047Y-121616800D02*
X105408809Y-121664419D01*
X105408809Y-121664419D02*
X105265952Y-121664419D01*
X106027857Y-121664419D02*
X106027857Y-120997752D01*
X106027857Y-121188228D02*
X106075476Y-121092990D01*
X106075476Y-121092990D02*
X106123095Y-121045371D01*
X106123095Y-121045371D02*
X106218333Y-120997752D01*
X106218333Y-120997752D02*
X106313571Y-120997752D01*
D12*
X114493044Y-125442238D02*
X114683520Y-125442238D01*
X114683520Y-125442238D02*
X114778758Y-125537476D01*
X114778758Y-125537476D02*
X114873996Y-125727952D01*
X114873996Y-125727952D02*
X114921615Y-126108904D01*
X114921615Y-126108904D02*
X114921615Y-126775571D01*
X114921615Y-126775571D02*
X114873996Y-127156523D01*
X114873996Y-127156523D02*
X114778758Y-127347000D01*
X114778758Y-127347000D02*
X114683520Y-127442238D01*
X114683520Y-127442238D02*
X114493044Y-127442238D01*
X114493044Y-127442238D02*
X114397806Y-127347000D01*
X114397806Y-127347000D02*
X114302568Y-127156523D01*
X114302568Y-127156523D02*
X114254949Y-126775571D01*
X114254949Y-126775571D02*
X114254949Y-126108904D01*
X114254949Y-126108904D02*
X114302568Y-125727952D01*
X114302568Y-125727952D02*
X114397806Y-125537476D01*
X114397806Y-125537476D02*
X114493044Y-125442238D01*
X115683520Y-126394619D02*
X115350187Y-126394619D01*
X115350187Y-127442238D02*
X115350187Y-125442238D01*
X115350187Y-125442238D02*
X115826377Y-125442238D01*
X116540663Y-126394619D02*
X116207330Y-126394619D01*
X116207330Y-127442238D02*
X116207330Y-125442238D01*
X116207330Y-125442238D02*
X116683520Y-125442238D01*
X118064473Y-128108904D02*
X118064473Y-125251761D01*
X119731140Y-125442238D02*
X119921616Y-125442238D01*
X119921616Y-125442238D02*
X120016854Y-125537476D01*
X120016854Y-125537476D02*
X120112092Y-125727952D01*
X120112092Y-125727952D02*
X120159711Y-126108904D01*
X120159711Y-126108904D02*
X120159711Y-126775571D01*
X120159711Y-126775571D02*
X120112092Y-127156523D01*
X120112092Y-127156523D02*
X120016854Y-127347000D01*
X120016854Y-127347000D02*
X119921616Y-127442238D01*
X119921616Y-127442238D02*
X119731140Y-127442238D01*
X119731140Y-127442238D02*
X119635902Y-127347000D01*
X119635902Y-127347000D02*
X119540664Y-127156523D01*
X119540664Y-127156523D02*
X119493045Y-126775571D01*
X119493045Y-126775571D02*
X119493045Y-126108904D01*
X119493045Y-126108904D02*
X119540664Y-125727952D01*
X119540664Y-125727952D02*
X119635902Y-125537476D01*
X119635902Y-125537476D02*
X119731140Y-125442238D01*
X120588283Y-127442238D02*
X120588283Y-125442238D01*
X120588283Y-125442238D02*
X121159711Y-127442238D01*
X121159711Y-127442238D02*
X121159711Y-125442238D01*
D11*
G36*
X73587311Y-95604194D02*
G01*
X73679139Y-95293109D01*
X73725797Y-95138728D01*
X73926939Y-94357449D01*
X73952759Y-94258355D01*
X73959715Y-94230629D01*
X74192362Y-93352153D01*
X74292929Y-92886687D01*
X74784223Y-92471230D01*
X74053326Y-92445951D01*
X73487501Y-92463741D01*
X72976443Y-92517935D01*
X72563585Y-92597669D01*
X72185629Y-92708008D01*
X71859024Y-92840232D01*
X71556449Y-93000914D01*
X71294054Y-93176298D01*
X71024623Y-93397769D01*
X70800446Y-93630963D01*
X70635067Y-93854757D01*
X70504844Y-94092044D01*
X70348786Y-94597335D01*
X70311465Y-95050801D01*
X70331812Y-95317034D01*
X70403898Y-95646778D01*
X70412032Y-95679482D01*
X71357252Y-95365141D01*
X71249796Y-94910451D01*
X71219114Y-94551077D01*
X71218766Y-94497407D01*
X71236135Y-94213637D01*
X71287374Y-93954392D01*
X71367049Y-93730366D01*
X71475488Y-93531558D01*
X71606527Y-93364642D01*
X71762323Y-93223698D01*
X72012311Y-93075731D01*
X72279928Y-92990664D01*
X72602030Y-92939393D01*
X73398267Y-92911966D01*
X72881803Y-94821398D01*
X72768487Y-95264574D01*
X72680010Y-95629473D01*
X72226634Y-96107578D01*
X72554164Y-96132308D01*
X72253588Y-97204143D01*
X71967822Y-97949876D01*
X71819501Y-98212278D01*
X71657807Y-98417238D01*
X71505899Y-98551072D01*
X71336971Y-98652269D01*
X70931027Y-98773428D01*
X70324104Y-98811896D01*
X69656406Y-98787167D01*
X69063995Y-99605991D01*
X69681685Y-99656000D01*
X70120496Y-99637560D01*
X70485975Y-99578829D01*
X70651634Y-99530153D01*
X71024638Y-99352047D01*
X71619666Y-98906079D01*
X72327201Y-98233224D01*
X72713383Y-97815924D01*
X72965204Y-97458279D01*
X73166482Y-97006705D01*
X73401035Y-96307619D01*
X73448825Y-96157587D01*
X76170179Y-96019101D01*
X76093946Y-96326652D01*
X76044333Y-96535125D01*
X75754722Y-97604543D01*
X75368597Y-99166628D01*
X75313436Y-99530153D01*
X75375655Y-99694806D01*
X75452567Y-99759266D01*
X75549321Y-99793477D01*
X75590957Y-99796683D01*
X75943766Y-99734035D01*
X77846296Y-99355947D01*
X78072709Y-99041607D01*
X76875797Y-99116894D01*
X76727396Y-99099690D01*
X76610150Y-99049602D01*
X76534421Y-98979147D01*
X76487990Y-98886030D01*
X76472979Y-98777275D01*
X76485576Y-98502725D01*
X76573752Y-98044043D01*
X77279164Y-95252484D01*
X78003535Y-92766405D01*
X78136740Y-92388411D01*
X78237023Y-92206348D01*
X78369955Y-92027934D01*
X78518571Y-91899899D01*
X78817209Y-91789930D01*
X78992650Y-91777702D01*
X79302969Y-91800576D01*
X79622017Y-91890348D01*
X79660348Y-91904098D01*
X80088995Y-91211120D01*
X79811748Y-91138442D01*
X79534502Y-91122643D01*
X79118496Y-91173201D01*
X78776518Y-91351450D01*
X78140300Y-91845048D01*
X77619333Y-92344834D01*
X77296936Y-92721252D01*
X77063180Y-93079911D01*
X76815363Y-93684549D01*
X76724671Y-93993473D01*
X76384502Y-95214565D01*
X76344432Y-95351478D01*
X76271296Y-95604743D01*
X73587311Y-95604194D01*
G37*
G36*
X81947105Y-94502639D02*
G01*
X82144092Y-94552327D01*
X82322030Y-94632683D01*
X82479407Y-94741988D01*
X82613238Y-94877680D01*
X82721903Y-95038478D01*
X82802341Y-95221347D01*
X82852487Y-95424868D01*
X82869699Y-95645959D01*
X82831930Y-96148348D01*
X82749561Y-96590814D01*
X82627211Y-97042128D01*
X82306363Y-97859284D01*
X81962398Y-98445349D01*
X81564590Y-98833559D01*
X81178006Y-99110360D01*
X80690198Y-99403758D01*
X80499849Y-99502317D01*
X79883942Y-99757446D01*
X79636908Y-99813761D01*
X79404809Y-99831854D01*
X79195068Y-99814607D01*
X79007518Y-99765373D01*
X78839168Y-99685805D01*
X78688982Y-99575392D01*
X78561587Y-99437029D01*
X78455128Y-99265918D01*
X78376381Y-99068588D01*
X78325747Y-98838439D01*
X78308464Y-98584384D01*
X78352020Y-98054621D01*
X79278963Y-98054621D01*
X79283764Y-98202300D01*
X79375016Y-98660092D01*
X79556047Y-98979486D01*
X79805717Y-99172066D01*
X79956681Y-99222709D01*
X80123066Y-99239993D01*
X80296594Y-99222742D01*
X80482040Y-99165319D01*
X80663153Y-99068454D01*
X80856949Y-98916811D01*
X81043231Y-98719346D01*
X81237914Y-98450831D01*
X81420546Y-98129909D01*
X81610269Y-97697465D01*
X81831831Y-96954096D01*
X81899750Y-96326847D01*
X81894018Y-96151676D01*
X81802064Y-95669084D01*
X81625639Y-95340940D01*
X81385745Y-95146574D01*
X81240493Y-95095608D01*
X81080376Y-95078278D01*
X81046191Y-95079032D01*
X80860419Y-95108692D01*
X80675889Y-95179178D01*
X80469307Y-95305389D01*
X80269868Y-95475764D01*
X80062973Y-95707518D01*
X79872071Y-95980204D01*
X79697545Y-96294550D01*
X79547906Y-96638260D01*
X79345408Y-97356265D01*
X79278963Y-98054621D01*
X78352020Y-98054621D01*
X78367550Y-97865735D01*
X78451605Y-97460538D01*
X78569056Y-97067850D01*
X78883763Y-96361656D01*
X79267573Y-95802099D01*
X79681781Y-95406357D01*
X79902971Y-95248029D01*
X80674991Y-94795694D01*
X81300479Y-94553351D01*
X81735985Y-94485867D01*
X81947105Y-94502639D01*
G37*
G36*
X86118618Y-98027144D02*
G01*
X85312433Y-98518438D01*
X84896355Y-98754100D01*
X84628451Y-98844073D01*
X84594176Y-98845968D01*
X84461645Y-98783317D01*
X84373255Y-98592571D01*
X84367213Y-98518438D01*
X84367213Y-98405232D01*
X84367213Y-98291476D01*
X84431938Y-97902526D01*
X84950759Y-95631540D01*
X85400361Y-93843997D01*
X85790130Y-92493815D01*
X85947670Y-92121724D01*
X86108998Y-91901394D01*
X86214668Y-91827326D01*
X86333564Y-91785230D01*
X86559904Y-91765063D01*
X86826021Y-91780793D01*
X87177044Y-91852990D01*
X87718897Y-91185291D01*
X87402358Y-91123673D01*
X87151765Y-91109454D01*
X86894270Y-91128002D01*
X86646759Y-91187501D01*
X86193678Y-91414290D01*
X85639963Y-91852990D01*
X85226116Y-92247875D01*
X84977099Y-92571970D01*
X84783220Y-92999893D01*
X84279286Y-94877144D01*
X83371985Y-98820689D01*
X83371714Y-98822314D01*
X83346706Y-99047652D01*
X83408835Y-99417990D01*
X83485665Y-99590351D01*
X83582139Y-99722419D01*
X83670926Y-99791683D01*
X83762712Y-99816467D01*
X83838000Y-99816467D01*
X83875919Y-99816467D01*
X83996525Y-99782125D01*
X84632220Y-99366884D01*
X86118618Y-98304115D01*
X86118618Y-98027144D01*
G37*
G36*
X88706432Y-91902999D02*
G01*
X87837049Y-92558608D01*
X87956557Y-92852480D01*
X88144351Y-93182106D01*
X88315704Y-93440080D01*
X88376531Y-93385765D01*
X89134528Y-92759742D01*
X88970764Y-92470131D01*
X88919131Y-92370236D01*
X88781720Y-92066764D01*
X88706432Y-91902999D01*
G37*
G36*
X89185087Y-98205747D02*
G01*
X88970764Y-98318953D01*
X88115601Y-98769856D01*
X87923697Y-98843993D01*
X87799131Y-98861355D01*
X87720341Y-98844315D01*
X87656261Y-98795378D01*
X87578277Y-98601608D01*
X87572168Y-98508547D01*
X87624169Y-98112942D01*
X87988175Y-96629647D01*
X88454190Y-94612263D01*
X88437658Y-94550489D01*
X88392279Y-94507248D01*
X88303065Y-94485867D01*
X88064219Y-94554356D01*
X87378971Y-94916379D01*
X86312608Y-95595401D01*
X86287328Y-95948759D01*
X86992671Y-95578228D01*
X87206720Y-95520113D01*
X87279555Y-95537448D01*
X87328771Y-95588449D01*
X87358394Y-95734436D01*
X87333928Y-95975479D01*
X87233006Y-96414330D01*
X87131432Y-96806052D01*
X86613072Y-98766627D01*
X86548277Y-99103972D01*
X86539021Y-99327920D01*
X86556150Y-99517249D01*
X86605711Y-99668163D01*
X86672729Y-99762435D01*
X86760240Y-99818121D01*
X86841271Y-99831854D01*
X87149544Y-99756034D01*
X87765761Y-99426200D01*
X88063462Y-99239443D01*
X88781720Y-98772878D01*
X88956226Y-98667770D01*
X89134528Y-98558555D01*
X89185087Y-98205747D01*
G37*
G36*
X96207740Y-91195183D02*
G01*
X95767004Y-91900251D01*
X95744498Y-91894422D01*
X95427662Y-91820800D01*
X95187233Y-91800234D01*
X95086802Y-91805313D01*
X94787625Y-91901942D01*
X94641423Y-92014360D01*
X94506612Y-92172554D01*
X94339269Y-92459989D01*
X94179364Y-92841624D01*
X94150455Y-92927633D01*
X93805514Y-94210579D01*
X93364487Y-96070058D01*
X92920309Y-98157465D01*
X92856057Y-98596474D01*
X92858187Y-98650445D01*
X92924615Y-98860377D01*
X93032461Y-98924553D01*
X93059002Y-98920633D01*
X93274219Y-98830607D01*
X93599593Y-98647032D01*
X93855071Y-98474432D01*
X94192004Y-98243665D01*
X94544813Y-98016703D01*
X94494255Y-98407430D01*
X93060152Y-99370207D01*
X92351854Y-99765320D01*
X92150439Y-99831854D01*
X92101967Y-99828525D01*
X92012473Y-99798305D01*
X91945626Y-99737550D01*
X91891280Y-99613560D01*
X91873468Y-99441676D01*
X91900258Y-99025395D01*
X91974035Y-98533276D01*
X90740199Y-99397125D01*
X90116778Y-99757398D01*
X89857182Y-99831854D01*
X89827622Y-99829127D01*
X89721710Y-99777900D01*
X89620008Y-99670366D01*
X89519972Y-99499542D01*
X89440988Y-99288769D01*
X89378527Y-98861355D01*
X89378562Y-98849393D01*
X89412152Y-98432709D01*
X90285828Y-98432709D01*
X90306814Y-98704500D01*
X90392716Y-98915635D01*
X90462708Y-98969463D01*
X90550160Y-98987202D01*
X90581636Y-98985505D01*
X90748687Y-98934225D01*
X91017039Y-98786469D01*
X92075151Y-98066711D01*
X92667013Y-95418997D01*
X92344038Y-95158891D01*
X92184691Y-95097147D01*
X92011953Y-95078278D01*
X91862321Y-95090083D01*
X91684543Y-95137357D01*
X91514817Y-95220835D01*
X91338629Y-95353546D01*
X91172234Y-95529678D01*
X90996629Y-95780225D01*
X90833701Y-96086135D01*
X90664968Y-96498742D01*
X90512791Y-96982456D01*
X90356076Y-97683176D01*
X90285828Y-98432709D01*
X89412152Y-98432709D01*
X89412231Y-98431726D01*
X89501034Y-97944088D01*
X89813333Y-96858796D01*
X90136356Y-96093542D01*
X90374305Y-95721247D01*
X90774430Y-95348013D01*
X91522590Y-94824328D01*
X92071192Y-94551050D01*
X92352123Y-94485867D01*
X92868696Y-94561704D01*
X92956318Y-94216860D01*
X92969813Y-94159986D01*
X93144402Y-93494227D01*
X93283661Y-93066773D01*
X93437768Y-92759806D01*
X93647192Y-92493820D01*
X93952402Y-92189312D01*
X94452278Y-91765877D01*
X95048747Y-91358948D01*
X95290453Y-91234753D01*
X95530456Y-91164684D01*
X95804373Y-91144625D01*
X96207740Y-91195183D01*
G37*
G36*
X98607203Y-94499324D02*
G01*
X99147491Y-94558732D01*
X99740225Y-94674911D01*
X99703622Y-94716076D01*
X99374776Y-95128836D01*
X99064298Y-96321796D01*
X98686347Y-98004698D01*
X98618600Y-98520637D01*
X98663984Y-98708105D01*
X98769726Y-98772878D01*
X98890342Y-98743366D01*
X99101995Y-98631164D01*
X100029835Y-98016703D01*
X100017196Y-98394790D01*
X98883482Y-99189435D01*
X98247105Y-99603430D01*
X97904472Y-99794509D01*
X97723939Y-99831854D01*
X97588157Y-99779814D01*
X97539286Y-99694149D01*
X97522255Y-99567523D01*
X97564845Y-99186137D01*
X97711299Y-98445349D01*
X96404967Y-99362702D01*
X95765033Y-99743558D01*
X95583647Y-99812025D01*
X95443321Y-99831854D01*
X95370718Y-99824382D01*
X95258639Y-99779128D01*
X95160679Y-99695346D01*
X95065555Y-99551990D01*
X94993582Y-99364250D01*
X94943895Y-99114498D01*
X94926748Y-98823437D01*
X94930735Y-98661509D01*
X94973569Y-98231026D01*
X95897247Y-98231026D01*
X95939702Y-98592330D01*
X96049855Y-98792692D01*
X96129330Y-98843980D01*
X96224776Y-98861355D01*
X96350389Y-98839844D01*
X96686236Y-98694840D01*
X97132077Y-98432709D01*
X97328143Y-98286351D01*
X97812416Y-97928226D01*
X97925622Y-97499579D01*
X98020586Y-97071757D01*
X98139945Y-96541170D01*
X98492754Y-95229403D01*
X98012108Y-95130143D01*
X97421688Y-95065638D01*
X97375586Y-95066694D01*
X97066980Y-95144109D01*
X96915645Y-95244297D01*
X96773778Y-95389437D01*
X96592620Y-95659707D01*
X96413820Y-96024047D01*
X96188993Y-96604828D01*
X95965380Y-97493611D01*
X95897247Y-98231026D01*
X94973569Y-98231026D01*
X94977995Y-98186549D01*
X95071752Y-97674112D01*
X95361057Y-96661082D01*
X95669391Y-95948079D01*
X95922526Y-95570122D01*
X96292996Y-95257052D01*
X97068879Y-94738109D01*
X97361713Y-94587971D01*
X97703934Y-94507423D01*
X98152585Y-94485867D01*
X98607203Y-94499324D01*
G37*
G36*
X99429731Y-102698288D02*
G01*
X100680078Y-102785159D01*
X100815687Y-102786216D01*
X101203717Y-102767518D01*
X101548783Y-102706977D01*
X101805760Y-102623089D01*
X102051851Y-102504119D01*
X102541781Y-102147003D01*
X102919900Y-101779447D01*
X103245622Y-101412450D01*
X103481383Y-101084436D01*
X103661238Y-100712980D01*
X103819239Y-100215657D01*
X104142091Y-98810797D01*
X104609333Y-96768782D01*
X105034779Y-95168658D01*
X105250526Y-94435858D01*
X105095595Y-94519364D01*
X104897718Y-94624902D01*
X104456981Y-94839225D01*
X104179460Y-94977711D01*
X104066254Y-95431636D01*
X103801922Y-96465333D01*
X103549680Y-97499579D01*
X103411195Y-98041982D01*
X102248698Y-98744714D01*
X102021933Y-98843220D01*
X101861474Y-98861355D01*
X101710112Y-98795777D01*
X101611104Y-98598865D01*
X101596592Y-98457988D01*
X101617507Y-98169776D01*
X101693566Y-97753663D01*
X102138445Y-95986678D01*
X102440696Y-94637542D01*
X102381678Y-94512223D01*
X102302210Y-94485867D01*
X102097866Y-94553510D01*
X101192079Y-95020375D01*
X100299113Y-95532203D01*
X100261195Y-95872922D01*
X100880121Y-95578228D01*
X101130577Y-95520113D01*
X101228460Y-95537730D01*
X101291078Y-95590707D01*
X101319621Y-95709157D01*
X101232185Y-96254116D01*
X100928893Y-97423742D01*
X100628085Y-98577515D01*
X100576265Y-98877842D01*
X100563445Y-99126237D01*
X100580343Y-99333352D01*
X100628290Y-99511604D01*
X100700559Y-99651869D01*
X100794397Y-99755069D01*
X100893662Y-99812034D01*
X101004507Y-99831854D01*
X101004731Y-99831854D01*
X101290255Y-99749253D01*
X101760357Y-99479046D01*
X102774751Y-98836008D01*
X103373276Y-98420070D01*
X103234790Y-99088318D01*
X102853474Y-100816435D01*
X102745531Y-101187937D01*
X102642379Y-101440377D01*
X102535688Y-101618867D01*
X102403194Y-101765727D01*
X102083536Y-101957173D01*
X101629544Y-102055522D01*
X101332260Y-102068508D01*
X100958800Y-102047972D01*
X100521215Y-101974562D01*
X99933665Y-101842095D01*
X99429731Y-102698288D01*
G37*
G36*
X104941132Y-98621753D02*
G01*
X104937729Y-98652240D01*
X104916402Y-98911914D01*
X104933600Y-99110202D01*
X104983640Y-99288748D01*
X105062648Y-99443153D01*
X105168966Y-99574560D01*
X105453735Y-99760286D01*
X105826448Y-99831662D01*
X105848433Y-99831854D01*
X106368277Y-99765375D01*
X106681028Y-99673627D01*
X106984833Y-99548114D01*
X107184380Y-99441676D01*
X107464712Y-99262784D01*
X107711008Y-99064864D01*
X107919876Y-98852920D01*
X108091957Y-98628288D01*
X108222152Y-98401102D01*
X108314649Y-98167522D01*
X108381292Y-97739182D01*
X108351531Y-97419618D01*
X108300632Y-97294961D01*
X108213546Y-97178558D01*
X107865595Y-96905993D01*
X107587198Y-96730214D01*
X107325009Y-96538274D01*
X107141102Y-96349077D01*
X107050527Y-96202070D01*
X106998586Y-96046685D01*
X106982697Y-95885562D01*
X107048118Y-95574801D01*
X107240944Y-95299460D01*
X107377250Y-95194160D01*
X107532610Y-95119931D01*
X107776242Y-95078278D01*
X107947586Y-95096510D01*
X108108307Y-95153796D01*
X108396201Y-95376804D01*
X108557697Y-95570122D01*
X108952752Y-95176166D01*
X109149558Y-94914513D01*
X108970001Y-94727736D01*
X108784392Y-94596852D01*
X108622195Y-94528920D01*
X108443853Y-94493050D01*
X108305455Y-94485867D01*
X107887066Y-94552001D01*
X107404403Y-94766267D01*
X106905894Y-95135917D01*
X106681171Y-95366212D01*
X106490466Y-95613055D01*
X106349555Y-95853221D01*
X106252139Y-96095573D01*
X106201242Y-96415324D01*
X106219200Y-96608116D01*
X106274568Y-96789299D01*
X106488579Y-97112427D01*
X106881580Y-97449021D01*
X107381716Y-97831338D01*
X107507739Y-97971837D01*
X107574130Y-98105423D01*
X107599837Y-98319503D01*
X107534930Y-98597635D01*
X107324670Y-98906203D01*
X106978478Y-99175582D01*
X106788803Y-99258574D01*
X106596445Y-99299946D01*
X106528771Y-99303191D01*
X106372882Y-99285801D01*
X106232698Y-99234419D01*
X106008728Y-99040586D01*
X105911631Y-98873995D01*
X105844466Y-98684238D01*
X105806300Y-98444880D01*
X105785785Y-98054621D01*
X105551961Y-98228963D01*
X105495624Y-98268944D01*
X105374821Y-98342219D01*
X105168094Y-98470628D01*
X105086593Y-98523542D01*
X104941132Y-98621753D01*
G37*
G36*
X109474890Y-98793212D02*
G01*
X109747568Y-99315812D01*
X110066751Y-99761512D01*
X110575700Y-99374838D01*
X110999331Y-98969616D01*
X110406920Y-98039234D01*
X109716203Y-98598569D01*
X109474890Y-98793212D01*
G37*
G36*
X110129949Y-97687524D02*
G01*
X110258850Y-97614596D01*
X110822927Y-97272617D01*
X111074619Y-96531279D01*
X111427428Y-95438231D01*
X112473215Y-92270096D01*
X112133046Y-92434410D01*
X111843707Y-92565160D01*
X111692309Y-92635544D01*
X111352140Y-92798759D01*
X111234700Y-93253735D01*
X110923494Y-94470480D01*
X110683682Y-95436384D01*
X110344272Y-96795061D01*
X110129949Y-97687524D01*
G37*
G36*
X87163712Y-60053321D02*
G01*
X87090928Y-60025233D01*
X86938752Y-60242029D01*
X86874340Y-60307793D01*
X86809195Y-60351315D01*
X86668113Y-60388570D01*
X86558967Y-60394528D01*
X85220516Y-60394528D01*
X86161339Y-59409741D01*
X86352043Y-59199316D01*
X86511651Y-58998091D01*
X86628025Y-58825896D01*
X86721369Y-58658454D01*
X86787554Y-58507437D01*
X86835317Y-58358543D01*
X86864309Y-58216920D01*
X86877323Y-58075602D01*
X86878192Y-58028060D01*
X86848060Y-57783501D01*
X86759784Y-57558538D01*
X86617109Y-57361651D01*
X86425973Y-57203181D01*
X86315064Y-57141720D01*
X86195436Y-57093537D01*
X86069343Y-57059832D01*
X85936675Y-57041003D01*
X85842114Y-57037166D01*
X85579466Y-57067872D01*
X85453764Y-57105874D01*
X85333981Y-57158409D01*
X85222050Y-57224594D01*
X85118441Y-57304295D01*
X85035868Y-57384480D01*
X84936440Y-57502414D01*
X84855620Y-57629473D01*
X84744945Y-57901158D01*
X84677320Y-58151158D01*
X84795045Y-58179002D01*
X84895626Y-57954672D01*
X84997014Y-57777178D01*
X85075653Y-57673255D01*
X85159233Y-57591386D01*
X85238510Y-57536224D01*
X85324426Y-57495813D01*
X85521955Y-57454745D01*
X85606908Y-57451646D01*
X85731879Y-57459338D01*
X85848220Y-57481917D01*
X85953891Y-57518056D01*
X86049869Y-57567247D01*
X86134790Y-57628171D01*
X86208934Y-57700516D01*
X86322340Y-57876590D01*
X86385478Y-58091929D01*
X86396545Y-58240551D01*
X86365648Y-58515337D01*
X86267641Y-58819637D01*
X86093531Y-59152166D01*
X85835202Y-59507422D01*
X85668457Y-59695261D01*
X84671702Y-60752833D01*
X84671702Y-60820000D01*
X86855722Y-60820000D01*
X87163712Y-60053321D01*
G37*
G36*
X88891929Y-57051415D02*
G01*
X89011953Y-57080360D01*
X89126544Y-57124375D01*
X89239226Y-57185351D01*
X89345314Y-57261378D01*
X89448852Y-57356421D01*
X89544308Y-57466643D01*
X89635038Y-57597471D01*
X89715934Y-57743418D01*
X89788929Y-57909995D01*
X89850233Y-58091173D01*
X89900323Y-58291026D01*
X89936947Y-58504391D01*
X89959664Y-58732873D01*
X89967376Y-58973279D01*
X89946471Y-59341561D01*
X89867558Y-59768360D01*
X89743771Y-60130948D01*
X89592945Y-60410891D01*
X89429797Y-60607264D01*
X89405308Y-60630396D01*
X89201478Y-60777244D01*
X89089419Y-60829285D01*
X88971047Y-60866681D01*
X88839999Y-60890315D01*
X88701709Y-60898157D01*
X88544112Y-60887248D01*
X88418051Y-60861676D01*
X88297821Y-60821500D01*
X88183531Y-60766785D01*
X88076403Y-60698047D01*
X87975996Y-60614637D01*
X87884229Y-60517627D01*
X87859430Y-60486827D01*
X87773769Y-60359221D01*
X87695582Y-60209285D01*
X87620304Y-60025195D01*
X87556206Y-59823071D01*
X87466129Y-59379194D01*
X87439704Y-58990132D01*
X87973866Y-58990132D01*
X87987578Y-59434533D01*
X88044662Y-59909024D01*
X88133866Y-60247264D01*
X88245361Y-60479851D01*
X88374497Y-60632143D01*
X88523459Y-60721402D01*
X88609507Y-60744782D01*
X88701709Y-60752588D01*
X88752374Y-60750303D01*
X88919023Y-60704712D01*
X88997051Y-60657578D01*
X89068685Y-60594524D01*
X89140015Y-60506922D01*
X89203571Y-60400218D01*
X89265544Y-60257977D01*
X89317679Y-60091907D01*
X89364392Y-59877457D01*
X89398632Y-59633295D01*
X89421994Y-59327098D01*
X89429797Y-58984515D01*
X89415072Y-58525259D01*
X89356087Y-58043727D01*
X89264809Y-57697498D01*
X89151927Y-57459119D01*
X89023179Y-57303956D01*
X88877657Y-57214042D01*
X88795219Y-57190770D01*
X88707327Y-57182979D01*
X88649985Y-57186002D01*
X88564763Y-57202851D01*
X88485126Y-57234434D01*
X88407304Y-57283584D01*
X88335761Y-57348955D01*
X88264269Y-57439658D01*
X88200499Y-57549868D01*
X88138332Y-57696298D01*
X88085989Y-57866936D01*
X88039234Y-58085999D01*
X88004938Y-58334925D01*
X87981658Y-58644526D01*
X87973866Y-58990132D01*
X87439704Y-58990132D01*
X87436287Y-58939818D01*
X87454911Y-58602253D01*
X87532162Y-58179153D01*
X87656060Y-57814632D01*
X87808421Y-57530010D01*
X87973866Y-57328304D01*
X88001269Y-57302447D01*
X88202481Y-57157481D01*
X88313954Y-57106112D01*
X88432750Y-57069310D01*
X88572783Y-57045092D01*
X88724180Y-57037166D01*
X88891929Y-57051415D01*
G37*
G36*
X92759804Y-60053321D02*
G01*
X92687020Y-60025233D01*
X92534844Y-60242029D01*
X92470432Y-60307793D01*
X92405287Y-60351315D01*
X92264205Y-60388570D01*
X92155059Y-60394528D01*
X90816608Y-60394528D01*
X91757432Y-59409741D01*
X91948135Y-59199316D01*
X92107744Y-58998091D01*
X92224117Y-58825896D01*
X92317461Y-58658454D01*
X92383646Y-58507437D01*
X92431409Y-58358543D01*
X92460401Y-58216920D01*
X92473415Y-58075602D01*
X92474284Y-58028060D01*
X92444152Y-57783501D01*
X92355876Y-57558538D01*
X92213201Y-57361651D01*
X92022065Y-57203181D01*
X91911156Y-57141720D01*
X91791528Y-57093537D01*
X91665435Y-57059832D01*
X91532767Y-57041003D01*
X91438206Y-57037166D01*
X91175558Y-57067872D01*
X91049856Y-57105874D01*
X90930073Y-57158409D01*
X90818143Y-57224594D01*
X90714534Y-57304295D01*
X90631961Y-57384480D01*
X90532532Y-57502414D01*
X90451712Y-57629473D01*
X90341037Y-57901158D01*
X90273412Y-58151158D01*
X90391137Y-58179002D01*
X90491719Y-57954672D01*
X90593106Y-57777178D01*
X90671745Y-57673255D01*
X90755325Y-57591386D01*
X90834603Y-57536224D01*
X90920518Y-57495813D01*
X91118047Y-57454745D01*
X91203000Y-57451646D01*
X91327971Y-57459338D01*
X91444312Y-57481917D01*
X91549983Y-57518056D01*
X91645961Y-57567247D01*
X91730883Y-57628171D01*
X91805026Y-57700516D01*
X91918432Y-57876590D01*
X91981570Y-58091929D01*
X91992637Y-58240551D01*
X91961740Y-58515337D01*
X91863733Y-58819637D01*
X91689623Y-59152166D01*
X91431294Y-59507422D01*
X91264550Y-59695261D01*
X90267794Y-60752833D01*
X90267794Y-60820000D01*
X92451814Y-60820000D01*
X92759804Y-60053321D01*
G37*
G36*
X95406664Y-57076978D02*
G01*
X95054412Y-57163984D01*
X94884629Y-57228945D01*
X94724218Y-57306827D01*
X94434440Y-57498657D01*
X94188612Y-57735145D01*
X94083297Y-57868779D01*
X93990147Y-58012212D01*
X93909764Y-58164727D01*
X93842487Y-58326057D01*
X93788823Y-58495654D01*
X93749232Y-58673105D01*
X93871932Y-58600558D01*
X94134494Y-58470875D01*
X94289888Y-58431183D01*
X94460223Y-58421046D01*
X94637600Y-58432700D01*
X94887100Y-58496374D01*
X94997250Y-58547688D01*
X95097867Y-58611541D01*
X95189390Y-58688288D01*
X95270488Y-58776984D01*
X95342367Y-58879786D01*
X95402544Y-58994248D01*
X95452001Y-59124234D01*
X95488136Y-59265696D01*
X95511034Y-59423465D01*
X95518771Y-59592435D01*
X95518718Y-59606590D01*
X95509857Y-59771385D01*
X95486269Y-59927723D01*
X95398626Y-60209545D01*
X95262609Y-60447631D01*
X95084462Y-60638656D01*
X94869293Y-60779761D01*
X94749083Y-60830612D01*
X94621007Y-60867691D01*
X94485275Y-60890441D01*
X94342742Y-60898157D01*
X94156191Y-60884698D01*
X93899137Y-60816144D01*
X93672610Y-60692842D01*
X93571841Y-60611372D01*
X93480321Y-60517138D01*
X93346962Y-60325014D01*
X93271770Y-60174283D01*
X93208255Y-60008676D01*
X93156359Y-59827461D01*
X93118460Y-59637237D01*
X93095417Y-59345750D01*
X93609037Y-59345750D01*
X93617100Y-59583552D01*
X93671462Y-59964535D01*
X93766224Y-60258458D01*
X93890598Y-60474081D01*
X94038130Y-60622141D01*
X94207989Y-60710850D01*
X94303198Y-60733846D01*
X94404291Y-60741598D01*
X94472081Y-60738016D01*
X94643025Y-60689941D01*
X94718859Y-60643989D01*
X94786450Y-60583930D01*
X94849595Y-60504116D01*
X94902855Y-60408673D01*
X94949522Y-60286828D01*
X94983857Y-60147088D01*
X95006897Y-59975114D01*
X95014654Y-59782944D01*
X95014370Y-59744140D01*
X94982146Y-59398546D01*
X94905120Y-59132537D01*
X94792667Y-58934985D01*
X94648765Y-58795682D01*
X94564079Y-58745688D01*
X94471211Y-58709299D01*
X94366376Y-58686239D01*
X94253105Y-58678478D01*
X94157528Y-58682607D01*
X93932027Y-58730520D01*
X93765841Y-58818674D01*
X93717434Y-58864639D01*
X93674335Y-58931500D01*
X93642754Y-59016127D01*
X93617159Y-59160841D01*
X93609037Y-59345750D01*
X93095417Y-59345750D01*
X93088311Y-59255868D01*
X93102721Y-58988479D01*
X93173716Y-58621148D01*
X93230782Y-58447437D01*
X93301968Y-58280526D01*
X93387270Y-58120414D01*
X93486308Y-57967897D01*
X93599727Y-57822330D01*
X93726625Y-57685245D01*
X93868417Y-57555647D01*
X94023517Y-57435526D01*
X94127422Y-57365680D01*
X94443693Y-57193826D01*
X94615144Y-57128078D01*
X94799682Y-57075835D01*
X95073262Y-57024128D01*
X95395429Y-56987341D01*
X95406664Y-57076978D01*
G37*
D10*
X98395027Y-135898419D02*
X98966455Y-135898419D01*
X98680741Y-136898419D02*
X98680741Y-135898419D01*
X99204551Y-135898419D02*
X99871217Y-136898419D01*
X99871217Y-135898419D02*
X99204551Y-136898419D01*
X101585503Y-136898419D02*
X101252170Y-136422228D01*
X101014075Y-136898419D02*
X101014075Y-135898419D01*
X101014075Y-135898419D02*
X101395027Y-135898419D01*
X101395027Y-135898419D02*
X101490265Y-135946038D01*
X101490265Y-135946038D02*
X101537884Y-135993657D01*
X101537884Y-135993657D02*
X101585503Y-136088895D01*
X101585503Y-136088895D02*
X101585503Y-136231752D01*
X101585503Y-136231752D02*
X101537884Y-136326990D01*
X101537884Y-136326990D02*
X101490265Y-136374609D01*
X101490265Y-136374609D02*
X101395027Y-136422228D01*
X101395027Y-136422228D02*
X101014075Y-136422228D01*
X101918837Y-135898419D02*
X102585503Y-136898419D01*
X102585503Y-135898419D02*
X101918837Y-136898419D01*
X103728361Y-136517466D02*
X104490266Y-136517466D01*
X106490266Y-136517466D02*
X107252171Y-136517466D01*
X106871218Y-136898419D02*
X106871218Y-136136514D01*
X100632228Y-127231999D02*
X100660800Y-127260571D01*
X100660800Y-127260571D02*
X100689371Y-127346285D01*
X100689371Y-127346285D02*
X100689371Y-127403428D01*
X100689371Y-127403428D02*
X100660800Y-127489142D01*
X100660800Y-127489142D02*
X100603657Y-127546285D01*
X100603657Y-127546285D02*
X100546514Y-127574856D01*
X100546514Y-127574856D02*
X100432228Y-127603428D01*
X100432228Y-127603428D02*
X100346514Y-127603428D01*
X100346514Y-127603428D02*
X100232228Y-127574856D01*
X100232228Y-127574856D02*
X100175085Y-127546285D01*
X100175085Y-127546285D02*
X100117942Y-127489142D01*
X100117942Y-127489142D02*
X100089371Y-127403428D01*
X100089371Y-127403428D02*
X100089371Y-127346285D01*
X100089371Y-127346285D02*
X100117942Y-127260571D01*
X100117942Y-127260571D02*
X100146514Y-127231999D01*
X100289371Y-126717714D02*
X100689371Y-126717714D01*
X100060800Y-126860571D02*
X100489371Y-127003428D01*
X100489371Y-127003428D02*
X100489371Y-126631999D01*
X102293285Y-127095871D02*
X102093285Y-126810157D01*
X101950428Y-127095871D02*
X101950428Y-126495871D01*
X101950428Y-126495871D02*
X102178999Y-126495871D01*
X102178999Y-126495871D02*
X102236142Y-126524442D01*
X102236142Y-126524442D02*
X102264713Y-126553014D01*
X102264713Y-126553014D02*
X102293285Y-126610157D01*
X102293285Y-126610157D02*
X102293285Y-126695871D01*
X102293285Y-126695871D02*
X102264713Y-126753014D01*
X102264713Y-126753014D02*
X102236142Y-126781585D01*
X102236142Y-126781585D02*
X102178999Y-126810157D01*
X102178999Y-126810157D02*
X101950428Y-126810157D01*
X102864713Y-127095871D02*
X102521856Y-127095871D01*
X102693285Y-127095871D02*
X102693285Y-126495871D01*
X102693285Y-126495871D02*
X102636142Y-126581585D01*
X102636142Y-126581585D02*
X102578999Y-126638728D01*
X102578999Y-126638728D02*
X102521856Y-126667300D01*
X103436142Y-127095871D02*
X103093285Y-127095871D01*
X103264714Y-127095871D02*
X103264714Y-126495871D01*
X103264714Y-126495871D02*
X103207571Y-126581585D01*
X103207571Y-126581585D02*
X103150428Y-126638728D01*
X103150428Y-126638728D02*
X103093285Y-126667300D01*
X102293285Y-123133871D02*
X102093285Y-122848157D01*
X101950428Y-123133871D02*
X101950428Y-122533871D01*
X101950428Y-122533871D02*
X102178999Y-122533871D01*
X102178999Y-122533871D02*
X102236142Y-122562442D01*
X102236142Y-122562442D02*
X102264713Y-122591014D01*
X102264713Y-122591014D02*
X102293285Y-122648157D01*
X102293285Y-122648157D02*
X102293285Y-122733871D01*
X102293285Y-122733871D02*
X102264713Y-122791014D01*
X102264713Y-122791014D02*
X102236142Y-122819585D01*
X102236142Y-122819585D02*
X102178999Y-122848157D01*
X102178999Y-122848157D02*
X101950428Y-122848157D01*
X102864713Y-123133871D02*
X102521856Y-123133871D01*
X102693285Y-123133871D02*
X102693285Y-122533871D01*
X102693285Y-122533871D02*
X102636142Y-122619585D01*
X102636142Y-122619585D02*
X102578999Y-122676728D01*
X102578999Y-122676728D02*
X102521856Y-122705300D01*
X103093285Y-122591014D02*
X103121857Y-122562442D01*
X103121857Y-122562442D02*
X103179000Y-122533871D01*
X103179000Y-122533871D02*
X103321857Y-122533871D01*
X103321857Y-122533871D02*
X103379000Y-122562442D01*
X103379000Y-122562442D02*
X103407571Y-122591014D01*
X103407571Y-122591014D02*
X103436142Y-122648157D01*
X103436142Y-122648157D02*
X103436142Y-122705300D01*
X103436142Y-122705300D02*
X103407571Y-122791014D01*
X103407571Y-122791014D02*
X103064714Y-123133871D01*
X103064714Y-123133871D02*
X103436142Y-123133871D01*
X94426000Y-119361371D02*
X94226000Y-119075657D01*
X94083143Y-119361371D02*
X94083143Y-118761371D01*
X94083143Y-118761371D02*
X94311714Y-118761371D01*
X94311714Y-118761371D02*
X94368857Y-118789942D01*
X94368857Y-118789942D02*
X94397428Y-118818514D01*
X94397428Y-118818514D02*
X94426000Y-118875657D01*
X94426000Y-118875657D02*
X94426000Y-118961371D01*
X94426000Y-118961371D02*
X94397428Y-119018514D01*
X94397428Y-119018514D02*
X94368857Y-119047085D01*
X94368857Y-119047085D02*
X94311714Y-119075657D01*
X94311714Y-119075657D02*
X94083143Y-119075657D01*
X94654571Y-118818514D02*
X94683143Y-118789942D01*
X94683143Y-118789942D02*
X94740286Y-118761371D01*
X94740286Y-118761371D02*
X94883143Y-118761371D01*
X94883143Y-118761371D02*
X94940286Y-118789942D01*
X94940286Y-118789942D02*
X94968857Y-118818514D01*
X94968857Y-118818514D02*
X94997428Y-118875657D01*
X94997428Y-118875657D02*
X94997428Y-118932800D01*
X94997428Y-118932800D02*
X94968857Y-119018514D01*
X94968857Y-119018514D02*
X94626000Y-119361371D01*
X94626000Y-119361371D02*
X94997428Y-119361371D01*
X70683371Y-134264000D02*
X71111942Y-134264000D01*
X71111942Y-134264000D02*
X71197657Y-134292571D01*
X71197657Y-134292571D02*
X71254800Y-134349714D01*
X71254800Y-134349714D02*
X71283371Y-134435428D01*
X71283371Y-134435428D02*
X71283371Y-134492571D01*
X71283371Y-133664000D02*
X71283371Y-134006857D01*
X71283371Y-133835428D02*
X70683371Y-133835428D01*
X70683371Y-133835428D02*
X70769085Y-133892571D01*
X70769085Y-133892571D02*
X70826228Y-133949714D01*
X70826228Y-133949714D02*
X70854800Y-134006857D01*
X108478371Y-134429000D02*
X108906942Y-134429000D01*
X108906942Y-134429000D02*
X108992657Y-134457571D01*
X108992657Y-134457571D02*
X109049800Y-134514714D01*
X109049800Y-134514714D02*
X109078371Y-134600428D01*
X109078371Y-134600428D02*
X109078371Y-134657571D01*
X108535514Y-134171857D02*
X108506942Y-134143285D01*
X108506942Y-134143285D02*
X108478371Y-134086143D01*
X108478371Y-134086143D02*
X108478371Y-133943285D01*
X108478371Y-133943285D02*
X108506942Y-133886143D01*
X108506942Y-133886143D02*
X108535514Y-133857571D01*
X108535514Y-133857571D02*
X108592657Y-133829000D01*
X108592657Y-133829000D02*
X108649800Y-133829000D01*
X108649800Y-133829000D02*
X108735514Y-133857571D01*
X108735514Y-133857571D02*
X109078371Y-134200428D01*
X109078371Y-134200428D02*
X109078371Y-133829000D01*
X106374857Y-118219514D02*
X106317714Y-118190942D01*
X106317714Y-118190942D02*
X106260571Y-118133800D01*
X106260571Y-118133800D02*
X106174857Y-118048085D01*
X106174857Y-118048085D02*
X106117714Y-118019514D01*
X106117714Y-118019514D02*
X106060571Y-118019514D01*
X106089142Y-118162371D02*
X106032000Y-118133800D01*
X106032000Y-118133800D02*
X105974857Y-118076657D01*
X105974857Y-118076657D02*
X105946285Y-117962371D01*
X105946285Y-117962371D02*
X105946285Y-117762371D01*
X105946285Y-117762371D02*
X105974857Y-117648085D01*
X105974857Y-117648085D02*
X106032000Y-117590942D01*
X106032000Y-117590942D02*
X106089142Y-117562371D01*
X106089142Y-117562371D02*
X106203428Y-117562371D01*
X106203428Y-117562371D02*
X106260571Y-117590942D01*
X106260571Y-117590942D02*
X106317714Y-117648085D01*
X106317714Y-117648085D02*
X106346285Y-117762371D01*
X106346285Y-117762371D02*
X106346285Y-117962371D01*
X106346285Y-117962371D02*
X106317714Y-118076657D01*
X106317714Y-118076657D02*
X106260571Y-118133800D01*
X106260571Y-118133800D02*
X106203428Y-118162371D01*
X106203428Y-118162371D02*
X106089142Y-118162371D01*
X106917713Y-118162371D02*
X106574856Y-118162371D01*
X106746285Y-118162371D02*
X106746285Y-117562371D01*
X106746285Y-117562371D02*
X106689142Y-117648085D01*
X106689142Y-117648085D02*
X106631999Y-117705228D01*
X106631999Y-117705228D02*
X106574856Y-117733800D01*
X89273000Y-116743228D02*
X89244428Y-116771800D01*
X89244428Y-116771800D02*
X89158714Y-116800371D01*
X89158714Y-116800371D02*
X89101571Y-116800371D01*
X89101571Y-116800371D02*
X89015857Y-116771800D01*
X89015857Y-116771800D02*
X88958714Y-116714657D01*
X88958714Y-116714657D02*
X88930143Y-116657514D01*
X88930143Y-116657514D02*
X88901571Y-116543228D01*
X88901571Y-116543228D02*
X88901571Y-116457514D01*
X88901571Y-116457514D02*
X88930143Y-116343228D01*
X88930143Y-116343228D02*
X88958714Y-116286085D01*
X88958714Y-116286085D02*
X89015857Y-116228942D01*
X89015857Y-116228942D02*
X89101571Y-116200371D01*
X89101571Y-116200371D02*
X89158714Y-116200371D01*
X89158714Y-116200371D02*
X89244428Y-116228942D01*
X89244428Y-116228942D02*
X89273000Y-116257514D01*
X89815857Y-116200371D02*
X89530143Y-116200371D01*
X89530143Y-116200371D02*
X89501571Y-116486085D01*
X89501571Y-116486085D02*
X89530143Y-116457514D01*
X89530143Y-116457514D02*
X89587286Y-116428942D01*
X89587286Y-116428942D02*
X89730143Y-116428942D01*
X89730143Y-116428942D02*
X89787286Y-116457514D01*
X89787286Y-116457514D02*
X89815857Y-116486085D01*
X89815857Y-116486085D02*
X89844428Y-116543228D01*
X89844428Y-116543228D02*
X89844428Y-116686085D01*
X89844428Y-116686085D02*
X89815857Y-116743228D01*
X89815857Y-116743228D02*
X89787286Y-116771800D01*
X89787286Y-116771800D02*
X89730143Y-116800371D01*
X89730143Y-116800371D02*
X89587286Y-116800371D01*
X89587286Y-116800371D02*
X89530143Y-116771800D01*
X89530143Y-116771800D02*
X89501571Y-116743228D01*
X74406371Y-108195856D02*
X73806371Y-108195856D01*
X73806371Y-108195856D02*
X73806371Y-108052999D01*
X73806371Y-108052999D02*
X73834942Y-107967285D01*
X73834942Y-107967285D02*
X73892085Y-107910142D01*
X73892085Y-107910142D02*
X73949228Y-107881571D01*
X73949228Y-107881571D02*
X74063514Y-107852999D01*
X74063514Y-107852999D02*
X74149228Y-107852999D01*
X74149228Y-107852999D02*
X74263514Y-107881571D01*
X74263514Y-107881571D02*
X74320657Y-107910142D01*
X74320657Y-107910142D02*
X74377800Y-107967285D01*
X74377800Y-107967285D02*
X74406371Y-108052999D01*
X74406371Y-108052999D02*
X74406371Y-108195856D01*
X74063514Y-107510142D02*
X74034942Y-107567285D01*
X74034942Y-107567285D02*
X74006371Y-107595856D01*
X74006371Y-107595856D02*
X73949228Y-107624428D01*
X73949228Y-107624428D02*
X73920657Y-107624428D01*
X73920657Y-107624428D02*
X73863514Y-107595856D01*
X73863514Y-107595856D02*
X73834942Y-107567285D01*
X73834942Y-107567285D02*
X73806371Y-107510142D01*
X73806371Y-107510142D02*
X73806371Y-107395856D01*
X73806371Y-107395856D02*
X73834942Y-107338714D01*
X73834942Y-107338714D02*
X73863514Y-107310142D01*
X73863514Y-107310142D02*
X73920657Y-107281571D01*
X73920657Y-107281571D02*
X73949228Y-107281571D01*
X73949228Y-107281571D02*
X74006371Y-107310142D01*
X74006371Y-107310142D02*
X74034942Y-107338714D01*
X74034942Y-107338714D02*
X74063514Y-107395856D01*
X74063514Y-107395856D02*
X74063514Y-107510142D01*
X74063514Y-107510142D02*
X74092085Y-107567285D01*
X74092085Y-107567285D02*
X74120657Y-107595856D01*
X74120657Y-107595856D02*
X74177800Y-107624428D01*
X74177800Y-107624428D02*
X74292085Y-107624428D01*
X74292085Y-107624428D02*
X74349228Y-107595856D01*
X74349228Y-107595856D02*
X74377800Y-107567285D01*
X74377800Y-107567285D02*
X74406371Y-107510142D01*
X74406371Y-107510142D02*
X74406371Y-107395856D01*
X74406371Y-107395856D02*
X74377800Y-107338714D01*
X74377800Y-107338714D02*
X74349228Y-107310142D01*
X74349228Y-107310142D02*
X74292085Y-107281571D01*
X74292085Y-107281571D02*
X74177800Y-107281571D01*
X74177800Y-107281571D02*
X74120657Y-107310142D01*
X74120657Y-107310142D02*
X74092085Y-107338714D01*
X74092085Y-107338714D02*
X74063514Y-107395856D01*
X109087371Y-76989571D02*
X108487371Y-76989571D01*
X108487371Y-76989571D02*
X108487371Y-76846714D01*
X108487371Y-76846714D02*
X108515942Y-76761000D01*
X108515942Y-76761000D02*
X108573085Y-76703857D01*
X108573085Y-76703857D02*
X108630228Y-76675286D01*
X108630228Y-76675286D02*
X108744514Y-76646714D01*
X108744514Y-76646714D02*
X108830228Y-76646714D01*
X108830228Y-76646714D02*
X108944514Y-76675286D01*
X108944514Y-76675286D02*
X109001657Y-76703857D01*
X109001657Y-76703857D02*
X109058800Y-76761000D01*
X109058800Y-76761000D02*
X109087371Y-76846714D01*
X109087371Y-76846714D02*
X109087371Y-76989571D01*
X109087371Y-76075286D02*
X109087371Y-76418143D01*
X109087371Y-76246714D02*
X108487371Y-76246714D01*
X108487371Y-76246714D02*
X108573085Y-76303857D01*
X108573085Y-76303857D02*
X108630228Y-76361000D01*
X108630228Y-76361000D02*
X108658800Y-76418143D01*
X108744514Y-75732428D02*
X108715942Y-75789571D01*
X108715942Y-75789571D02*
X108687371Y-75818142D01*
X108687371Y-75818142D02*
X108630228Y-75846714D01*
X108630228Y-75846714D02*
X108601657Y-75846714D01*
X108601657Y-75846714D02*
X108544514Y-75818142D01*
X108544514Y-75818142D02*
X108515942Y-75789571D01*
X108515942Y-75789571D02*
X108487371Y-75732428D01*
X108487371Y-75732428D02*
X108487371Y-75618142D01*
X108487371Y-75618142D02*
X108515942Y-75561000D01*
X108515942Y-75561000D02*
X108544514Y-75532428D01*
X108544514Y-75532428D02*
X108601657Y-75503857D01*
X108601657Y-75503857D02*
X108630228Y-75503857D01*
X108630228Y-75503857D02*
X108687371Y-75532428D01*
X108687371Y-75532428D02*
X108715942Y-75561000D01*
X108715942Y-75561000D02*
X108744514Y-75618142D01*
X108744514Y-75618142D02*
X108744514Y-75732428D01*
X108744514Y-75732428D02*
X108773085Y-75789571D01*
X108773085Y-75789571D02*
X108801657Y-75818142D01*
X108801657Y-75818142D02*
X108858800Y-75846714D01*
X108858800Y-75846714D02*
X108973085Y-75846714D01*
X108973085Y-75846714D02*
X109030228Y-75818142D01*
X109030228Y-75818142D02*
X109058800Y-75789571D01*
X109058800Y-75789571D02*
X109087371Y-75732428D01*
X109087371Y-75732428D02*
X109087371Y-75618142D01*
X109087371Y-75618142D02*
X109058800Y-75561000D01*
X109058800Y-75561000D02*
X109030228Y-75532428D01*
X109030228Y-75532428D02*
X108973085Y-75503857D01*
X108973085Y-75503857D02*
X108858800Y-75503857D01*
X108858800Y-75503857D02*
X108801657Y-75532428D01*
X108801657Y-75532428D02*
X108773085Y-75561000D01*
X108773085Y-75561000D02*
X108744514Y-75618142D01*
X82609371Y-122736999D02*
X82323657Y-122936999D01*
X82609371Y-123079856D02*
X82009371Y-123079856D01*
X82009371Y-123079856D02*
X82009371Y-122851285D01*
X82009371Y-122851285D02*
X82037942Y-122794142D01*
X82037942Y-122794142D02*
X82066514Y-122765571D01*
X82066514Y-122765571D02*
X82123657Y-122736999D01*
X82123657Y-122736999D02*
X82209371Y-122736999D01*
X82209371Y-122736999D02*
X82266514Y-122765571D01*
X82266514Y-122765571D02*
X82295085Y-122794142D01*
X82295085Y-122794142D02*
X82323657Y-122851285D01*
X82323657Y-122851285D02*
X82323657Y-123079856D01*
X82209371Y-122222714D02*
X82609371Y-122222714D01*
X81980800Y-122365571D02*
X82409371Y-122508428D01*
X82409371Y-122508428D02*
X82409371Y-122136999D01*
X108732371Y-106400571D02*
X108132371Y-106400571D01*
X108132371Y-106400571D02*
X108132371Y-106257714D01*
X108132371Y-106257714D02*
X108160942Y-106172000D01*
X108160942Y-106172000D02*
X108218085Y-106114857D01*
X108218085Y-106114857D02*
X108275228Y-106086286D01*
X108275228Y-106086286D02*
X108389514Y-106057714D01*
X108389514Y-106057714D02*
X108475228Y-106057714D01*
X108475228Y-106057714D02*
X108589514Y-106086286D01*
X108589514Y-106086286D02*
X108646657Y-106114857D01*
X108646657Y-106114857D02*
X108703800Y-106172000D01*
X108703800Y-106172000D02*
X108732371Y-106257714D01*
X108732371Y-106257714D02*
X108732371Y-106400571D01*
X108732371Y-105486286D02*
X108732371Y-105829143D01*
X108732371Y-105657714D02*
X108132371Y-105657714D01*
X108132371Y-105657714D02*
X108218085Y-105714857D01*
X108218085Y-105714857D02*
X108275228Y-105772000D01*
X108275228Y-105772000D02*
X108303800Y-105829143D01*
X108132371Y-105114857D02*
X108132371Y-105057714D01*
X108132371Y-105057714D02*
X108160942Y-105000571D01*
X108160942Y-105000571D02*
X108189514Y-104972000D01*
X108189514Y-104972000D02*
X108246657Y-104943428D01*
X108246657Y-104943428D02*
X108360942Y-104914857D01*
X108360942Y-104914857D02*
X108503800Y-104914857D01*
X108503800Y-104914857D02*
X108618085Y-104943428D01*
X108618085Y-104943428D02*
X108675228Y-104972000D01*
X108675228Y-104972000D02*
X108703800Y-105000571D01*
X108703800Y-105000571D02*
X108732371Y-105057714D01*
X108732371Y-105057714D02*
X108732371Y-105114857D01*
X108732371Y-105114857D02*
X108703800Y-105172000D01*
X108703800Y-105172000D02*
X108675228Y-105200571D01*
X108675228Y-105200571D02*
X108618085Y-105229142D01*
X108618085Y-105229142D02*
X108503800Y-105257714D01*
X108503800Y-105257714D02*
X108360942Y-105257714D01*
X108360942Y-105257714D02*
X108246657Y-105229142D01*
X108246657Y-105229142D02*
X108189514Y-105200571D01*
X108189514Y-105200571D02*
X108160942Y-105172000D01*
X108160942Y-105172000D02*
X108132371Y-105114857D01*
X94443000Y-120967228D02*
X94414428Y-120995800D01*
X94414428Y-120995800D02*
X94328714Y-121024371D01*
X94328714Y-121024371D02*
X94271571Y-121024371D01*
X94271571Y-121024371D02*
X94185857Y-120995800D01*
X94185857Y-120995800D02*
X94128714Y-120938657D01*
X94128714Y-120938657D02*
X94100143Y-120881514D01*
X94100143Y-120881514D02*
X94071571Y-120767228D01*
X94071571Y-120767228D02*
X94071571Y-120681514D01*
X94071571Y-120681514D02*
X94100143Y-120567228D01*
X94100143Y-120567228D02*
X94128714Y-120510085D01*
X94128714Y-120510085D02*
X94185857Y-120452942D01*
X94185857Y-120452942D02*
X94271571Y-120424371D01*
X94271571Y-120424371D02*
X94328714Y-120424371D01*
X94328714Y-120424371D02*
X94414428Y-120452942D01*
X94414428Y-120452942D02*
X94443000Y-120481514D01*
X95014428Y-121024371D02*
X94671571Y-121024371D01*
X94843000Y-121024371D02*
X94843000Y-120424371D01*
X94843000Y-120424371D02*
X94785857Y-120510085D01*
X94785857Y-120510085D02*
X94728714Y-120567228D01*
X94728714Y-120567228D02*
X94671571Y-120595800D01*
X109669371Y-89066571D02*
X109069371Y-89066571D01*
X109069371Y-89066571D02*
X109069371Y-88923714D01*
X109069371Y-88923714D02*
X109097942Y-88838000D01*
X109097942Y-88838000D02*
X109155085Y-88780857D01*
X109155085Y-88780857D02*
X109212228Y-88752286D01*
X109212228Y-88752286D02*
X109326514Y-88723714D01*
X109326514Y-88723714D02*
X109412228Y-88723714D01*
X109412228Y-88723714D02*
X109526514Y-88752286D01*
X109526514Y-88752286D02*
X109583657Y-88780857D01*
X109583657Y-88780857D02*
X109640800Y-88838000D01*
X109640800Y-88838000D02*
X109669371Y-88923714D01*
X109669371Y-88923714D02*
X109669371Y-89066571D01*
X109669371Y-88152286D02*
X109669371Y-88495143D01*
X109669371Y-88323714D02*
X109069371Y-88323714D01*
X109069371Y-88323714D02*
X109155085Y-88380857D01*
X109155085Y-88380857D02*
X109212228Y-88438000D01*
X109212228Y-88438000D02*
X109240800Y-88495143D01*
X109069371Y-87952285D02*
X109069371Y-87552285D01*
X109069371Y-87552285D02*
X109669371Y-87809428D01*
X85943800Y-135800000D02*
X85972371Y-135714286D01*
X85972371Y-135714286D02*
X85972371Y-135571428D01*
X85972371Y-135571428D02*
X85943800Y-135514286D01*
X85943800Y-135514286D02*
X85915228Y-135485714D01*
X85915228Y-135485714D02*
X85858085Y-135457143D01*
X85858085Y-135457143D02*
X85800942Y-135457143D01*
X85800942Y-135457143D02*
X85743800Y-135485714D01*
X85743800Y-135485714D02*
X85715228Y-135514286D01*
X85715228Y-135514286D02*
X85686657Y-135571428D01*
X85686657Y-135571428D02*
X85658085Y-135685714D01*
X85658085Y-135685714D02*
X85629514Y-135742857D01*
X85629514Y-135742857D02*
X85600942Y-135771428D01*
X85600942Y-135771428D02*
X85543800Y-135800000D01*
X85543800Y-135800000D02*
X85486657Y-135800000D01*
X85486657Y-135800000D02*
X85429514Y-135771428D01*
X85429514Y-135771428D02*
X85400942Y-135742857D01*
X85400942Y-135742857D02*
X85372371Y-135685714D01*
X85372371Y-135685714D02*
X85372371Y-135542857D01*
X85372371Y-135542857D02*
X85400942Y-135457143D01*
X85372371Y-135257142D02*
X85972371Y-135114285D01*
X85972371Y-135114285D02*
X85543800Y-134999999D01*
X85543800Y-134999999D02*
X85972371Y-134885714D01*
X85972371Y-134885714D02*
X85372371Y-134742857D01*
X85972371Y-134200000D02*
X85972371Y-134542857D01*
X85972371Y-134371428D02*
X85372371Y-134371428D01*
X85372371Y-134371428D02*
X85458085Y-134428571D01*
X85458085Y-134428571D02*
X85515228Y-134485714D01*
X85515228Y-134485714D02*
X85543800Y-134542857D01*
X89271428Y-35572371D02*
X89271428Y-34972371D01*
X89271428Y-34972371D02*
X89414285Y-34972371D01*
X89414285Y-34972371D02*
X89499999Y-35000942D01*
X89499999Y-35000942D02*
X89557142Y-35058085D01*
X89557142Y-35058085D02*
X89585713Y-35115228D01*
X89585713Y-35115228D02*
X89614285Y-35229514D01*
X89614285Y-35229514D02*
X89614285Y-35315228D01*
X89614285Y-35315228D02*
X89585713Y-35429514D01*
X89585713Y-35429514D02*
X89557142Y-35486657D01*
X89557142Y-35486657D02*
X89499999Y-35543800D01*
X89499999Y-35543800D02*
X89414285Y-35572371D01*
X89414285Y-35572371D02*
X89271428Y-35572371D01*
X89842856Y-35029514D02*
X89871428Y-35000942D01*
X89871428Y-35000942D02*
X89928571Y-34972371D01*
X89928571Y-34972371D02*
X90071428Y-34972371D01*
X90071428Y-34972371D02*
X90128571Y-35000942D01*
X90128571Y-35000942D02*
X90157142Y-35029514D01*
X90157142Y-35029514D02*
X90185713Y-35086657D01*
X90185713Y-35086657D02*
X90185713Y-35143800D01*
X90185713Y-35143800D02*
X90157142Y-35229514D01*
X90157142Y-35229514D02*
X89814285Y-35572371D01*
X89814285Y-35572371D02*
X90185713Y-35572371D01*
X90728571Y-34972371D02*
X90442857Y-34972371D01*
X90442857Y-34972371D02*
X90414285Y-35258085D01*
X90414285Y-35258085D02*
X90442857Y-35229514D01*
X90442857Y-35229514D02*
X90500000Y-35200942D01*
X90500000Y-35200942D02*
X90642857Y-35200942D01*
X90642857Y-35200942D02*
X90700000Y-35229514D01*
X90700000Y-35229514D02*
X90728571Y-35258085D01*
X90728571Y-35258085D02*
X90757142Y-35315228D01*
X90757142Y-35315228D02*
X90757142Y-35458085D01*
X90757142Y-35458085D02*
X90728571Y-35515228D01*
X90728571Y-35515228D02*
X90700000Y-35543800D01*
X90700000Y-35543800D02*
X90642857Y-35572371D01*
X90642857Y-35572371D02*
X90500000Y-35572371D01*
X90500000Y-35572371D02*
X90442857Y-35543800D01*
X90442857Y-35543800D02*
X90414285Y-35515228D01*
X90372371Y-30328571D02*
X89772371Y-30328571D01*
X89772371Y-30328571D02*
X89772371Y-30185714D01*
X89772371Y-30185714D02*
X89800942Y-30100000D01*
X89800942Y-30100000D02*
X89858085Y-30042857D01*
X89858085Y-30042857D02*
X89915228Y-30014286D01*
X89915228Y-30014286D02*
X90029514Y-29985714D01*
X90029514Y-29985714D02*
X90115228Y-29985714D01*
X90115228Y-29985714D02*
X90229514Y-30014286D01*
X90229514Y-30014286D02*
X90286657Y-30042857D01*
X90286657Y-30042857D02*
X90343800Y-30100000D01*
X90343800Y-30100000D02*
X90372371Y-30185714D01*
X90372371Y-30185714D02*
X90372371Y-30328571D01*
X89772371Y-29785714D02*
X89772371Y-29414286D01*
X89772371Y-29414286D02*
X90000942Y-29614286D01*
X90000942Y-29614286D02*
X90000942Y-29528571D01*
X90000942Y-29528571D02*
X90029514Y-29471429D01*
X90029514Y-29471429D02*
X90058085Y-29442857D01*
X90058085Y-29442857D02*
X90115228Y-29414286D01*
X90115228Y-29414286D02*
X90258085Y-29414286D01*
X90258085Y-29414286D02*
X90315228Y-29442857D01*
X90315228Y-29442857D02*
X90343800Y-29471429D01*
X90343800Y-29471429D02*
X90372371Y-29528571D01*
X90372371Y-29528571D02*
X90372371Y-29700000D01*
X90372371Y-29700000D02*
X90343800Y-29757143D01*
X90343800Y-29757143D02*
X90315228Y-29785714D01*
X89772371Y-29042857D02*
X89772371Y-28985714D01*
X89772371Y-28985714D02*
X89800942Y-28928571D01*
X89800942Y-28928571D02*
X89829514Y-28900000D01*
X89829514Y-28900000D02*
X89886657Y-28871428D01*
X89886657Y-28871428D02*
X90000942Y-28842857D01*
X90000942Y-28842857D02*
X90143800Y-28842857D01*
X90143800Y-28842857D02*
X90258085Y-28871428D01*
X90258085Y-28871428D02*
X90315228Y-28900000D01*
X90315228Y-28900000D02*
X90343800Y-28928571D01*
X90343800Y-28928571D02*
X90372371Y-28985714D01*
X90372371Y-28985714D02*
X90372371Y-29042857D01*
X90372371Y-29042857D02*
X90343800Y-29100000D01*
X90343800Y-29100000D02*
X90315228Y-29128571D01*
X90315228Y-29128571D02*
X90258085Y-29157142D01*
X90258085Y-29157142D02*
X90143800Y-29185714D01*
X90143800Y-29185714D02*
X90000942Y-29185714D01*
X90000942Y-29185714D02*
X89886657Y-29157142D01*
X89886657Y-29157142D02*
X89829514Y-29128571D01*
X89829514Y-29128571D02*
X89800942Y-29100000D01*
X89800942Y-29100000D02*
X89772371Y-29042857D01*
X91069371Y-52493071D02*
X90469371Y-52493071D01*
X90469371Y-52493071D02*
X90469371Y-52350214D01*
X90469371Y-52350214D02*
X90497942Y-52264500D01*
X90497942Y-52264500D02*
X90555085Y-52207357D01*
X90555085Y-52207357D02*
X90612228Y-52178786D01*
X90612228Y-52178786D02*
X90726514Y-52150214D01*
X90726514Y-52150214D02*
X90812228Y-52150214D01*
X90812228Y-52150214D02*
X90926514Y-52178786D01*
X90926514Y-52178786D02*
X90983657Y-52207357D01*
X90983657Y-52207357D02*
X91040800Y-52264500D01*
X91040800Y-52264500D02*
X91069371Y-52350214D01*
X91069371Y-52350214D02*
X91069371Y-52493071D01*
X90526514Y-51921643D02*
X90497942Y-51893071D01*
X90497942Y-51893071D02*
X90469371Y-51835929D01*
X90469371Y-51835929D02*
X90469371Y-51693071D01*
X90469371Y-51693071D02*
X90497942Y-51635929D01*
X90497942Y-51635929D02*
X90526514Y-51607357D01*
X90526514Y-51607357D02*
X90583657Y-51578786D01*
X90583657Y-51578786D02*
X90640800Y-51578786D01*
X90640800Y-51578786D02*
X90726514Y-51607357D01*
X90726514Y-51607357D02*
X91069371Y-51950214D01*
X91069371Y-51950214D02*
X91069371Y-51578786D01*
X90669371Y-51064500D02*
X91069371Y-51064500D01*
X90440800Y-51207357D02*
X90869371Y-51350214D01*
X90869371Y-51350214D02*
X90869371Y-50978785D01*
X81722918Y-34933899D02*
X81908328Y-34363265D01*
X81908328Y-34363265D02*
X82044194Y-34407410D01*
X82044194Y-34407410D02*
X82116884Y-34461071D01*
X82116884Y-34461071D02*
X82153572Y-34533075D01*
X82153572Y-34533075D02*
X82163086Y-34596250D01*
X82163086Y-34596250D02*
X82154943Y-34713771D01*
X82154943Y-34713771D02*
X82128456Y-34795290D01*
X82128456Y-34795290D02*
X82065967Y-34895153D01*
X82065967Y-34895153D02*
X82021136Y-34940670D01*
X82021136Y-34940670D02*
X81949131Y-34977358D01*
X81949131Y-34977358D02*
X81858783Y-34978044D01*
X81858783Y-34978044D02*
X81722918Y-34933899D01*
X82434131Y-34594192D02*
X82470133Y-34575848D01*
X82470133Y-34575848D02*
X82533308Y-34566333D01*
X82533308Y-34566333D02*
X82669173Y-34610479D01*
X82669173Y-34610479D02*
X82714691Y-34655310D01*
X82714691Y-34655310D02*
X82733035Y-34691312D01*
X82733035Y-34691312D02*
X82742549Y-34754487D01*
X82742549Y-34754487D02*
X82724891Y-34808833D01*
X82724891Y-34808833D02*
X82671231Y-34881523D01*
X82671231Y-34881523D02*
X82239206Y-35101651D01*
X82239206Y-35101651D02*
X82592455Y-35216429D01*
X83266981Y-34804718D02*
X83158289Y-34769402D01*
X83158289Y-34769402D02*
X83095114Y-34778917D01*
X83095114Y-34778917D02*
X83059111Y-34797261D01*
X83059111Y-34797261D02*
X82978278Y-34861122D01*
X82978278Y-34861122D02*
X82915789Y-34960985D01*
X82915789Y-34960985D02*
X82845156Y-35178369D01*
X82845156Y-35178369D02*
X82854671Y-35241544D01*
X82854671Y-35241544D02*
X82873015Y-35277547D01*
X82873015Y-35277547D02*
X82918532Y-35322378D01*
X82918532Y-35322378D02*
X83027225Y-35357694D01*
X83027225Y-35357694D02*
X83090400Y-35348179D01*
X83090400Y-35348179D02*
X83126402Y-35329835D01*
X83126402Y-35329835D02*
X83171233Y-35284318D01*
X83171233Y-35284318D02*
X83215378Y-35148453D01*
X83215378Y-35148453D02*
X83205863Y-35085278D01*
X83205863Y-35085278D02*
X83187519Y-35049275D01*
X83187519Y-35049275D02*
X83142002Y-35004444D01*
X83142002Y-35004444D02*
X83033310Y-34969128D01*
X83033310Y-34969128D02*
X82970135Y-34978643D01*
X82970135Y-34978643D02*
X82934133Y-34996987D01*
X82934133Y-34996987D02*
X82889302Y-35042504D01*
X75788371Y-122736999D02*
X75502657Y-122936999D01*
X75788371Y-123079856D02*
X75188371Y-123079856D01*
X75188371Y-123079856D02*
X75188371Y-122851285D01*
X75188371Y-122851285D02*
X75216942Y-122794142D01*
X75216942Y-122794142D02*
X75245514Y-122765571D01*
X75245514Y-122765571D02*
X75302657Y-122736999D01*
X75302657Y-122736999D02*
X75388371Y-122736999D01*
X75388371Y-122736999D02*
X75445514Y-122765571D01*
X75445514Y-122765571D02*
X75474085Y-122794142D01*
X75474085Y-122794142D02*
X75502657Y-122851285D01*
X75502657Y-122851285D02*
X75502657Y-123079856D01*
X75445514Y-122394142D02*
X75416942Y-122451285D01*
X75416942Y-122451285D02*
X75388371Y-122479856D01*
X75388371Y-122479856D02*
X75331228Y-122508428D01*
X75331228Y-122508428D02*
X75302657Y-122508428D01*
X75302657Y-122508428D02*
X75245514Y-122479856D01*
X75245514Y-122479856D02*
X75216942Y-122451285D01*
X75216942Y-122451285D02*
X75188371Y-122394142D01*
X75188371Y-122394142D02*
X75188371Y-122279856D01*
X75188371Y-122279856D02*
X75216942Y-122222714D01*
X75216942Y-122222714D02*
X75245514Y-122194142D01*
X75245514Y-122194142D02*
X75302657Y-122165571D01*
X75302657Y-122165571D02*
X75331228Y-122165571D01*
X75331228Y-122165571D02*
X75388371Y-122194142D01*
X75388371Y-122194142D02*
X75416942Y-122222714D01*
X75416942Y-122222714D02*
X75445514Y-122279856D01*
X75445514Y-122279856D02*
X75445514Y-122394142D01*
X75445514Y-122394142D02*
X75474085Y-122451285D01*
X75474085Y-122451285D02*
X75502657Y-122479856D01*
X75502657Y-122479856D02*
X75559800Y-122508428D01*
X75559800Y-122508428D02*
X75674085Y-122508428D01*
X75674085Y-122508428D02*
X75731228Y-122479856D01*
X75731228Y-122479856D02*
X75759800Y-122451285D01*
X75759800Y-122451285D02*
X75788371Y-122394142D01*
X75788371Y-122394142D02*
X75788371Y-122279856D01*
X75788371Y-122279856D02*
X75759800Y-122222714D01*
X75759800Y-122222714D02*
X75731228Y-122194142D01*
X75731228Y-122194142D02*
X75674085Y-122165571D01*
X75674085Y-122165571D02*
X75559800Y-122165571D01*
X75559800Y-122165571D02*
X75502657Y-122194142D01*
X75502657Y-122194142D02*
X75474085Y-122222714D01*
X75474085Y-122222714D02*
X75445514Y-122279856D01*
X94151403Y-43470668D02*
X94636813Y-43117997D01*
X94636813Y-43117997D02*
X94720782Y-43233571D01*
X94720782Y-43233571D02*
X94748049Y-43319709D01*
X94748049Y-43319709D02*
X94735407Y-43399527D01*
X94735407Y-43399527D02*
X94705971Y-43456229D01*
X94705971Y-43456229D02*
X94630306Y-43546519D01*
X94630306Y-43546519D02*
X94560962Y-43596901D01*
X94560962Y-43596901D02*
X94451709Y-43640962D01*
X94451709Y-43640962D02*
X94388686Y-43651435D01*
X94388686Y-43651435D02*
X94308868Y-43638793D01*
X94308868Y-43638793D02*
X94235372Y-43586242D01*
X94235372Y-43586242D02*
X94151403Y-43470668D01*
X94926461Y-43613880D02*
X94966369Y-43620201D01*
X94966369Y-43620201D02*
X95023072Y-43649637D01*
X95023072Y-43649637D02*
X95107041Y-43765211D01*
X95107041Y-43765211D02*
X95117514Y-43828234D01*
X95117514Y-43828234D02*
X95111193Y-43868143D01*
X95111193Y-43868143D02*
X95081757Y-43924845D01*
X95081757Y-43924845D02*
X95035528Y-43958433D01*
X95035528Y-43958433D02*
X94949390Y-43985700D01*
X94949390Y-43985700D02*
X94470486Y-43909849D01*
X94470486Y-43909849D02*
X94688806Y-44210341D01*
X95167710Y-44286192D02*
X95157237Y-44223169D01*
X95157237Y-44223169D02*
X95163558Y-44183260D01*
X95163558Y-44183260D02*
X95192994Y-44126558D01*
X95192994Y-44126558D02*
X95216109Y-44109764D01*
X95216109Y-44109764D02*
X95279132Y-44099291D01*
X95279132Y-44099291D02*
X95319041Y-44105612D01*
X95319041Y-44105612D02*
X95375743Y-44135048D01*
X95375743Y-44135048D02*
X95442919Y-44227507D01*
X95442919Y-44227507D02*
X95453391Y-44290530D01*
X95453391Y-44290530D02*
X95447071Y-44330439D01*
X95447071Y-44330439D02*
X95417635Y-44387141D01*
X95417635Y-44387141D02*
X95394520Y-44403935D01*
X95394520Y-44403935D02*
X95331497Y-44414408D01*
X95331497Y-44414408D02*
X95291588Y-44408087D01*
X95291588Y-44408087D02*
X95234886Y-44378651D01*
X95234886Y-44378651D02*
X95167710Y-44286192D01*
X95167710Y-44286192D02*
X95111008Y-44256757D01*
X95111008Y-44256757D02*
X95071099Y-44250436D01*
X95071099Y-44250436D02*
X95008076Y-44260909D01*
X95008076Y-44260909D02*
X94915617Y-44328084D01*
X94915617Y-44328084D02*
X94886181Y-44384787D01*
X94886181Y-44384787D02*
X94879860Y-44424695D01*
X94879860Y-44424695D02*
X94890333Y-44487719D01*
X94890333Y-44487719D02*
X94957508Y-44580178D01*
X94957508Y-44580178D02*
X95014211Y-44609613D01*
X95014211Y-44609613D02*
X95054119Y-44615934D01*
X95054119Y-44615934D02*
X95117143Y-44605461D01*
X95117143Y-44605461D02*
X95209602Y-44538286D01*
X95209602Y-44538286D02*
X95239038Y-44481583D01*
X95239038Y-44481583D02*
X95245359Y-44441675D01*
X95245359Y-44441675D02*
X95234886Y-44378651D01*
X98577371Y-93786571D02*
X97977371Y-93786571D01*
X97977371Y-93786571D02*
X97977371Y-93643714D01*
X97977371Y-93643714D02*
X98005942Y-93558000D01*
X98005942Y-93558000D02*
X98063085Y-93500857D01*
X98063085Y-93500857D02*
X98120228Y-93472286D01*
X98120228Y-93472286D02*
X98234514Y-93443714D01*
X98234514Y-93443714D02*
X98320228Y-93443714D01*
X98320228Y-93443714D02*
X98434514Y-93472286D01*
X98434514Y-93472286D02*
X98491657Y-93500857D01*
X98491657Y-93500857D02*
X98548800Y-93558000D01*
X98548800Y-93558000D02*
X98577371Y-93643714D01*
X98577371Y-93643714D02*
X98577371Y-93786571D01*
X98577371Y-92872286D02*
X98577371Y-93215143D01*
X98577371Y-93043714D02*
X97977371Y-93043714D01*
X97977371Y-93043714D02*
X98063085Y-93100857D01*
X98063085Y-93100857D02*
X98120228Y-93158000D01*
X98120228Y-93158000D02*
X98148800Y-93215143D01*
X98034514Y-92643714D02*
X98005942Y-92615142D01*
X98005942Y-92615142D02*
X97977371Y-92558000D01*
X97977371Y-92558000D02*
X97977371Y-92415142D01*
X97977371Y-92415142D02*
X98005942Y-92358000D01*
X98005942Y-92358000D02*
X98034514Y-92329428D01*
X98034514Y-92329428D02*
X98091657Y-92300857D01*
X98091657Y-92300857D02*
X98148800Y-92300857D01*
X98148800Y-92300857D02*
X98234514Y-92329428D01*
X98234514Y-92329428D02*
X98577371Y-92672285D01*
X98577371Y-92672285D02*
X98577371Y-92300857D01*
X79207371Y-122735999D02*
X78921657Y-122935999D01*
X79207371Y-123078856D02*
X78607371Y-123078856D01*
X78607371Y-123078856D02*
X78607371Y-122850285D01*
X78607371Y-122850285D02*
X78635942Y-122793142D01*
X78635942Y-122793142D02*
X78664514Y-122764571D01*
X78664514Y-122764571D02*
X78721657Y-122735999D01*
X78721657Y-122735999D02*
X78807371Y-122735999D01*
X78807371Y-122735999D02*
X78864514Y-122764571D01*
X78864514Y-122764571D02*
X78893085Y-122793142D01*
X78893085Y-122793142D02*
X78921657Y-122850285D01*
X78921657Y-122850285D02*
X78921657Y-123078856D01*
X78607371Y-122221714D02*
X78607371Y-122335999D01*
X78607371Y-122335999D02*
X78635942Y-122393142D01*
X78635942Y-122393142D02*
X78664514Y-122421714D01*
X78664514Y-122421714D02*
X78750228Y-122478856D01*
X78750228Y-122478856D02*
X78864514Y-122507428D01*
X78864514Y-122507428D02*
X79093085Y-122507428D01*
X79093085Y-122507428D02*
X79150228Y-122478856D01*
X79150228Y-122478856D02*
X79178800Y-122450285D01*
X79178800Y-122450285D02*
X79207371Y-122393142D01*
X79207371Y-122393142D02*
X79207371Y-122278856D01*
X79207371Y-122278856D02*
X79178800Y-122221714D01*
X79178800Y-122221714D02*
X79150228Y-122193142D01*
X79150228Y-122193142D02*
X79093085Y-122164571D01*
X79093085Y-122164571D02*
X78950228Y-122164571D01*
X78950228Y-122164571D02*
X78893085Y-122193142D01*
X78893085Y-122193142D02*
X78864514Y-122221714D01*
X78864514Y-122221714D02*
X78835942Y-122278856D01*
X78835942Y-122278856D02*
X78835942Y-122393142D01*
X78835942Y-122393142D02*
X78864514Y-122450285D01*
X78864514Y-122450285D02*
X78893085Y-122478856D01*
X78893085Y-122478856D02*
X78950228Y-122507428D01*
X92828371Y-67792571D02*
X92228371Y-67792571D01*
X92228371Y-67792571D02*
X92228371Y-67649714D01*
X92228371Y-67649714D02*
X92256942Y-67564000D01*
X92256942Y-67564000D02*
X92314085Y-67506857D01*
X92314085Y-67506857D02*
X92371228Y-67478286D01*
X92371228Y-67478286D02*
X92485514Y-67449714D01*
X92485514Y-67449714D02*
X92571228Y-67449714D01*
X92571228Y-67449714D02*
X92685514Y-67478286D01*
X92685514Y-67478286D02*
X92742657Y-67506857D01*
X92742657Y-67506857D02*
X92799800Y-67564000D01*
X92799800Y-67564000D02*
X92828371Y-67649714D01*
X92828371Y-67649714D02*
X92828371Y-67792571D01*
X92285514Y-67221143D02*
X92256942Y-67192571D01*
X92256942Y-67192571D02*
X92228371Y-67135429D01*
X92228371Y-67135429D02*
X92228371Y-66992571D01*
X92228371Y-66992571D02*
X92256942Y-66935429D01*
X92256942Y-66935429D02*
X92285514Y-66906857D01*
X92285514Y-66906857D02*
X92342657Y-66878286D01*
X92342657Y-66878286D02*
X92399800Y-66878286D01*
X92399800Y-66878286D02*
X92485514Y-66906857D01*
X92485514Y-66906857D02*
X92828371Y-67249714D01*
X92828371Y-67249714D02*
X92828371Y-66878286D01*
X92828371Y-66306857D02*
X92828371Y-66649714D01*
X92828371Y-66478285D02*
X92228371Y-66478285D01*
X92228371Y-66478285D02*
X92314085Y-66535428D01*
X92314085Y-66535428D02*
X92371228Y-66592571D01*
X92371228Y-66592571D02*
X92399800Y-66649714D01*
X53286371Y-123202856D02*
X52686371Y-123202856D01*
X52686371Y-123202856D02*
X52686371Y-123059999D01*
X52686371Y-123059999D02*
X52714942Y-122974285D01*
X52714942Y-122974285D02*
X52772085Y-122917142D01*
X52772085Y-122917142D02*
X52829228Y-122888571D01*
X52829228Y-122888571D02*
X52943514Y-122859999D01*
X52943514Y-122859999D02*
X53029228Y-122859999D01*
X53029228Y-122859999D02*
X53143514Y-122888571D01*
X53143514Y-122888571D02*
X53200657Y-122917142D01*
X53200657Y-122917142D02*
X53257800Y-122974285D01*
X53257800Y-122974285D02*
X53286371Y-123059999D01*
X53286371Y-123059999D02*
X53286371Y-123202856D01*
X52686371Y-122345714D02*
X52686371Y-122459999D01*
X52686371Y-122459999D02*
X52714942Y-122517142D01*
X52714942Y-122517142D02*
X52743514Y-122545714D01*
X52743514Y-122545714D02*
X52829228Y-122602856D01*
X52829228Y-122602856D02*
X52943514Y-122631428D01*
X52943514Y-122631428D02*
X53172085Y-122631428D01*
X53172085Y-122631428D02*
X53229228Y-122602856D01*
X53229228Y-122602856D02*
X53257800Y-122574285D01*
X53257800Y-122574285D02*
X53286371Y-122517142D01*
X53286371Y-122517142D02*
X53286371Y-122402856D01*
X53286371Y-122402856D02*
X53257800Y-122345714D01*
X53257800Y-122345714D02*
X53229228Y-122317142D01*
X53229228Y-122317142D02*
X53172085Y-122288571D01*
X53172085Y-122288571D02*
X53029228Y-122288571D01*
X53029228Y-122288571D02*
X52972085Y-122317142D01*
X52972085Y-122317142D02*
X52943514Y-122345714D01*
X52943514Y-122345714D02*
X52914942Y-122402856D01*
X52914942Y-122402856D02*
X52914942Y-122517142D01*
X52914942Y-122517142D02*
X52943514Y-122574285D01*
X52943514Y-122574285D02*
X52972085Y-122602856D01*
X52972085Y-122602856D02*
X53029228Y-122631428D01*
X97799371Y-80628571D02*
X97199371Y-80628571D01*
X97199371Y-80628571D02*
X97199371Y-80485714D01*
X97199371Y-80485714D02*
X97227942Y-80400000D01*
X97227942Y-80400000D02*
X97285085Y-80342857D01*
X97285085Y-80342857D02*
X97342228Y-80314286D01*
X97342228Y-80314286D02*
X97456514Y-80285714D01*
X97456514Y-80285714D02*
X97542228Y-80285714D01*
X97542228Y-80285714D02*
X97656514Y-80314286D01*
X97656514Y-80314286D02*
X97713657Y-80342857D01*
X97713657Y-80342857D02*
X97770800Y-80400000D01*
X97770800Y-80400000D02*
X97799371Y-80485714D01*
X97799371Y-80485714D02*
X97799371Y-80628571D01*
X97799371Y-79714286D02*
X97799371Y-80057143D01*
X97799371Y-79885714D02*
X97199371Y-79885714D01*
X97199371Y-79885714D02*
X97285085Y-79942857D01*
X97285085Y-79942857D02*
X97342228Y-80000000D01*
X97342228Y-80000000D02*
X97370800Y-80057143D01*
X97799371Y-79428571D02*
X97799371Y-79314285D01*
X97799371Y-79314285D02*
X97770800Y-79257142D01*
X97770800Y-79257142D02*
X97742228Y-79228571D01*
X97742228Y-79228571D02*
X97656514Y-79171428D01*
X97656514Y-79171428D02*
X97542228Y-79142857D01*
X97542228Y-79142857D02*
X97313657Y-79142857D01*
X97313657Y-79142857D02*
X97256514Y-79171428D01*
X97256514Y-79171428D02*
X97227942Y-79200000D01*
X97227942Y-79200000D02*
X97199371Y-79257142D01*
X97199371Y-79257142D02*
X97199371Y-79371428D01*
X97199371Y-79371428D02*
X97227942Y-79428571D01*
X97227942Y-79428571D02*
X97256514Y-79457142D01*
X97256514Y-79457142D02*
X97313657Y-79485714D01*
X97313657Y-79485714D02*
X97456514Y-79485714D01*
X97456514Y-79485714D02*
X97513657Y-79457142D01*
X97513657Y-79457142D02*
X97542228Y-79428571D01*
X97542228Y-79428571D02*
X97570800Y-79371428D01*
X97570800Y-79371428D02*
X97570800Y-79257142D01*
X97570800Y-79257142D02*
X97542228Y-79200000D01*
X97542228Y-79200000D02*
X97513657Y-79171428D01*
X97513657Y-79171428D02*
X97456514Y-79142857D01*
X77604371Y-122734999D02*
X77318657Y-122934999D01*
X77604371Y-123077856D02*
X77004371Y-123077856D01*
X77004371Y-123077856D02*
X77004371Y-122849285D01*
X77004371Y-122849285D02*
X77032942Y-122792142D01*
X77032942Y-122792142D02*
X77061514Y-122763571D01*
X77061514Y-122763571D02*
X77118657Y-122734999D01*
X77118657Y-122734999D02*
X77204371Y-122734999D01*
X77204371Y-122734999D02*
X77261514Y-122763571D01*
X77261514Y-122763571D02*
X77290085Y-122792142D01*
X77290085Y-122792142D02*
X77318657Y-122849285D01*
X77318657Y-122849285D02*
X77318657Y-123077856D01*
X77004371Y-122534999D02*
X77004371Y-122134999D01*
X77004371Y-122134999D02*
X77604371Y-122392142D01*
X96439357Y-127685871D02*
X96439357Y-128171585D01*
X96439357Y-128171585D02*
X96467928Y-128228728D01*
X96467928Y-128228728D02*
X96496500Y-128257300D01*
X96496500Y-128257300D02*
X96553642Y-128285871D01*
X96553642Y-128285871D02*
X96667928Y-128285871D01*
X96667928Y-128285871D02*
X96725071Y-128257300D01*
X96725071Y-128257300D02*
X96753642Y-128228728D01*
X96753642Y-128228728D02*
X96782214Y-128171585D01*
X96782214Y-128171585D02*
X96782214Y-127685871D01*
X97039356Y-127743014D02*
X97067928Y-127714442D01*
X97067928Y-127714442D02*
X97125071Y-127685871D01*
X97125071Y-127685871D02*
X97267928Y-127685871D01*
X97267928Y-127685871D02*
X97325071Y-127714442D01*
X97325071Y-127714442D02*
X97353642Y-127743014D01*
X97353642Y-127743014D02*
X97382213Y-127800157D01*
X97382213Y-127800157D02*
X97382213Y-127857300D01*
X97382213Y-127857300D02*
X97353642Y-127943014D01*
X97353642Y-127943014D02*
X97010785Y-128285871D01*
X97010785Y-128285871D02*
X97382213Y-128285871D01*
X80907371Y-122733999D02*
X80621657Y-122933999D01*
X80907371Y-123076856D02*
X80307371Y-123076856D01*
X80307371Y-123076856D02*
X80307371Y-122848285D01*
X80307371Y-122848285D02*
X80335942Y-122791142D01*
X80335942Y-122791142D02*
X80364514Y-122762571D01*
X80364514Y-122762571D02*
X80421657Y-122733999D01*
X80421657Y-122733999D02*
X80507371Y-122733999D01*
X80507371Y-122733999D02*
X80564514Y-122762571D01*
X80564514Y-122762571D02*
X80593085Y-122791142D01*
X80593085Y-122791142D02*
X80621657Y-122848285D01*
X80621657Y-122848285D02*
X80621657Y-123076856D01*
X80307371Y-122191142D02*
X80307371Y-122476856D01*
X80307371Y-122476856D02*
X80593085Y-122505428D01*
X80593085Y-122505428D02*
X80564514Y-122476856D01*
X80564514Y-122476856D02*
X80535942Y-122419714D01*
X80535942Y-122419714D02*
X80535942Y-122276856D01*
X80535942Y-122276856D02*
X80564514Y-122219714D01*
X80564514Y-122219714D02*
X80593085Y-122191142D01*
X80593085Y-122191142D02*
X80650228Y-122162571D01*
X80650228Y-122162571D02*
X80793085Y-122162571D01*
X80793085Y-122162571D02*
X80850228Y-122191142D01*
X80850228Y-122191142D02*
X80878800Y-122219714D01*
X80878800Y-122219714D02*
X80907371Y-122276856D01*
X80907371Y-122276856D02*
X80907371Y-122419714D01*
X80907371Y-122419714D02*
X80878800Y-122476856D01*
X80878800Y-122476856D02*
X80850228Y-122505428D01*
X65802371Y-112642856D02*
X65202371Y-112642856D01*
X65202371Y-112642856D02*
X65202371Y-112499999D01*
X65202371Y-112499999D02*
X65230942Y-112414285D01*
X65230942Y-112414285D02*
X65288085Y-112357142D01*
X65288085Y-112357142D02*
X65345228Y-112328571D01*
X65345228Y-112328571D02*
X65459514Y-112299999D01*
X65459514Y-112299999D02*
X65545228Y-112299999D01*
X65545228Y-112299999D02*
X65659514Y-112328571D01*
X65659514Y-112328571D02*
X65716657Y-112357142D01*
X65716657Y-112357142D02*
X65773800Y-112414285D01*
X65773800Y-112414285D02*
X65802371Y-112499999D01*
X65802371Y-112499999D02*
X65802371Y-112642856D01*
X65202371Y-112099999D02*
X65202371Y-111699999D01*
X65202371Y-111699999D02*
X65802371Y-111957142D01*
X123902371Y-115517856D02*
X123302371Y-115517856D01*
X123302371Y-115517856D02*
X123302371Y-115374999D01*
X123302371Y-115374999D02*
X123330942Y-115289285D01*
X123330942Y-115289285D02*
X123388085Y-115232142D01*
X123388085Y-115232142D02*
X123445228Y-115203571D01*
X123445228Y-115203571D02*
X123559514Y-115174999D01*
X123559514Y-115174999D02*
X123645228Y-115174999D01*
X123645228Y-115174999D02*
X123759514Y-115203571D01*
X123759514Y-115203571D02*
X123816657Y-115232142D01*
X123816657Y-115232142D02*
X123873800Y-115289285D01*
X123873800Y-115289285D02*
X123902371Y-115374999D01*
X123902371Y-115374999D02*
X123902371Y-115517856D01*
X123359514Y-114946428D02*
X123330942Y-114917856D01*
X123330942Y-114917856D02*
X123302371Y-114860714D01*
X123302371Y-114860714D02*
X123302371Y-114717856D01*
X123302371Y-114717856D02*
X123330942Y-114660714D01*
X123330942Y-114660714D02*
X123359514Y-114632142D01*
X123359514Y-114632142D02*
X123416657Y-114603571D01*
X123416657Y-114603571D02*
X123473800Y-114603571D01*
X123473800Y-114603571D02*
X123559514Y-114632142D01*
X123559514Y-114632142D02*
X123902371Y-114974999D01*
X123902371Y-114974999D02*
X123902371Y-114603571D01*
X69260371Y-86894071D02*
X68660371Y-86894071D01*
X68660371Y-86894071D02*
X68660371Y-86751214D01*
X68660371Y-86751214D02*
X68688942Y-86665500D01*
X68688942Y-86665500D02*
X68746085Y-86608357D01*
X68746085Y-86608357D02*
X68803228Y-86579786D01*
X68803228Y-86579786D02*
X68917514Y-86551214D01*
X68917514Y-86551214D02*
X69003228Y-86551214D01*
X69003228Y-86551214D02*
X69117514Y-86579786D01*
X69117514Y-86579786D02*
X69174657Y-86608357D01*
X69174657Y-86608357D02*
X69231800Y-86665500D01*
X69231800Y-86665500D02*
X69260371Y-86751214D01*
X69260371Y-86751214D02*
X69260371Y-86894071D01*
X69260371Y-85979786D02*
X69260371Y-86322643D01*
X69260371Y-86151214D02*
X68660371Y-86151214D01*
X68660371Y-86151214D02*
X68746085Y-86208357D01*
X68746085Y-86208357D02*
X68803228Y-86265500D01*
X68803228Y-86265500D02*
X68831800Y-86322643D01*
X68660371Y-85436928D02*
X68660371Y-85722642D01*
X68660371Y-85722642D02*
X68946085Y-85751214D01*
X68946085Y-85751214D02*
X68917514Y-85722642D01*
X68917514Y-85722642D02*
X68888942Y-85665500D01*
X68888942Y-85665500D02*
X68888942Y-85522642D01*
X68888942Y-85522642D02*
X68917514Y-85465500D01*
X68917514Y-85465500D02*
X68946085Y-85436928D01*
X68946085Y-85436928D02*
X69003228Y-85408357D01*
X69003228Y-85408357D02*
X69146085Y-85408357D01*
X69146085Y-85408357D02*
X69203228Y-85436928D01*
X69203228Y-85436928D02*
X69231800Y-85465500D01*
X69231800Y-85465500D02*
X69260371Y-85522642D01*
X69260371Y-85522642D02*
X69260371Y-85665500D01*
X69260371Y-85665500D02*
X69231800Y-85722642D01*
X69231800Y-85722642D02*
X69203228Y-85751214D01*
X83924371Y-79832071D02*
X83324371Y-79832071D01*
X83324371Y-79832071D02*
X83324371Y-79689214D01*
X83324371Y-79689214D02*
X83352942Y-79603500D01*
X83352942Y-79603500D02*
X83410085Y-79546357D01*
X83410085Y-79546357D02*
X83467228Y-79517786D01*
X83467228Y-79517786D02*
X83581514Y-79489214D01*
X83581514Y-79489214D02*
X83667228Y-79489214D01*
X83667228Y-79489214D02*
X83781514Y-79517786D01*
X83781514Y-79517786D02*
X83838657Y-79546357D01*
X83838657Y-79546357D02*
X83895800Y-79603500D01*
X83895800Y-79603500D02*
X83924371Y-79689214D01*
X83924371Y-79689214D02*
X83924371Y-79832071D01*
X83924371Y-78917786D02*
X83924371Y-79260643D01*
X83924371Y-79089214D02*
X83324371Y-79089214D01*
X83324371Y-79089214D02*
X83410085Y-79146357D01*
X83410085Y-79146357D02*
X83467228Y-79203500D01*
X83467228Y-79203500D02*
X83495800Y-79260643D01*
X83324371Y-78403500D02*
X83324371Y-78517785D01*
X83324371Y-78517785D02*
X83352942Y-78574928D01*
X83352942Y-78574928D02*
X83381514Y-78603500D01*
X83381514Y-78603500D02*
X83467228Y-78660642D01*
X83467228Y-78660642D02*
X83581514Y-78689214D01*
X83581514Y-78689214D02*
X83810085Y-78689214D01*
X83810085Y-78689214D02*
X83867228Y-78660642D01*
X83867228Y-78660642D02*
X83895800Y-78632071D01*
X83895800Y-78632071D02*
X83924371Y-78574928D01*
X83924371Y-78574928D02*
X83924371Y-78460642D01*
X83924371Y-78460642D02*
X83895800Y-78403500D01*
X83895800Y-78403500D02*
X83867228Y-78374928D01*
X83867228Y-78374928D02*
X83810085Y-78346357D01*
X83810085Y-78346357D02*
X83667228Y-78346357D01*
X83667228Y-78346357D02*
X83610085Y-78374928D01*
X83610085Y-78374928D02*
X83581514Y-78403500D01*
X83581514Y-78403500D02*
X83552942Y-78460642D01*
X83552942Y-78460642D02*
X83552942Y-78574928D01*
X83552942Y-78574928D02*
X83581514Y-78632071D01*
X83581514Y-78632071D02*
X83610085Y-78660642D01*
X83610085Y-78660642D02*
X83667228Y-78689214D01*
X74077371Y-122737999D02*
X73791657Y-122937999D01*
X74077371Y-123080856D02*
X73477371Y-123080856D01*
X73477371Y-123080856D02*
X73477371Y-122852285D01*
X73477371Y-122852285D02*
X73505942Y-122795142D01*
X73505942Y-122795142D02*
X73534514Y-122766571D01*
X73534514Y-122766571D02*
X73591657Y-122737999D01*
X73591657Y-122737999D02*
X73677371Y-122737999D01*
X73677371Y-122737999D02*
X73734514Y-122766571D01*
X73734514Y-122766571D02*
X73763085Y-122795142D01*
X73763085Y-122795142D02*
X73791657Y-122852285D01*
X73791657Y-122852285D02*
X73791657Y-123080856D01*
X74077371Y-122452285D02*
X74077371Y-122337999D01*
X74077371Y-122337999D02*
X74048800Y-122280856D01*
X74048800Y-122280856D02*
X74020228Y-122252285D01*
X74020228Y-122252285D02*
X73934514Y-122195142D01*
X73934514Y-122195142D02*
X73820228Y-122166571D01*
X73820228Y-122166571D02*
X73591657Y-122166571D01*
X73591657Y-122166571D02*
X73534514Y-122195142D01*
X73534514Y-122195142D02*
X73505942Y-122223714D01*
X73505942Y-122223714D02*
X73477371Y-122280856D01*
X73477371Y-122280856D02*
X73477371Y-122395142D01*
X73477371Y-122395142D02*
X73505942Y-122452285D01*
X73505942Y-122452285D02*
X73534514Y-122480856D01*
X73534514Y-122480856D02*
X73591657Y-122509428D01*
X73591657Y-122509428D02*
X73734514Y-122509428D01*
X73734514Y-122509428D02*
X73791657Y-122480856D01*
X73791657Y-122480856D02*
X73820228Y-122452285D01*
X73820228Y-122452285D02*
X73848800Y-122395142D01*
X73848800Y-122395142D02*
X73848800Y-122280856D01*
X73848800Y-122280856D02*
X73820228Y-122223714D01*
X73820228Y-122223714D02*
X73791657Y-122195142D01*
X73791657Y-122195142D02*
X73734514Y-122166571D01*
X82296371Y-93459071D02*
X81696371Y-93459071D01*
X81696371Y-93459071D02*
X81696371Y-93316214D01*
X81696371Y-93316214D02*
X81724942Y-93230500D01*
X81724942Y-93230500D02*
X81782085Y-93173357D01*
X81782085Y-93173357D02*
X81839228Y-93144786D01*
X81839228Y-93144786D02*
X81953514Y-93116214D01*
X81953514Y-93116214D02*
X82039228Y-93116214D01*
X82039228Y-93116214D02*
X82153514Y-93144786D01*
X82153514Y-93144786D02*
X82210657Y-93173357D01*
X82210657Y-93173357D02*
X82267800Y-93230500D01*
X82267800Y-93230500D02*
X82296371Y-93316214D01*
X82296371Y-93316214D02*
X82296371Y-93459071D01*
X82296371Y-92544786D02*
X82296371Y-92887643D01*
X82296371Y-92716214D02*
X81696371Y-92716214D01*
X81696371Y-92716214D02*
X81782085Y-92773357D01*
X81782085Y-92773357D02*
X81839228Y-92830500D01*
X81839228Y-92830500D02*
X81867800Y-92887643D01*
X81696371Y-92344785D02*
X81696371Y-91973357D01*
X81696371Y-91973357D02*
X81924942Y-92173357D01*
X81924942Y-92173357D02*
X81924942Y-92087642D01*
X81924942Y-92087642D02*
X81953514Y-92030500D01*
X81953514Y-92030500D02*
X81982085Y-92001928D01*
X81982085Y-92001928D02*
X82039228Y-91973357D01*
X82039228Y-91973357D02*
X82182085Y-91973357D01*
X82182085Y-91973357D02*
X82239228Y-92001928D01*
X82239228Y-92001928D02*
X82267800Y-92030500D01*
X82267800Y-92030500D02*
X82296371Y-92087642D01*
X82296371Y-92087642D02*
X82296371Y-92259071D01*
X82296371Y-92259071D02*
X82267800Y-92316214D01*
X82267800Y-92316214D02*
X82239228Y-92344785D01*
X119226371Y-98791571D02*
X118626371Y-98791571D01*
X118626371Y-98791571D02*
X118626371Y-98648714D01*
X118626371Y-98648714D02*
X118654942Y-98563000D01*
X118654942Y-98563000D02*
X118712085Y-98505857D01*
X118712085Y-98505857D02*
X118769228Y-98477286D01*
X118769228Y-98477286D02*
X118883514Y-98448714D01*
X118883514Y-98448714D02*
X118969228Y-98448714D01*
X118969228Y-98448714D02*
X119083514Y-98477286D01*
X119083514Y-98477286D02*
X119140657Y-98505857D01*
X119140657Y-98505857D02*
X119197800Y-98563000D01*
X119197800Y-98563000D02*
X119226371Y-98648714D01*
X119226371Y-98648714D02*
X119226371Y-98791571D01*
X119226371Y-97877286D02*
X119226371Y-98220143D01*
X119226371Y-98048714D02*
X118626371Y-98048714D01*
X118626371Y-98048714D02*
X118712085Y-98105857D01*
X118712085Y-98105857D02*
X118769228Y-98163000D01*
X118769228Y-98163000D02*
X118797800Y-98220143D01*
X119226371Y-97305857D02*
X119226371Y-97648714D01*
X119226371Y-97477285D02*
X118626371Y-97477285D01*
X118626371Y-97477285D02*
X118712085Y-97534428D01*
X118712085Y-97534428D02*
X118769228Y-97591571D01*
X118769228Y-97591571D02*
X118797800Y-97648714D01*
D11*
X89238095Y-22104819D02*
X89238095Y-21104819D01*
X89238095Y-21581009D02*
X89809523Y-21581009D01*
X89809523Y-22104819D02*
X89809523Y-21104819D01*
X90809523Y-22104819D02*
X90238095Y-22104819D01*
X90523809Y-22104819D02*
X90523809Y-21104819D01*
X90523809Y-21104819D02*
X90428571Y-21247676D01*
X90428571Y-21247676D02*
X90333333Y-21342914D01*
X90333333Y-21342914D02*
X90238095Y-21390533D01*
D10*
X101227371Y-60528571D02*
X100627371Y-60528571D01*
X100627371Y-60528571D02*
X100627371Y-60385714D01*
X100627371Y-60385714D02*
X100655942Y-60300000D01*
X100655942Y-60300000D02*
X100713085Y-60242857D01*
X100713085Y-60242857D02*
X100770228Y-60214286D01*
X100770228Y-60214286D02*
X100884514Y-60185714D01*
X100884514Y-60185714D02*
X100970228Y-60185714D01*
X100970228Y-60185714D02*
X101084514Y-60214286D01*
X101084514Y-60214286D02*
X101141657Y-60242857D01*
X101141657Y-60242857D02*
X101198800Y-60300000D01*
X101198800Y-60300000D02*
X101227371Y-60385714D01*
X101227371Y-60385714D02*
X101227371Y-60528571D01*
X100684514Y-59957143D02*
X100655942Y-59928571D01*
X100655942Y-59928571D02*
X100627371Y-59871429D01*
X100627371Y-59871429D02*
X100627371Y-59728571D01*
X100627371Y-59728571D02*
X100655942Y-59671429D01*
X100655942Y-59671429D02*
X100684514Y-59642857D01*
X100684514Y-59642857D02*
X100741657Y-59614286D01*
X100741657Y-59614286D02*
X100798800Y-59614286D01*
X100798800Y-59614286D02*
X100884514Y-59642857D01*
X100884514Y-59642857D02*
X101227371Y-59985714D01*
X101227371Y-59985714D02*
X101227371Y-59614286D01*
X100684514Y-59385714D02*
X100655942Y-59357142D01*
X100655942Y-59357142D02*
X100627371Y-59300000D01*
X100627371Y-59300000D02*
X100627371Y-59157142D01*
X100627371Y-59157142D02*
X100655942Y-59100000D01*
X100655942Y-59100000D02*
X100684514Y-59071428D01*
X100684514Y-59071428D02*
X100741657Y-59042857D01*
X100741657Y-59042857D02*
X100798800Y-59042857D01*
X100798800Y-59042857D02*
X100884514Y-59071428D01*
X100884514Y-59071428D02*
X101227371Y-59414285D01*
X101227371Y-59414285D02*
X101227371Y-59042857D01*
X85092109Y-44749522D02*
X84606699Y-44396851D01*
X84606699Y-44396851D02*
X84690668Y-44281277D01*
X84690668Y-44281277D02*
X84764164Y-44228727D01*
X84764164Y-44228727D02*
X84843982Y-44216085D01*
X84843982Y-44216085D02*
X84907005Y-44226558D01*
X84907005Y-44226558D02*
X85016258Y-44270619D01*
X85016258Y-44270619D02*
X85085602Y-44321000D01*
X85085602Y-44321000D02*
X85161267Y-44411291D01*
X85161267Y-44411291D02*
X85190703Y-44467993D01*
X85190703Y-44467993D02*
X85203345Y-44547810D01*
X85203345Y-44547810D02*
X85176078Y-44633949D01*
X85176078Y-44633949D02*
X85092109Y-44749522D01*
X84988805Y-43968144D02*
X84982485Y-43928235D01*
X84982485Y-43928235D02*
X84992958Y-43865212D01*
X84992958Y-43865212D02*
X85076927Y-43749638D01*
X85076927Y-43749638D02*
X85133629Y-43720202D01*
X85133629Y-43720202D02*
X85173538Y-43713881D01*
X85173538Y-43713881D02*
X85236561Y-43724354D01*
X85236561Y-43724354D02*
X85282791Y-43757942D01*
X85282791Y-43757942D02*
X85335341Y-43831438D01*
X85335341Y-43831438D02*
X85411192Y-44310342D01*
X85411192Y-44310342D02*
X85629512Y-44009850D01*
X85261660Y-43495375D02*
X85496774Y-43171768D01*
X85496774Y-43171768D02*
X85831039Y-43732472D01*
X105251371Y-125698714D02*
X104965657Y-125898714D01*
X105251371Y-126041571D02*
X104651371Y-126041571D01*
X104651371Y-126041571D02*
X104651371Y-125813000D01*
X104651371Y-125813000D02*
X104679942Y-125755857D01*
X104679942Y-125755857D02*
X104708514Y-125727286D01*
X104708514Y-125727286D02*
X104765657Y-125698714D01*
X104765657Y-125698714D02*
X104851371Y-125698714D01*
X104851371Y-125698714D02*
X104908514Y-125727286D01*
X104908514Y-125727286D02*
X104937085Y-125755857D01*
X104937085Y-125755857D02*
X104965657Y-125813000D01*
X104965657Y-125813000D02*
X104965657Y-126041571D01*
X105251371Y-125127286D02*
X105251371Y-125470143D01*
X105251371Y-125298714D02*
X104651371Y-125298714D01*
X104651371Y-125298714D02*
X104737085Y-125355857D01*
X104737085Y-125355857D02*
X104794228Y-125413000D01*
X104794228Y-125413000D02*
X104822800Y-125470143D01*
X104651371Y-124755857D02*
X104651371Y-124698714D01*
X104651371Y-124698714D02*
X104679942Y-124641571D01*
X104679942Y-124641571D02*
X104708514Y-124613000D01*
X104708514Y-124613000D02*
X104765657Y-124584428D01*
X104765657Y-124584428D02*
X104879942Y-124555857D01*
X104879942Y-124555857D02*
X105022800Y-124555857D01*
X105022800Y-124555857D02*
X105137085Y-124584428D01*
X105137085Y-124584428D02*
X105194228Y-124613000D01*
X105194228Y-124613000D02*
X105222800Y-124641571D01*
X105222800Y-124641571D02*
X105251371Y-124698714D01*
X105251371Y-124698714D02*
X105251371Y-124755857D01*
X105251371Y-124755857D02*
X105222800Y-124813000D01*
X105222800Y-124813000D02*
X105194228Y-124841571D01*
X105194228Y-124841571D02*
X105137085Y-124870142D01*
X105137085Y-124870142D02*
X105022800Y-124898714D01*
X105022800Y-124898714D02*
X104879942Y-124898714D01*
X104879942Y-124898714D02*
X104765657Y-124870142D01*
X104765657Y-124870142D02*
X104708514Y-124841571D01*
X104708514Y-124841571D02*
X104679942Y-124813000D01*
X104679942Y-124813000D02*
X104651371Y-124755857D01*
X77369371Y-71617571D02*
X76769371Y-71617571D01*
X76769371Y-71617571D02*
X76769371Y-71474714D01*
X76769371Y-71474714D02*
X76797942Y-71389000D01*
X76797942Y-71389000D02*
X76855085Y-71331857D01*
X76855085Y-71331857D02*
X76912228Y-71303286D01*
X76912228Y-71303286D02*
X77026514Y-71274714D01*
X77026514Y-71274714D02*
X77112228Y-71274714D01*
X77112228Y-71274714D02*
X77226514Y-71303286D01*
X77226514Y-71303286D02*
X77283657Y-71331857D01*
X77283657Y-71331857D02*
X77340800Y-71389000D01*
X77340800Y-71389000D02*
X77369371Y-71474714D01*
X77369371Y-71474714D02*
X77369371Y-71617571D01*
X76826514Y-71046143D02*
X76797942Y-71017571D01*
X76797942Y-71017571D02*
X76769371Y-70960429D01*
X76769371Y-70960429D02*
X76769371Y-70817571D01*
X76769371Y-70817571D02*
X76797942Y-70760429D01*
X76797942Y-70760429D02*
X76826514Y-70731857D01*
X76826514Y-70731857D02*
X76883657Y-70703286D01*
X76883657Y-70703286D02*
X76940800Y-70703286D01*
X76940800Y-70703286D02*
X77026514Y-70731857D01*
X77026514Y-70731857D02*
X77369371Y-71074714D01*
X77369371Y-71074714D02*
X77369371Y-70703286D01*
X76769371Y-70331857D02*
X76769371Y-70274714D01*
X76769371Y-70274714D02*
X76797942Y-70217571D01*
X76797942Y-70217571D02*
X76826514Y-70189000D01*
X76826514Y-70189000D02*
X76883657Y-70160428D01*
X76883657Y-70160428D02*
X76997942Y-70131857D01*
X76997942Y-70131857D02*
X77140800Y-70131857D01*
X77140800Y-70131857D02*
X77255085Y-70160428D01*
X77255085Y-70160428D02*
X77312228Y-70189000D01*
X77312228Y-70189000D02*
X77340800Y-70217571D01*
X77340800Y-70217571D02*
X77369371Y-70274714D01*
X77369371Y-70274714D02*
X77369371Y-70331857D01*
X77369371Y-70331857D02*
X77340800Y-70389000D01*
X77340800Y-70389000D02*
X77312228Y-70417571D01*
X77312228Y-70417571D02*
X77255085Y-70446142D01*
X77255085Y-70446142D02*
X77140800Y-70474714D01*
X77140800Y-70474714D02*
X76997942Y-70474714D01*
X76997942Y-70474714D02*
X76883657Y-70446142D01*
X76883657Y-70446142D02*
X76826514Y-70417571D01*
X76826514Y-70417571D02*
X76797942Y-70389000D01*
X76797942Y-70389000D02*
X76769371Y-70331857D01*
X129936371Y-124709356D02*
X129336371Y-124709356D01*
X129336371Y-124709356D02*
X129336371Y-124566499D01*
X129336371Y-124566499D02*
X129364942Y-124480785D01*
X129364942Y-124480785D02*
X129422085Y-124423642D01*
X129422085Y-124423642D02*
X129479228Y-124395071D01*
X129479228Y-124395071D02*
X129593514Y-124366499D01*
X129593514Y-124366499D02*
X129679228Y-124366499D01*
X129679228Y-124366499D02*
X129793514Y-124395071D01*
X129793514Y-124395071D02*
X129850657Y-124423642D01*
X129850657Y-124423642D02*
X129907800Y-124480785D01*
X129907800Y-124480785D02*
X129936371Y-124566499D01*
X129936371Y-124566499D02*
X129936371Y-124709356D01*
X129936371Y-123795071D02*
X129936371Y-124137928D01*
X129936371Y-123966499D02*
X129336371Y-123966499D01*
X129336371Y-123966499D02*
X129422085Y-124023642D01*
X129422085Y-124023642D02*
X129479228Y-124080785D01*
X129479228Y-124080785D02*
X129507800Y-124137928D01*
X62472371Y-100528571D02*
X61872371Y-100528571D01*
X61872371Y-100528571D02*
X61872371Y-100385714D01*
X61872371Y-100385714D02*
X61900942Y-100300000D01*
X61900942Y-100300000D02*
X61958085Y-100242857D01*
X61958085Y-100242857D02*
X62015228Y-100214286D01*
X62015228Y-100214286D02*
X62129514Y-100185714D01*
X62129514Y-100185714D02*
X62215228Y-100185714D01*
X62215228Y-100185714D02*
X62329514Y-100214286D01*
X62329514Y-100214286D02*
X62386657Y-100242857D01*
X62386657Y-100242857D02*
X62443800Y-100300000D01*
X62443800Y-100300000D02*
X62472371Y-100385714D01*
X62472371Y-100385714D02*
X62472371Y-100528571D01*
X62472371Y-99614286D02*
X62472371Y-99957143D01*
X62472371Y-99785714D02*
X61872371Y-99785714D01*
X61872371Y-99785714D02*
X61958085Y-99842857D01*
X61958085Y-99842857D02*
X62015228Y-99900000D01*
X62015228Y-99900000D02*
X62043800Y-99957143D01*
X62072371Y-99100000D02*
X62472371Y-99100000D01*
X61843800Y-99242857D02*
X62272371Y-99385714D01*
X62272371Y-99385714D02*
X62272371Y-99014285D01*
X109087371Y-122200856D02*
X108487371Y-122200856D01*
X108487371Y-122200856D02*
X108487371Y-122057999D01*
X108487371Y-122057999D02*
X108515942Y-121972285D01*
X108515942Y-121972285D02*
X108573085Y-121915142D01*
X108573085Y-121915142D02*
X108630228Y-121886571D01*
X108630228Y-121886571D02*
X108744514Y-121857999D01*
X108744514Y-121857999D02*
X108830228Y-121857999D01*
X108830228Y-121857999D02*
X108944514Y-121886571D01*
X108944514Y-121886571D02*
X109001657Y-121915142D01*
X109001657Y-121915142D02*
X109058800Y-121972285D01*
X109058800Y-121972285D02*
X109087371Y-122057999D01*
X109087371Y-122057999D02*
X109087371Y-122200856D01*
X108487371Y-121657999D02*
X108487371Y-121286571D01*
X108487371Y-121286571D02*
X108715942Y-121486571D01*
X108715942Y-121486571D02*
X108715942Y-121400856D01*
X108715942Y-121400856D02*
X108744514Y-121343714D01*
X108744514Y-121343714D02*
X108773085Y-121315142D01*
X108773085Y-121315142D02*
X108830228Y-121286571D01*
X108830228Y-121286571D02*
X108973085Y-121286571D01*
X108973085Y-121286571D02*
X109030228Y-121315142D01*
X109030228Y-121315142D02*
X109058800Y-121343714D01*
X109058800Y-121343714D02*
X109087371Y-121400856D01*
X109087371Y-121400856D02*
X109087371Y-121572285D01*
X109087371Y-121572285D02*
X109058800Y-121629428D01*
X109058800Y-121629428D02*
X109030228Y-121657999D01*
X86249857Y-117533371D02*
X86249857Y-118019085D01*
X86249857Y-118019085D02*
X86278428Y-118076228D01*
X86278428Y-118076228D02*
X86307000Y-118104800D01*
X86307000Y-118104800D02*
X86364142Y-118133371D01*
X86364142Y-118133371D02*
X86478428Y-118133371D01*
X86478428Y-118133371D02*
X86535571Y-118104800D01*
X86535571Y-118104800D02*
X86564142Y-118076228D01*
X86564142Y-118076228D02*
X86592714Y-118019085D01*
X86592714Y-118019085D02*
X86592714Y-117533371D01*
X87192713Y-118133371D02*
X86849856Y-118133371D01*
X87021285Y-118133371D02*
X87021285Y-117533371D01*
X87021285Y-117533371D02*
X86964142Y-117619085D01*
X86964142Y-117619085D02*
X86906999Y-117676228D01*
X86906999Y-117676228D02*
X86849856Y-117704800D01*
X96991254Y-35584181D02*
X96805844Y-35013547D01*
X96805844Y-35013547D02*
X96941709Y-34969402D01*
X96941709Y-34969402D02*
X97032057Y-34970088D01*
X97032057Y-34970088D02*
X97104061Y-35006776D01*
X97104061Y-35006776D02*
X97148892Y-35052293D01*
X97148892Y-35052293D02*
X97211382Y-35152156D01*
X97211382Y-35152156D02*
X97237869Y-35233675D01*
X97237869Y-35233675D02*
X97246012Y-35351196D01*
X97246012Y-35351196D02*
X97236497Y-35414372D01*
X97236497Y-35414372D02*
X97199809Y-35486376D01*
X97199809Y-35486376D02*
X97127119Y-35540036D01*
X97127119Y-35540036D02*
X96991254Y-35584181D01*
X97366963Y-34891312D02*
X97385307Y-34855310D01*
X97385307Y-34855310D02*
X97430824Y-34810479D01*
X97430824Y-34810479D02*
X97566689Y-34766334D01*
X97566689Y-34766334D02*
X97629864Y-34775849D01*
X97629864Y-34775849D02*
X97665866Y-34794193D01*
X97665866Y-34794193D02*
X97710697Y-34839710D01*
X97710697Y-34839710D02*
X97728355Y-34894056D01*
X97728355Y-34894056D02*
X97727670Y-34984404D01*
X97727670Y-34984404D02*
X97507542Y-35416429D01*
X97507542Y-35416429D02*
X97860791Y-35301651D01*
X98132522Y-35213361D02*
X98241214Y-35178044D01*
X98241214Y-35178044D02*
X98286731Y-35133213D01*
X98286731Y-35133213D02*
X98305075Y-35097211D01*
X98305075Y-35097211D02*
X98332934Y-34998034D01*
X98332934Y-34998034D02*
X98324791Y-34880513D01*
X98324791Y-34880513D02*
X98254159Y-34663128D01*
X98254159Y-34663128D02*
X98209327Y-34617611D01*
X98209327Y-34617611D02*
X98173325Y-34599267D01*
X98173325Y-34599267D02*
X98110150Y-34589752D01*
X98110150Y-34589752D02*
X98001458Y-34625069D01*
X98001458Y-34625069D02*
X97955941Y-34669900D01*
X97955941Y-34669900D02*
X97937597Y-34705902D01*
X97937597Y-34705902D02*
X97928082Y-34769077D01*
X97928082Y-34769077D02*
X97972227Y-34904942D01*
X97972227Y-34904942D02*
X98017059Y-34950459D01*
X98017059Y-34950459D02*
X98053061Y-34968803D01*
X98053061Y-34968803D02*
X98116236Y-34978318D01*
X98116236Y-34978318D02*
X98224928Y-34943002D01*
X98224928Y-34943002D02*
X98270445Y-34898171D01*
X98270445Y-34898171D02*
X98288789Y-34862169D01*
X98288789Y-34862169D02*
X98298304Y-34798994D01*
X93484371Y-105346856D02*
X92884371Y-105346856D01*
X92884371Y-105346856D02*
X92884371Y-105203999D01*
X92884371Y-105203999D02*
X92912942Y-105118285D01*
X92912942Y-105118285D02*
X92970085Y-105061142D01*
X92970085Y-105061142D02*
X93027228Y-105032571D01*
X93027228Y-105032571D02*
X93141514Y-105003999D01*
X93141514Y-105003999D02*
X93227228Y-105003999D01*
X93227228Y-105003999D02*
X93341514Y-105032571D01*
X93341514Y-105032571D02*
X93398657Y-105061142D01*
X93398657Y-105061142D02*
X93455800Y-105118285D01*
X93455800Y-105118285D02*
X93484371Y-105203999D01*
X93484371Y-105203999D02*
X93484371Y-105346856D01*
X93484371Y-104718285D02*
X93484371Y-104603999D01*
X93484371Y-104603999D02*
X93455800Y-104546856D01*
X93455800Y-104546856D02*
X93427228Y-104518285D01*
X93427228Y-104518285D02*
X93341514Y-104461142D01*
X93341514Y-104461142D02*
X93227228Y-104432571D01*
X93227228Y-104432571D02*
X92998657Y-104432571D01*
X92998657Y-104432571D02*
X92941514Y-104461142D01*
X92941514Y-104461142D02*
X92912942Y-104489714D01*
X92912942Y-104489714D02*
X92884371Y-104546856D01*
X92884371Y-104546856D02*
X92884371Y-104661142D01*
X92884371Y-104661142D02*
X92912942Y-104718285D01*
X92912942Y-104718285D02*
X92941514Y-104746856D01*
X92941514Y-104746856D02*
X92998657Y-104775428D01*
X92998657Y-104775428D02*
X93141514Y-104775428D01*
X93141514Y-104775428D02*
X93198657Y-104746856D01*
X93198657Y-104746856D02*
X93227228Y-104718285D01*
X93227228Y-104718285D02*
X93255800Y-104661142D01*
X93255800Y-104661142D02*
X93255800Y-104546856D01*
X93255800Y-104546856D02*
X93227228Y-104489714D01*
X93227228Y-104489714D02*
X93198657Y-104461142D01*
X93198657Y-104461142D02*
X93141514Y-104432571D01*
X108368228Y-126631999D02*
X108396800Y-126660571D01*
X108396800Y-126660571D02*
X108425371Y-126746285D01*
X108425371Y-126746285D02*
X108425371Y-126803428D01*
X108425371Y-126803428D02*
X108396800Y-126889142D01*
X108396800Y-126889142D02*
X108339657Y-126946285D01*
X108339657Y-126946285D02*
X108282514Y-126974856D01*
X108282514Y-126974856D02*
X108168228Y-127003428D01*
X108168228Y-127003428D02*
X108082514Y-127003428D01*
X108082514Y-127003428D02*
X107968228Y-126974856D01*
X107968228Y-126974856D02*
X107911085Y-126946285D01*
X107911085Y-126946285D02*
X107853942Y-126889142D01*
X107853942Y-126889142D02*
X107825371Y-126803428D01*
X107825371Y-126803428D02*
X107825371Y-126746285D01*
X107825371Y-126746285D02*
X107853942Y-126660571D01*
X107853942Y-126660571D02*
X107882514Y-126631999D01*
X107825371Y-126431999D02*
X107825371Y-126060571D01*
X107825371Y-126060571D02*
X108053942Y-126260571D01*
X108053942Y-126260571D02*
X108053942Y-126174856D01*
X108053942Y-126174856D02*
X108082514Y-126117714D01*
X108082514Y-126117714D02*
X108111085Y-126089142D01*
X108111085Y-126089142D02*
X108168228Y-126060571D01*
X108168228Y-126060571D02*
X108311085Y-126060571D01*
X108311085Y-126060571D02*
X108368228Y-126089142D01*
X108368228Y-126089142D02*
X108396800Y-126117714D01*
X108396800Y-126117714D02*
X108425371Y-126174856D01*
X108425371Y-126174856D02*
X108425371Y-126346285D01*
X108425371Y-126346285D02*
X108396800Y-126403428D01*
X108396800Y-126403428D02*
X108368228Y-126431999D01*
X81127500Y-131687371D02*
X80927500Y-131401657D01*
X80784643Y-131687371D02*
X80784643Y-131087371D01*
X80784643Y-131087371D02*
X81013214Y-131087371D01*
X81013214Y-131087371D02*
X81070357Y-131115942D01*
X81070357Y-131115942D02*
X81098928Y-131144514D01*
X81098928Y-131144514D02*
X81127500Y-131201657D01*
X81127500Y-131201657D02*
X81127500Y-131287371D01*
X81127500Y-131287371D02*
X81098928Y-131344514D01*
X81098928Y-131344514D02*
X81070357Y-131373085D01*
X81070357Y-131373085D02*
X81013214Y-131401657D01*
X81013214Y-131401657D02*
X80784643Y-131401657D01*
X81698928Y-131687371D02*
X81356071Y-131687371D01*
X81527500Y-131687371D02*
X81527500Y-131087371D01*
X81527500Y-131087371D02*
X81470357Y-131173085D01*
X81470357Y-131173085D02*
X81413214Y-131230228D01*
X81413214Y-131230228D02*
X81356071Y-131258800D01*
X82002371Y-60328571D02*
X81402371Y-60328571D01*
X81402371Y-60328571D02*
X81402371Y-60185714D01*
X81402371Y-60185714D02*
X81430942Y-60100000D01*
X81430942Y-60100000D02*
X81488085Y-60042857D01*
X81488085Y-60042857D02*
X81545228Y-60014286D01*
X81545228Y-60014286D02*
X81659514Y-59985714D01*
X81659514Y-59985714D02*
X81745228Y-59985714D01*
X81745228Y-59985714D02*
X81859514Y-60014286D01*
X81859514Y-60014286D02*
X81916657Y-60042857D01*
X81916657Y-60042857D02*
X81973800Y-60100000D01*
X81973800Y-60100000D02*
X82002371Y-60185714D01*
X82002371Y-60185714D02*
X82002371Y-60328571D01*
X81459514Y-59757143D02*
X81430942Y-59728571D01*
X81430942Y-59728571D02*
X81402371Y-59671429D01*
X81402371Y-59671429D02*
X81402371Y-59528571D01*
X81402371Y-59528571D02*
X81430942Y-59471429D01*
X81430942Y-59471429D02*
X81459514Y-59442857D01*
X81459514Y-59442857D02*
X81516657Y-59414286D01*
X81516657Y-59414286D02*
X81573800Y-59414286D01*
X81573800Y-59414286D02*
X81659514Y-59442857D01*
X81659514Y-59442857D02*
X82002371Y-59785714D01*
X82002371Y-59785714D02*
X82002371Y-59414286D01*
X81402371Y-59214285D02*
X81402371Y-58842857D01*
X81402371Y-58842857D02*
X81630942Y-59042857D01*
X81630942Y-59042857D02*
X81630942Y-58957142D01*
X81630942Y-58957142D02*
X81659514Y-58900000D01*
X81659514Y-58900000D02*
X81688085Y-58871428D01*
X81688085Y-58871428D02*
X81745228Y-58842857D01*
X81745228Y-58842857D02*
X81888085Y-58842857D01*
X81888085Y-58842857D02*
X81945228Y-58871428D01*
X81945228Y-58871428D02*
X81973800Y-58900000D01*
X81973800Y-58900000D02*
X82002371Y-58957142D01*
X82002371Y-58957142D02*
X82002371Y-59128571D01*
X82002371Y-59128571D02*
X81973800Y-59185714D01*
X81973800Y-59185714D02*
X81945228Y-59214285D01*
X70844371Y-125585856D02*
X70244371Y-125585856D01*
X70244371Y-125585856D02*
X70244371Y-125442999D01*
X70244371Y-125442999D02*
X70272942Y-125357285D01*
X70272942Y-125357285D02*
X70330085Y-125300142D01*
X70330085Y-125300142D02*
X70387228Y-125271571D01*
X70387228Y-125271571D02*
X70501514Y-125242999D01*
X70501514Y-125242999D02*
X70587228Y-125242999D01*
X70587228Y-125242999D02*
X70701514Y-125271571D01*
X70701514Y-125271571D02*
X70758657Y-125300142D01*
X70758657Y-125300142D02*
X70815800Y-125357285D01*
X70815800Y-125357285D02*
X70844371Y-125442999D01*
X70844371Y-125442999D02*
X70844371Y-125585856D01*
X70244371Y-124700142D02*
X70244371Y-124985856D01*
X70244371Y-124985856D02*
X70530085Y-125014428D01*
X70530085Y-125014428D02*
X70501514Y-124985856D01*
X70501514Y-124985856D02*
X70472942Y-124928714D01*
X70472942Y-124928714D02*
X70472942Y-124785856D01*
X70472942Y-124785856D02*
X70501514Y-124728714D01*
X70501514Y-124728714D02*
X70530085Y-124700142D01*
X70530085Y-124700142D02*
X70587228Y-124671571D01*
X70587228Y-124671571D02*
X70730085Y-124671571D01*
X70730085Y-124671571D02*
X70787228Y-124700142D01*
X70787228Y-124700142D02*
X70815800Y-124728714D01*
X70815800Y-124728714D02*
X70844371Y-124785856D01*
X70844371Y-124785856D02*
X70844371Y-124928714D01*
X70844371Y-124928714D02*
X70815800Y-124985856D01*
X70815800Y-124985856D02*
X70787228Y-125014428D01*
X91234371Y-114590356D02*
X90634371Y-114590356D01*
X90634371Y-114590356D02*
X90634371Y-114447499D01*
X90634371Y-114447499D02*
X90662942Y-114361785D01*
X90662942Y-114361785D02*
X90720085Y-114304642D01*
X90720085Y-114304642D02*
X90777228Y-114276071D01*
X90777228Y-114276071D02*
X90891514Y-114247499D01*
X90891514Y-114247499D02*
X90977228Y-114247499D01*
X90977228Y-114247499D02*
X91091514Y-114276071D01*
X91091514Y-114276071D02*
X91148657Y-114304642D01*
X91148657Y-114304642D02*
X91205800Y-114361785D01*
X91205800Y-114361785D02*
X91234371Y-114447499D01*
X91234371Y-114447499D02*
X91234371Y-114590356D01*
X90834371Y-113733214D02*
X91234371Y-113733214D01*
X90605800Y-113876071D02*
X91034371Y-114018928D01*
X91034371Y-114018928D02*
X91034371Y-113647499D01*
D13*
%TO.C,C4*%
X100831000Y-125015267D02*
X100831000Y-124722733D01*
X99811000Y-125015267D02*
X99811000Y-124722733D01*
%TO.C,R11*%
X102476276Y-126182000D02*
X102985724Y-126182000D01*
X102476276Y-125137000D02*
X102985724Y-125137000D01*
%TO.C,R12*%
X102476276Y-124496000D02*
X102985724Y-124496000D01*
X102476276Y-123451000D02*
X102985724Y-123451000D01*
%TO.C,R2*%
X96510276Y-118573500D02*
X97019724Y-118573500D01*
X96510276Y-119618500D02*
X97019724Y-119618500D01*
%TO.C,J1*%
X79388000Y-135579000D02*
X71658000Y-135579000D01*
X71658000Y-132819000D02*
X71658000Y-135579000D01*
X79388000Y-132819000D02*
X79388000Y-135579000D01*
X79388000Y-132819000D02*
X71658000Y-132819000D01*
X80658000Y-132819000D02*
X82038000Y-132819000D01*
X82038000Y-132819000D02*
X82038000Y-134199000D01*
%TO.C,J2*%
X105448000Y-135598000D02*
X97718000Y-135598000D01*
X97718000Y-132838000D02*
X97718000Y-135598000D01*
X105448000Y-132838000D02*
X105448000Y-135598000D01*
X105448000Y-132838000D02*
X97718000Y-132838000D01*
X106718000Y-132838000D02*
X108098000Y-132838000D01*
X108098000Y-132838000D02*
X108098000Y-134218000D01*
%TO.C,Q1*%
X104180064Y-117169000D02*
X103725936Y-117169000D01*
X104180064Y-118639000D02*
X103725936Y-118639000D01*
%TO.C,C5*%
X89480267Y-118245000D02*
X89187733Y-118245000D01*
X89480267Y-117225000D02*
X89187733Y-117225000D01*
%TO.C,D8*%
X74709000Y-105923000D02*
X74709000Y-108383000D01*
X76179000Y-105923000D02*
X74709000Y-105923000D01*
X76179000Y-108383000D02*
X76179000Y-105923000D01*
%TO.C,D18*%
X106650000Y-74601000D02*
X106650000Y-77061000D01*
X108120000Y-74601000D02*
X106650000Y-74601000D01*
X108120000Y-77061000D02*
X108120000Y-74601000D01*
%TO.C,R4*%
X81799500Y-120667724D02*
X81799500Y-120158276D01*
X82844500Y-120667724D02*
X82844500Y-120158276D01*
%TO.C,D10*%
X106295000Y-104012000D02*
X106295000Y-106472000D01*
X107765000Y-104012000D02*
X106295000Y-104012000D01*
X107765000Y-106472000D02*
X107765000Y-104012000D01*
%TO.C,C1*%
X96619233Y-121253000D02*
X96911767Y-121253000D01*
X96619233Y-120233000D02*
X96911767Y-120233000D01*
%TO.C,D17*%
X107232000Y-86678000D02*
X107232000Y-89138000D01*
X108702000Y-86678000D02*
X107232000Y-86678000D01*
X108702000Y-89138000D02*
X108702000Y-86678000D01*
%TO.C,SW1*%
X86900000Y-131900000D02*
X86900000Y-132000000D01*
X86900000Y-131900000D02*
X93100000Y-131900000D01*
X86900000Y-133500000D02*
X86900000Y-136500000D01*
X86900000Y-138100000D02*
X86900000Y-138000000D01*
X86900000Y-138100000D02*
X93100000Y-138100000D01*
X93100000Y-132000000D02*
X93100000Y-131900000D01*
X93100000Y-133500000D02*
X93100000Y-136500000D01*
X93100000Y-138100000D02*
X93100000Y-138000000D01*
%TO.C,D25*%
X89265000Y-35865000D02*
X89265000Y-38325000D01*
X90735000Y-35865000D02*
X89265000Y-35865000D01*
X90735000Y-38325000D02*
X90735000Y-35865000D01*
%TO.C,D30*%
X89265000Y-30540000D02*
X89265000Y-33000000D01*
X90735000Y-30540000D02*
X89265000Y-30540000D01*
X90735000Y-33000000D02*
X90735000Y-30540000D01*
%TO.C,D24*%
X88632000Y-50104500D02*
X88632000Y-52564500D01*
X90102000Y-50104500D02*
X88632000Y-50104500D01*
X90102000Y-52564500D02*
X90102000Y-50104500D01*
%TO.C,D26*%
X83194119Y-35986060D02*
X85533718Y-36746240D01*
X83648374Y-34588007D02*
X83194119Y-35986060D01*
X85987973Y-35348187D02*
X83648374Y-34588007D01*
%TO.C,R8*%
X75018500Y-120667724D02*
X75018500Y-120158276D01*
X76063500Y-120667724D02*
X76063500Y-120158276D01*
%TO.C,D28*%
X92135144Y-41484808D02*
X93581096Y-43474990D01*
X93581096Y-43474990D02*
X94770351Y-42610946D01*
X94770351Y-42610946D02*
X93324399Y-40620764D01*
%TO.C,D12*%
X97493000Y-88321500D02*
X97493000Y-90781500D01*
X98963000Y-88321500D02*
X97493000Y-88321500D01*
X98963000Y-90781500D02*
X98963000Y-88321500D01*
%TO.C,R6*%
X78417500Y-120666724D02*
X78417500Y-120157276D01*
X79462500Y-120666724D02*
X79462500Y-120157276D01*
%TO.C,D21*%
X90391000Y-65404000D02*
X90391000Y-67864000D01*
X91861000Y-65404000D02*
X90391000Y-65404000D01*
X91861000Y-67864000D02*
X91861000Y-65404000D01*
%TO.C,D6*%
X50849000Y-121100000D02*
X50849000Y-123560000D01*
X52319000Y-121100000D02*
X50849000Y-121100000D01*
X52319000Y-123560000D02*
X52319000Y-121100000D01*
%TO.C,D19*%
X95362000Y-78240000D02*
X95362000Y-80700000D01*
X96832000Y-78240000D02*
X95362000Y-78240000D01*
X96832000Y-80700000D02*
X96832000Y-78240000D01*
%TO.C,R7*%
X76724500Y-120665724D02*
X76724500Y-120156276D01*
X77769500Y-120665724D02*
X77769500Y-120156276D01*
%TO.C,U2*%
X96907000Y-123765500D02*
X97707000Y-123765500D01*
X96907000Y-123765500D02*
X96107000Y-123765500D01*
X95907000Y-126985500D02*
X97707000Y-126985500D01*
X95607000Y-123840500D02*
X95367000Y-123510500D01*
X95847000Y-123510500D01*
X95607000Y-123840500D01*
G36*
X95607000Y-123840500D02*
G01*
X95367000Y-123510500D01*
X95847000Y-123510500D01*
X95607000Y-123840500D01*
G37*
%TO.C,R5*%
X80107500Y-120664724D02*
X80107500Y-120155276D01*
X81152500Y-120664724D02*
X81152500Y-120155276D01*
%TO.C,D7*%
X63365000Y-110540000D02*
X63365000Y-113000000D01*
X64835000Y-110540000D02*
X63365000Y-110540000D01*
X64835000Y-113000000D02*
X64835000Y-110540000D01*
%TO.C,D2*%
X121465000Y-113415000D02*
X121465000Y-115875000D01*
X122935000Y-113415000D02*
X121465000Y-113415000D01*
X122935000Y-115875000D02*
X122935000Y-113415000D01*
%TO.C,D15*%
X69553000Y-84730500D02*
X69553000Y-87190500D01*
X71023000Y-84730500D02*
X69553000Y-84730500D01*
X71023000Y-87190500D02*
X71023000Y-84730500D01*
%TO.C,D16*%
X81487000Y-77443500D02*
X81487000Y-79903500D01*
X82957000Y-77443500D02*
X81487000Y-77443500D01*
X82957000Y-79903500D02*
X82957000Y-77443500D01*
%TO.C,R9*%
X73317500Y-120668724D02*
X73317500Y-120159276D01*
X74362500Y-120668724D02*
X74362500Y-120159276D01*
%TO.C,D13*%
X82589000Y-91045500D02*
X82589000Y-93505500D01*
X84059000Y-91045500D02*
X82589000Y-91045500D01*
X84059000Y-93505500D02*
X84059000Y-91045500D01*
%TO.C,D11*%
X116789000Y-96403000D02*
X116789000Y-98863000D01*
X118259000Y-96403000D02*
X116789000Y-96403000D01*
X118259000Y-98863000D02*
X118259000Y-96403000D01*
%TO.C,D22*%
X98790000Y-58140000D02*
X98790000Y-60600000D01*
X100260000Y-58140000D02*
X98790000Y-58140000D01*
X100260000Y-60600000D02*
X100260000Y-58140000D01*
%TO.C,D27*%
X85315349Y-42718846D02*
X86504604Y-43582890D01*
X86504604Y-43582890D02*
X87950556Y-41592708D01*
X86761300Y-40728664D02*
X85315349Y-42718846D01*
%TO.C,R10*%
X105593000Y-126029064D02*
X105593000Y-124574936D01*
X107413000Y-126029064D02*
X107413000Y-124574936D01*
%TO.C,D20*%
X74932000Y-69229000D02*
X74932000Y-71689000D01*
X76402000Y-69229000D02*
X74932000Y-69229000D01*
X76402000Y-71689000D02*
X76402000Y-69229000D01*
%TO.C,D1*%
X127499000Y-122606500D02*
X127499000Y-125066500D01*
X128969000Y-122606500D02*
X127499000Y-122606500D01*
X128969000Y-125066500D02*
X128969000Y-122606500D01*
%TO.C,D14*%
X60065000Y-98340000D02*
X60065000Y-100800000D01*
X61535000Y-98340000D02*
X60065000Y-98340000D01*
X61535000Y-100800000D02*
X61535000Y-98340000D01*
%TO.C,D3*%
X109276000Y-120151000D02*
X109276000Y-122611000D01*
X110746000Y-120151000D02*
X109276000Y-120151000D01*
X110746000Y-122611000D02*
X110746000Y-120151000D01*
%TO.C,U1*%
X91446000Y-127542000D02*
X87326000Y-127542000D01*
X91446000Y-127477000D02*
X91446000Y-127542000D01*
X91446000Y-118672000D02*
X91446000Y-118737000D01*
X87326000Y-127542000D02*
X87326000Y-127477000D01*
X87326000Y-118737000D02*
X87326000Y-118672000D01*
X87326000Y-118672000D02*
X91446000Y-118672000D01*
X86786000Y-118737000D02*
X86546000Y-118407000D01*
X87026000Y-118407000D01*
X86786000Y-118737000D01*
G36*
X86786000Y-118737000D02*
G01*
X86546000Y-118407000D01*
X87026000Y-118407000D01*
X86786000Y-118737000D01*
G37*
%TO.C,D29*%
X94466282Y-36846240D02*
X96805881Y-36086060D01*
X96351626Y-34688007D02*
X94012027Y-35448187D01*
X96805881Y-36086060D02*
X96351626Y-34688007D01*
%TO.C,D9*%
X91047000Y-103244000D02*
X91047000Y-105704000D01*
X92517000Y-103244000D02*
X91047000Y-103244000D01*
X92517000Y-105704000D02*
X92517000Y-103244000D01*
%TO.C,C3*%
X111523000Y-127290252D02*
X111523000Y-125867748D01*
X108803000Y-127290252D02*
X108803000Y-125867748D01*
%TO.C,R1*%
X78771276Y-130932500D02*
X79280724Y-130932500D01*
X78771276Y-131977500D02*
X79280724Y-131977500D01*
%TO.C,D23*%
X79565000Y-57940000D02*
X79565000Y-60400000D01*
X81035000Y-57940000D02*
X79565000Y-57940000D01*
X81035000Y-60400000D02*
X81035000Y-57940000D01*
%TO.C,D5*%
X68407000Y-123483000D02*
X68407000Y-125943000D01*
X69877000Y-123483000D02*
X68407000Y-123483000D01*
X69877000Y-125943000D02*
X69877000Y-123483000D01*
%TO.C,D4*%
X88797000Y-112487500D02*
X88797000Y-114947500D01*
X90267000Y-112487500D02*
X88797000Y-112487500D01*
X90267000Y-114947500D02*
X90267000Y-112487500D01*
%TD*%
M02*
