M48
; DRILL file {KiCad 9.0.7} date 2026-08-23T13:54:51-0400
; FORMAT={-:-/ absolute / metric / decimal}
; #@! TF.CreationDate,2026-08-23T13:54:51-04:00
; #@! TF.GenerationSoftware,Kicad,Pcbnew,9.0.7
; #@! TF.FileFunction,Plated,1,2,PTH
FMAT,2
METRIC
; #@! TA.AperFunction,Plated,PTH,ViaDrill
T1C0.300
; #@! TA.AperFunction,Plated,PTH,ComponentDrill
T2C0.850
; #@! TA.AperFunction,Plated,PTH,ComponentDrill
T3C1.000
; #@! TA.AperFunction,Plated,PTH,ComponentDrill
T4C1.100
; #@! TA.AperFunction,Plated,PTH,ComponentDrill
T5C2.200
%
G90
G05
T1
X48.402Y-126.235
X54.315Y-116.469
X56.095Y-105.201
X60.374Y-124.461
X64.906Y-93.34
X65.009Y-121.885
X65.753Y-102.914
X68.04Y-82.157
X68.12Y-116.322
X69.542Y-120.539
X69.878Y-109.561
X72.008Y-109.296
X72.335Y-114.051
X73.463Y-74.871
X73.848Y-123.881
X73.894Y-117.066
X74.818Y-93.933
X75.605Y-110.658
X76.095Y-81.084
X76.533Y-108.406
X76.594Y-128.196
X76.767Y-84.359
X77.672Y-137.56
X77.784Y-76.48
X78.182Y-118.204
X78.668Y-115.073
X78.885Y-99.694
X79.16Y-78.19
X79.631Y-68.448
X79.703Y-109.679
X79.733Y-120.464
X80.407Y-72.736
X81.987Y-75.775
X82.725Y-115.919
X84.293Y-130.082
X84.793Y-120.627
X85.138Y-54.808
X85.409Y-109.098
X85.623Y-82.619
X85.646Y-66.584
X86.34Y-96.729
X86.358Y-117.358
X88.192Y-34.284
X88.223Y-115.239
X88.944Y-119.275
X89.159Y-125.665
X89.499Y-116.189
X89.628Y-58.621
X90.074Y-137.875
X90.253Y-118.799
X90.394Y-133.109
X90.395Y-105.918
X90.505Y-40.507
X90.899Y-100.812
X91.289Y-44.429
X91.408Y-87.595
X91.619Y-116.294
X91.916Y-72.091
X92.005Y-35.612
X92.17Y-80.987
X93.026Y-32.65
X93.118Y-109.607
X93.284Y-64.932
X93.746Y-75.681
X94.387Y-119.889
X94.804Y-78.986
X94.982Y-97.915
X95.31Y-39.477
X95.49Y-105.766
X96.73Y-129.42
X96.807Y-125.634
X97.136Y-116.944
X97.313Y-89.804
X97.508Y-69.126
X97.931Y-56.926
X99.626Y-126.739
X100.085Y-120.486
X100.319Y-59.748
X101.76Y-109.691
X102.591Y-83.105
X102.845Y-60.569
X102.946Y-97.746
X103.184Y-74.972
X103.966Y-137.534
X104.17Y-120.078
X104.959Y-130.272
X105.347Y-104.66
X105.986Y-121.999
X106.34Y-75.445
X107.107Y-90.277
X107.677Y-117.933
X108.123Y-108.627
X108.235Y-121.866
X108.482Y-130.697
X111.588Y-81.394
X111.672Y-98.508
X112.434Y-124.106
X113.028Y-90.205
X113.028Y-94.272
X113.12Y-104.656
X113.488Y-114.981
X117.795Y-128.819
X118.431Y-118.511
X118.995Y-103.614
X123.161Y-125.36
X126.973Y-117.735
X132.622Y-126.772
T2
X114.525Y-128.763
X120.825Y-128.763
T3
X73.038Y-134.199
X75.578Y-134.199
X78.118Y-134.199
X80.658Y-134.199
X99.098Y-134.218
X101.638Y-134.218
X104.178Y-134.218
X106.718Y-134.218
T4
X89.29Y-129.902
X101.99Y-129.902
T5
X90.0Y-24.5
M30
