%TF.GenerationSoftware,KiCad,Pcbnew,9.0.7*%
%TF.CreationDate,2026-08-23T13:54:47-04:00*%
%TF.ProjectId,Ornament,4f726e61-6d65-46e7-942e-6b696361645f,rev?*%
%TF.SameCoordinates,Original*%
%TF.FileFunction,Copper,L2,Bot*%
%TF.FilePolarity,Positive*%
%FSLAX46Y46*%
G04 Gerber Fmt 4.6, Leading zero omitted, Abs format (unit mm)*
G04 Created by KiCad (PCBNEW 9.0.7) date 2026-08-23 13:54:47*
%MOMM*%
%LPD*%
G01*
G04 APERTURE LIST*
G04 Aperture macros list*
%AMRoundRect*
0 Rectangle with rounded corners*
0 $1 Rounding radius*
0 $2 $3 $4 $5 $6 $7 $8 $9 X,Y pos of 4 corners*
0 Add a 4 corners polygon primitive as box body*
4,1,4,$2,$3,$4,$5,$6,$7,$8,$9,$2,$3,0*
0 Add four circle primitives for the rounded corners*
1,1,$1+$1,$2,$3*
1,1,$1+$1,$4,$5*
1,1,$1+$1,$6,$7*
1,1,$1+$1,$8,$9*
0 Add four rect primitives between the rounded corners*
20,1,$1+$1,$2,$3,$4,$5,0*
20,1,$1+$1,$4,$5,$6,$7,0*
20,1,$1+$1,$6,$7,$8,$9,0*
20,1,$1+$1,$8,$9,$2,$3,0*%
G04 Aperture macros list end*
%TA.AperFunction,ComponentPad*%
%ADD10C,1.700000*%
%TD*%
%TA.AperFunction,ComponentPad*%
%ADD11R,1.700000X1.700000*%
%TD*%
%TA.AperFunction,ComponentPad*%
%ADD12C,3.000000*%
%TD*%
%TA.AperFunction,ComponentPad*%
%ADD13RoundRect,0.249999X1.250001X-1.250001X1.250001X1.250001X-1.250001X1.250001X-1.250001X-1.250001X0*%
%TD*%
%TA.AperFunction,ComponentPad*%
%ADD14C,2.600000*%
%TD*%
%TA.AperFunction,ConnectorPad*%
%ADD15C,3.800000*%
%TD*%
%TA.AperFunction,SMDPad,CuDef*%
%ADD16R,1.000000X2.500000*%
%TD*%
%TA.AperFunction,ComponentPad*%
%ADD17C,1.381000*%
%TD*%
%TA.AperFunction,ViaPad*%
%ADD18C,0.600000*%
%TD*%
%TA.AperFunction,Conductor*%
%ADD19C,0.200000*%
%TD*%
%TA.AperFunction,Conductor*%
%ADD20C,0.500000*%
%TD*%
G04 APERTURE END LIST*
D10*
%TO.P,J1,4,Pin_4*%
%TO.N,PA0*%
X73038000Y-134199000D03*
%TO.P,J1,3,Pin_3*%
%TO.N,Net-(J1-Pin_3)*%
X75578000Y-134199000D03*
%TO.P,J1,2,Pin_2*%
%TO.N,GND*%
X78118000Y-134199000D03*
D11*
%TO.P,J1,1,Pin_1*%
%TO.N,VCCQ*%
X80658000Y-134199000D03*
%TD*%
D10*
%TO.P,J2,4,Pin_4*%
%TO.N,PB3-TX*%
X99098000Y-134218000D03*
%TO.P,J2,3,Pin_3*%
%TO.N,PB2-RX*%
X101638000Y-134218000D03*
%TO.P,J2,2,Pin_2*%
%TO.N,GND*%
X104178000Y-134218000D03*
D11*
%TO.P,J2,1,Pin_1*%
%TO.N,VCCQ*%
X106718000Y-134218000D03*
%TD*%
D12*
%TO.P,BT1,2,-*%
%TO.N,GND*%
X89290000Y-129902000D03*
D13*
%TO.P,BT1,1,+*%
%TO.N,Net-(BT1-+)*%
X101990000Y-129902000D03*
%TD*%
D14*
%TO.P,H1,1*%
%TO.N,N/C*%
X90000000Y-24500000D03*
D15*
X90000000Y-24500000D03*
%TD*%
D16*
%TO.P,SW2,1,A*%
%TO.N,Net-(BT1-+)*%
X120675000Y-125013000D03*
%TO.P,SW2,2,C*%
%TO.N,VCCQ*%
X118675000Y-125013000D03*
%TO.P,SW2,3,B*%
%TO.N,Net-(SW2-B)*%
X116675000Y-125013000D03*
D17*
%TO.P,SW2,MH1*%
%TO.N,N/C*%
X120825000Y-128763000D03*
%TO.P,SW2,MH2*%
X114525000Y-128763000D03*
%TD*%
D18*
%TO.N,GND*%
X68120000Y-116322000D03*
X82725000Y-115919000D03*
%TO.N,PA5*%
X78182000Y-118204000D03*
X89499000Y-116189000D03*
%TO.N,PA6*%
X73894000Y-117066000D03*
X65009000Y-121885000D03*
X80407000Y-72736000D03*
X79160000Y-78190000D03*
X76095000Y-81084000D03*
X72007735Y-109295735D03*
X90395000Y-105918000D03*
X75605000Y-110658000D03*
X95490000Y-105766000D03*
X105347000Y-104660000D03*
X113120000Y-104656000D03*
%TO.N,GND*%
X94387000Y-119889000D03*
X105986000Y-121999000D03*
X90253000Y-118799000D03*
X93026000Y-32650000D03*
X88192000Y-34284000D03*
X92005000Y-35612000D03*
X95310000Y-39477000D03*
X90505000Y-40507000D03*
X91289000Y-44429000D03*
X102845000Y-60569000D03*
X97931000Y-56926000D03*
X85138000Y-54808000D03*
X89628000Y-58621000D03*
X79631000Y-68448000D03*
X85646000Y-66584000D03*
X91916000Y-72091000D03*
X103184000Y-74972000D03*
X97508000Y-69126000D03*
X102591000Y-83105000D03*
X92170000Y-80987000D03*
X91408000Y-87595000D03*
X90899000Y-100812000D03*
X76767000Y-84359000D03*
X77784000Y-76480000D03*
X73463000Y-74871000D03*
X68040000Y-82157000D03*
X64906000Y-93340000D03*
X56095000Y-105201000D03*
X69542000Y-120539000D03*
X54315000Y-116469000D03*
X74818000Y-93933000D03*
X65753000Y-102914000D03*
X78885000Y-99694000D03*
X86340000Y-96729000D03*
X85409000Y-109098000D03*
X93118000Y-109607000D03*
X94982000Y-97915000D03*
X101760000Y-109691000D03*
X102946000Y-97746000D03*
X113028000Y-94272000D03*
X111672000Y-98508000D03*
X111588000Y-81394000D03*
X113028000Y-90205000D03*
X108123000Y-108627000D03*
X118995000Y-103614000D03*
X113488000Y-114981000D03*
X126973000Y-117735000D03*
X132622000Y-126772000D03*
X123161000Y-125360000D03*
X117795000Y-128819000D03*
X118431000Y-118511000D03*
X78668000Y-115073000D03*
X72335000Y-114051000D03*
X107677000Y-117933000D03*
X104170000Y-120078000D03*
X100085000Y-120486000D03*
X73848000Y-123881000D03*
X60374000Y-124461000D03*
X48402000Y-126235000D03*
X76594000Y-128196000D03*
X77672000Y-137560000D03*
X90074000Y-137875000D03*
X103966000Y-137534000D03*
X108482000Y-130697000D03*
X104959000Y-130272000D03*
X84293000Y-130082000D03*
X90394000Y-133109000D03*
X96730000Y-129420000D03*
X86358000Y-117358000D03*
X91619000Y-116294000D03*
X97136000Y-116944000D03*
X99626000Y-126739000D03*
%TO.N,Net-(SW2-B)*%
X112434400Y-124106200D03*
%TO.N,Net-(U1-PA4)*%
X84792700Y-120627000D03*
X79732700Y-120464300D03*
%TO.N,PB3-TX*%
X89159400Y-125665400D03*
%TO.N,PA7*%
X93283900Y-64932100D03*
X100318800Y-59747600D03*
X108235250Y-121865750D03*
X88223100Y-115239100D03*
X79703400Y-109678700D03*
%TO.N,PA5*%
X106339800Y-75445500D03*
X97312800Y-89804200D03*
X107106700Y-90277500D03*
%TO.N,PA4*%
X81987400Y-75775400D03*
X93746500Y-75681200D03*
X76533300Y-108405900D03*
X69878200Y-109560800D03*
%TO.N,PA3*%
X94804500Y-78985800D03*
X85623500Y-82618900D03*
%TO.N,VCC*%
X88944400Y-119275500D03*
X96807000Y-125633900D03*
%TD*%
D19*
%TO.N,PA5*%
X78182000Y-118204000D02*
X87484000Y-118204000D01*
X87484000Y-118204000D02*
X89499000Y-116189000D01*
%TO.N,PA6*%
X73894000Y-117066000D02*
X69828000Y-117066000D01*
X69828000Y-117066000D02*
X65009000Y-121885000D01*
X80407000Y-76943000D02*
X79160000Y-78190000D01*
X80407000Y-72736000D02*
X80407000Y-76943000D01*
X76095000Y-81084000D02*
X78989000Y-78190000D01*
X78989000Y-78190000D02*
X79160000Y-78190000D01*
X72007735Y-109295735D02*
X73370000Y-110658000D01*
X73370000Y-110658000D02*
X75605000Y-110658000D01*
X80345000Y-105918000D02*
X90395000Y-105918000D01*
X75605000Y-110658000D02*
X80345000Y-105918000D01*
X95490000Y-105766000D02*
X96596000Y-104660000D01*
X96596000Y-104660000D02*
X105347000Y-104660000D01*
X108585000Y-104656000D02*
X113120000Y-104656000D01*
X108581000Y-104660000D02*
X108585000Y-104656000D01*
X105347000Y-104660000D02*
X108581000Y-104660000D01*
D20*
%TO.N,VCCQ*%
X80658000Y-134199000D02*
X81959700Y-134199000D01*
X81959700Y-134199000D02*
X83807700Y-136047000D01*
X83807700Y-136047000D02*
X104889000Y-136047000D01*
X104889000Y-136047000D02*
X106718000Y-134218000D01*
D19*
%TO.N,PA7*%
X108235250Y-121865750D02*
X101608600Y-115239100D01*
X101608600Y-115239100D02*
X88223100Y-115239100D01*
D20*
%TO.N,Net-(SW2-B)*%
X112434400Y-124106200D02*
X112454600Y-124086000D01*
X112454600Y-124086000D02*
X115015000Y-124086000D01*
X115015000Y-124086000D02*
X115942000Y-125013000D01*
X115942000Y-125013000D02*
X116675000Y-125013000D01*
D19*
%TO.N,GND*%
X99626000Y-126739000D02*
X99626000Y-130965580D01*
X99626000Y-130965580D02*
X101627420Y-132967000D01*
X102927000Y-132967000D02*
X104178000Y-134218000D01*
X101627420Y-132967000D02*
X102927000Y-132967000D01*
D20*
%TO.N,VCCQ*%
X118675000Y-125013000D02*
X118675000Y-127416000D01*
X118675000Y-127416000D02*
X108465000Y-127416000D01*
X108465000Y-127416000D02*
X106718000Y-129163000D01*
X106718000Y-129163000D02*
X106718000Y-134218000D01*
%TO.N,Net-(BT1-+)*%
X109290700Y-122601300D02*
X101990000Y-129902000D01*
X119965000Y-122601300D02*
X109290700Y-122601300D01*
X120675000Y-123311300D02*
X119965000Y-122601300D01*
X120675000Y-125013000D02*
X120675000Y-123311300D01*
D19*
%TO.N,Net-(U1-PA4)*%
X79895400Y-120627000D02*
X79732700Y-120464300D01*
X84792700Y-120627000D02*
X79895400Y-120627000D01*
%TO.N,PB3-TX*%
X97712000Y-134218000D02*
X99098000Y-134218000D01*
X89159400Y-125665400D02*
X97712000Y-134218000D01*
%TO.N,PA7*%
X98468400Y-59747600D02*
X100318800Y-59747600D01*
X93283900Y-64932100D02*
X98468400Y-59747600D01*
X85263800Y-115239100D02*
X79703400Y-109678700D01*
X88223100Y-115239100D02*
X85263800Y-115239100D01*
%TO.N,PA5*%
X97312800Y-89804200D02*
X106339800Y-89804200D01*
X106339800Y-89804200D02*
X106339800Y-75445500D01*
X106633400Y-89804200D02*
X107106700Y-90277500D01*
X106339800Y-89804200D02*
X106633400Y-89804200D01*
%TO.N,PA4*%
X93652300Y-75775400D02*
X93746500Y-75681200D01*
X81987400Y-75775400D02*
X93652300Y-75775400D01*
X81987400Y-102951800D02*
X76533300Y-108405900D01*
X81987400Y-75775400D02*
X81987400Y-102951800D01*
X71033100Y-108405900D02*
X69878200Y-109560800D01*
X76533300Y-108405900D02*
X71033100Y-108405900D01*
%TO.N,PA3*%
X89256600Y-78985800D02*
X85623500Y-82618900D01*
X94804500Y-78985800D02*
X89256600Y-78985800D01*
D20*
%TO.N,VCC*%
X95302800Y-125633900D02*
X96807000Y-125633900D01*
X88944400Y-119275500D02*
X95302800Y-125633900D01*
%TD*%
%TA.AperFunction,Conductor*%
%TO.N,GND*%
G36*
X92631359Y-23030269D02*
G01*
X92637621Y-23031410D01*
X93175039Y-23143622D01*
X93372366Y-23184824D01*
X93378578Y-23186289D01*
X94104443Y-23377300D01*
X94110572Y-23379082D01*
X94825671Y-23607196D01*
X94831700Y-23609291D01*
X95534125Y-23873900D01*
X95540012Y-23876293D01*
X96227906Y-24176700D01*
X96233656Y-24179390D01*
X96494109Y-24309477D01*
X96905170Y-24514788D01*
X96910804Y-24517786D01*
X97564148Y-24887277D01*
X97569621Y-24890561D01*
X97588750Y-24902719D01*
X98203102Y-25293188D01*
X98208370Y-25296729D01*
X98382013Y-25420079D01*
X98820309Y-25731429D01*
X98825415Y-25735258D01*
X99022714Y-25891287D01*
X99414168Y-26200860D01*
X99419036Y-26204918D01*
X99710475Y-26460838D01*
X99983052Y-26700195D01*
X99987738Y-26704528D01*
X100525517Y-27228164D01*
X100529974Y-27232733D01*
X101040100Y-27783350D01*
X101044315Y-27788142D01*
X101525414Y-28364249D01*
X101529378Y-28369251D01*
X101980218Y-28969379D01*
X101983919Y-28974579D01*
X102403278Y-29597101D01*
X102406706Y-29602484D01*
X102793476Y-30245755D01*
X102796623Y-30251308D01*
X103149783Y-30913626D01*
X103152640Y-30919333D01*
X103471252Y-31598944D01*
X103473812Y-31604791D01*
X103757039Y-32299905D01*
X103759294Y-32305875D01*
X104006378Y-33014638D01*
X104008323Y-33020717D01*
X104218610Y-33741244D01*
X104220240Y-33747415D01*
X104393176Y-34477818D01*
X104394486Y-34484064D01*
X104529612Y-35222393D01*
X104530599Y-35228698D01*
X104627557Y-35973011D01*
X104628218Y-35979360D01*
X104686748Y-36727656D01*
X104687082Y-36734029D01*
X104707034Y-37484350D01*
X104707040Y-37490732D01*
X104688358Y-38241106D01*
X104688035Y-38247480D01*
X104630769Y-38995895D01*
X104630118Y-39002244D01*
X104534424Y-39746693D01*
X104533448Y-39753001D01*
X104399568Y-40491578D01*
X104398268Y-40497826D01*
X104226574Y-41228498D01*
X104224955Y-41234672D01*
X104015883Y-41955573D01*
X104013948Y-41961655D01*
X103768066Y-42670828D01*
X103765821Y-42676802D01*
X103483771Y-43372395D01*
X103481221Y-43378246D01*
X103163762Y-44058388D01*
X103160915Y-44064100D01*
X102808870Y-44727030D01*
X102805732Y-44732588D01*
X102420056Y-45376504D01*
X102416637Y-45381893D01*
X101998332Y-46005124D01*
X101994640Y-46010330D01*
X101544822Y-46611211D01*
X101540867Y-46616220D01*
X101060727Y-47193164D01*
X101056519Y-47197963D01*
X100547343Y-47749421D01*
X100542895Y-47753997D01*
X100005994Y-48278552D01*
X100001315Y-48282893D01*
X99438157Y-48779109D01*
X99433261Y-48783204D01*
X98845325Y-49249779D01*
X98840226Y-49253617D01*
X98269090Y-49660786D01*
X98269089Y-49660785D01*
X98260970Y-49666572D01*
X98258414Y-49667603D01*
X98237757Y-49683122D01*
X98236457Y-49684050D01*
X98236450Y-49684056D01*
X98227701Y-49690294D01*
X98225074Y-49692116D01*
X98171813Y-49728055D01*
X98171807Y-49728061D01*
X98168647Y-49731698D01*
X98149530Y-49749501D01*
X98120128Y-49771588D01*
X98120112Y-49771602D01*
X97968841Y-49923343D01*
X97840652Y-50095053D01*
X97738168Y-50283226D01*
X97738166Y-50283230D01*
X97663455Y-50484060D01*
X97663454Y-50484065D01*
X97618037Y-50693460D01*
X97618035Y-50693476D01*
X97602832Y-50907198D01*
X97602832Y-50907201D01*
X97618151Y-51120931D01*
X97618152Y-51120937D01*
X97663678Y-51330301D01*
X97663685Y-51330324D01*
X97738496Y-51531093D01*
X97738499Y-51531100D01*
X97738501Y-51531104D01*
X97841089Y-51719226D01*
X97841090Y-51719228D01*
X97902297Y-51801103D01*
X97903490Y-51802726D01*
X105126901Y-61799882D01*
X105150208Y-61865749D01*
X105134204Y-61933762D01*
X105083971Y-61982325D01*
X105026587Y-61996504D01*
X103141926Y-61999470D01*
X103140535Y-61999464D01*
X103002633Y-61998133D01*
X102775534Y-62032071D01*
X102775529Y-62032073D01*
X102775526Y-62032073D01*
X102775525Y-62032074D01*
X102713625Y-62051715D01*
X102556656Y-62101522D01*
X102556655Y-62101523D01*
X102351527Y-62204735D01*
X102165327Y-62339100D01*
X102002736Y-62501236D01*
X102002725Y-62501248D01*
X101867846Y-62687062D01*
X101867844Y-62687065D01*
X101764058Y-62891899D01*
X101764057Y-62891901D01*
X101693994Y-63110575D01*
X101693994Y-63110576D01*
X101659419Y-63337578D01*
X101659418Y-63337593D01*
X101661200Y-63567191D01*
X101661200Y-63567196D01*
X101661201Y-63567198D01*
X101699296Y-63793640D01*
X101772744Y-64011200D01*
X101835804Y-64131010D01*
X101879695Y-64214398D01*
X101879697Y-64214401D01*
X101944991Y-64301643D01*
X101946258Y-64303366D01*
X116384054Y-84304335D01*
X116407331Y-84370214D01*
X116391297Y-84438219D01*
X116341041Y-84486759D01*
X116283669Y-84500912D01*
X114354783Y-84503356D01*
X114353422Y-84503350D01*
X114242422Y-84502272D01*
X114242421Y-84502272D01*
X114015311Y-84536199D01*
X114015310Y-84536199D01*
X113796444Y-84605636D01*
X113796430Y-84605641D01*
X113591310Y-84708837D01*
X113591300Y-84708843D01*
X113405093Y-84843205D01*
X113405089Y-84843208D01*
X113242481Y-85005351D01*
X113242480Y-85005352D01*
X113107593Y-85191171D01*
X113107588Y-85191179D01*
X113003802Y-85396011D01*
X112933737Y-85614688D01*
X112933737Y-85614690D01*
X112899163Y-85841695D01*
X112899162Y-85841711D01*
X112900947Y-86071318D01*
X112939048Y-86297761D01*
X112939052Y-86297776D01*
X113012501Y-86515321D01*
X113055250Y-86596534D01*
X113119465Y-86718525D01*
X113144828Y-86752410D01*
X113183617Y-86804233D01*
X113188265Y-86810442D01*
X113188299Y-86810488D01*
X113188298Y-86810488D01*
X113232676Y-86869664D01*
X113232634Y-86869695D01*
X113234868Y-86872349D01*
X127624063Y-106795849D01*
X127647356Y-106861722D01*
X127631338Y-106929731D01*
X127581095Y-106978283D01*
X127524000Y-106992449D01*
X125603313Y-106999585D01*
X125601642Y-106999580D01*
X125489410Y-106998484D01*
X125489406Y-106998485D01*
X125262283Y-107032401D01*
X125043396Y-107101833D01*
X124838246Y-107205036D01*
X124652026Y-107339399D01*
X124652023Y-107339402D01*
X124489407Y-107501549D01*
X124354505Y-107687386D01*
X124250712Y-107892234D01*
X124180647Y-108110929D01*
X124146077Y-108337949D01*
X124146076Y-108337958D01*
X124147871Y-108567581D01*
X124185984Y-108794034D01*
X124185986Y-108794043D01*
X124259458Y-109011607D01*
X124259463Y-109011618D01*
X124366440Y-109214810D01*
X124366443Y-109214814D01*
X124435217Y-109306682D01*
X124454565Y-109332477D01*
X124455936Y-109334341D01*
X138879967Y-129331705D01*
X138903220Y-129397592D01*
X138887161Y-129465591D01*
X138836888Y-129514113D01*
X138779270Y-129528245D01*
X121982917Y-129510743D01*
X121915898Y-129490989D01*
X121870198Y-129438137D01*
X121860327Y-129368968D01*
X121872560Y-129330451D01*
X121928743Y-129220185D01*
X121986674Y-129041893D01*
X122008457Y-128904359D01*
X122016000Y-128856739D01*
X122016000Y-128669260D01*
X121989065Y-128499203D01*
X121986674Y-128484107D01*
X121928743Y-128305815D01*
X121843635Y-128138780D01*
X121733444Y-127987115D01*
X121600885Y-127854556D01*
X121449220Y-127744365D01*
X121282185Y-127659257D01*
X121103893Y-127601326D01*
X121103891Y-127601325D01*
X121103889Y-127601325D01*
X120918739Y-127572000D01*
X120918734Y-127572000D01*
X120731266Y-127572000D01*
X120731261Y-127572000D01*
X120546110Y-127601325D01*
X120367812Y-127659258D01*
X120200779Y-127744365D01*
X120163430Y-127771501D01*
X120049115Y-127854556D01*
X120049113Y-127854558D01*
X120049112Y-127854558D01*
X119916558Y-127987112D01*
X119916558Y-127987113D01*
X119916556Y-127987115D01*
X119907959Y-127998948D01*
X119806365Y-128138779D01*
X119721258Y-128305812D01*
X119663325Y-128484110D01*
X119634000Y-128669260D01*
X119634000Y-128856739D01*
X119659148Y-129015517D01*
X119663326Y-129041893D01*
X119704539Y-129168734D01*
X119721258Y-129220187D01*
X119776208Y-129328033D01*
X119789104Y-129396703D01*
X119762828Y-129461443D01*
X119705721Y-129501700D01*
X119665594Y-129508328D01*
X115686260Y-129504181D01*
X115619241Y-129484427D01*
X115573541Y-129431575D01*
X115563670Y-129362406D01*
X115575904Y-129323887D01*
X115628743Y-129220185D01*
X115686674Y-129041893D01*
X115708457Y-128904359D01*
X115716000Y-128856739D01*
X115716000Y-128669260D01*
X115689065Y-128499203D01*
X115686674Y-128484107D01*
X115636216Y-128328817D01*
X115634222Y-128258977D01*
X115670302Y-128199144D01*
X115733003Y-128168316D01*
X115754148Y-128166500D01*
X118748920Y-128166500D01*
X118888277Y-128138779D01*
X118893913Y-128137658D01*
X119030495Y-128081084D01*
X119153416Y-127998951D01*
X119257951Y-127894416D01*
X119340084Y-127771495D01*
X119396658Y-127634913D01*
X119406096Y-127587462D01*
X119425500Y-127489920D01*
X119425500Y-126762749D01*
X119445185Y-126695710D01*
X119461790Y-126675097D01*
X119468071Y-126668810D01*
X119532546Y-126620546D01*
X119581034Y-126555773D01*
X119587290Y-126549514D01*
X119610495Y-126536833D01*
X119631667Y-126520984D01*
X119640677Y-126520339D01*
X119648602Y-126516009D01*
X119674978Y-126517886D01*
X119701358Y-126516000D01*
X119709285Y-126520328D01*
X119718295Y-126520970D01*
X119739472Y-126536811D01*
X119762681Y-126549485D01*
X119774232Y-126562815D01*
X119774243Y-126562823D01*
X119774245Y-126562830D01*
X119774263Y-126562851D01*
X119817454Y-126620546D01*
X119863643Y-126655123D01*
X119932664Y-126706793D01*
X119932671Y-126706797D01*
X120067517Y-126757091D01*
X120067516Y-126757091D01*
X120074444Y-126757835D01*
X120127127Y-126763500D01*
X121222872Y-126763499D01*
X121282483Y-126757091D01*
X121417331Y-126706796D01*
X121532546Y-126620546D01*
X121618796Y-126505331D01*
X121669091Y-126370483D01*
X121675500Y-126310873D01*
X121675499Y-123715128D01*
X121669091Y-123655517D01*
X121646859Y-123595911D01*
X121618797Y-123520671D01*
X121618793Y-123520664D01*
X121532548Y-123405457D01*
X121532546Y-123405454D01*
X121487170Y-123371485D01*
X121475188Y-123362515D01*
X121456156Y-123337090D01*
X121435800Y-123312729D01*
X121434983Y-123308805D01*
X121433318Y-123306581D01*
X121426465Y-123278692D01*
X121425500Y-123271003D01*
X121425500Y-123237382D01*
X121414931Y-123184251D01*
X121414063Y-123179889D01*
X121414062Y-123179878D01*
X121396660Y-123092395D01*
X121396659Y-123092388D01*
X121340494Y-122956795D01*
X121340084Y-122955805D01*
X121257951Y-122832884D01*
X121153416Y-122728349D01*
X121000207Y-122575140D01*
X120443421Y-122018352D01*
X120443420Y-122018351D01*
X120361840Y-121963842D01*
X120361839Y-121963841D01*
X120320500Y-121936219D01*
X120320488Y-121936212D01*
X120183917Y-121879643D01*
X120183907Y-121879640D01*
X120038920Y-121850800D01*
X120038918Y-121850800D01*
X109216782Y-121850800D01*
X109176481Y-121858816D01*
X109106889Y-121852587D01*
X109051713Y-121809724D01*
X109030674Y-121761389D01*
X109004988Y-121632260D01*
X109004987Y-121632253D01*
X108952615Y-121505814D01*
X108944647Y-121486577D01*
X108944640Y-121486564D01*
X108857039Y-121355461D01*
X108857036Y-121355457D01*
X108745542Y-121243963D01*
X108745538Y-121243960D01*
X108614435Y-121156359D01*
X108614422Y-121156352D01*
X108468751Y-121096014D01*
X108468741Y-121096011D01*
X108313399Y-121065111D01*
X108251488Y-121032726D01*
X108249910Y-121031175D01*
X102096190Y-114877455D01*
X102096188Y-114877452D01*
X101977317Y-114758581D01*
X101977316Y-114758580D01*
X101890504Y-114708460D01*
X101890504Y-114708459D01*
X101890500Y-114708458D01*
X101840385Y-114679523D01*
X101687657Y-114638599D01*
X101529543Y-114638599D01*
X101521947Y-114638599D01*
X101521931Y-114638600D01*
X88802866Y-114638600D01*
X88735827Y-114618915D01*
X88733975Y-114617702D01*
X88602285Y-114529709D01*
X88602272Y-114529702D01*
X88456601Y-114469364D01*
X88456589Y-114469361D01*
X88301945Y-114438600D01*
X88301942Y-114438600D01*
X88144258Y-114438600D01*
X88144255Y-114438600D01*
X87989610Y-114469361D01*
X87989598Y-114469364D01*
X87843927Y-114529702D01*
X87843914Y-114529709D01*
X87712225Y-114617702D01*
X87645547Y-114638580D01*
X87643334Y-114638600D01*
X85563897Y-114638600D01*
X85496858Y-114618915D01*
X85476216Y-114602281D01*
X80537974Y-109664039D01*
X80504489Y-109602716D01*
X80504038Y-109600549D01*
X80473138Y-109445210D01*
X80473137Y-109445203D01*
X80427217Y-109334341D01*
X80412797Y-109299527D01*
X80412790Y-109299514D01*
X80325189Y-109168411D01*
X80325186Y-109168407D01*
X80213692Y-109056913D01*
X80213688Y-109056910D01*
X80082585Y-108969309D01*
X80082572Y-108969302D01*
X79936901Y-108908964D01*
X79936889Y-108908961D01*
X79782245Y-108878200D01*
X79782242Y-108878200D01*
X79624558Y-108878200D01*
X79624555Y-108878200D01*
X79469910Y-108908961D01*
X79469898Y-108908964D01*
X79324227Y-108969302D01*
X79324214Y-108969309D01*
X79193111Y-109056910D01*
X79193107Y-109056913D01*
X79081613Y-109168407D01*
X79081610Y-109168411D01*
X78994009Y-109299514D01*
X78994002Y-109299527D01*
X78933664Y-109445198D01*
X78933661Y-109445210D01*
X78902900Y-109599853D01*
X78902900Y-109757546D01*
X78933661Y-109912189D01*
X78933664Y-109912201D01*
X78994002Y-110057872D01*
X78994009Y-110057885D01*
X79081610Y-110188988D01*
X79081613Y-110188992D01*
X79193107Y-110300486D01*
X79193111Y-110300489D01*
X79324214Y-110388090D01*
X79324227Y-110388097D01*
X79469898Y-110448435D01*
X79469903Y-110448437D01*
X79534547Y-110461295D01*
X79625249Y-110479338D01*
X79687160Y-110511723D01*
X79688739Y-110513274D01*
X84778939Y-115603474D01*
X84778949Y-115603485D01*
X84783279Y-115607815D01*
X84783280Y-115607816D01*
X84895084Y-115719620D01*
X84981895Y-115769739D01*
X84981897Y-115769741D01*
X85019951Y-115791711D01*
X85032015Y-115798677D01*
X85184743Y-115839600D01*
X87643334Y-115839600D01*
X87710373Y-115859285D01*
X87712225Y-115860498D01*
X87843914Y-115948490D01*
X87843927Y-115948497D01*
X87938795Y-115987792D01*
X87989603Y-116008837D01*
X88144253Y-116039599D01*
X88144256Y-116039600D01*
X88144258Y-116039600D01*
X88301944Y-116039600D01*
X88301945Y-116039599D01*
X88456597Y-116008837D01*
X88517976Y-115983412D01*
X88587444Y-115975944D01*
X88649924Y-116007219D01*
X88685576Y-116067308D01*
X88683083Y-116137133D01*
X88653109Y-116185655D01*
X87271584Y-117567181D01*
X87210261Y-117600666D01*
X87183903Y-117603500D01*
X78761766Y-117603500D01*
X78694727Y-117583815D01*
X78692875Y-117582602D01*
X78561185Y-117494609D01*
X78561172Y-117494602D01*
X78415501Y-117434264D01*
X78415489Y-117434261D01*
X78260845Y-117403500D01*
X78260842Y-117403500D01*
X78103158Y-117403500D01*
X78103155Y-117403500D01*
X77948510Y-117434261D01*
X77948498Y-117434264D01*
X77802827Y-117494602D01*
X77802814Y-117494609D01*
X77671711Y-117582210D01*
X77671707Y-117582213D01*
X77560213Y-117693707D01*
X77560210Y-117693711D01*
X77472609Y-117824814D01*
X77472602Y-117824827D01*
X77412264Y-117970498D01*
X77412261Y-117970510D01*
X77381500Y-118125153D01*
X77381500Y-118282846D01*
X77412261Y-118437489D01*
X77412264Y-118437501D01*
X77472602Y-118583172D01*
X77472609Y-118583185D01*
X77560210Y-118714288D01*
X77560213Y-118714292D01*
X77671707Y-118825786D01*
X77671711Y-118825789D01*
X77802814Y-118913390D01*
X77802827Y-118913397D01*
X77948498Y-118973735D01*
X77948503Y-118973737D01*
X78103153Y-119004499D01*
X78103156Y-119004500D01*
X78103158Y-119004500D01*
X78260844Y-119004500D01*
X78260845Y-119004499D01*
X78415497Y-118973737D01*
X78561179Y-118913394D01*
X78586741Y-118896314D01*
X78692875Y-118825398D01*
X78759553Y-118804520D01*
X78761766Y-118804500D01*
X87397331Y-118804500D01*
X87397347Y-118804501D01*
X87404943Y-118804501D01*
X87563054Y-118804501D01*
X87563057Y-118804501D01*
X87715785Y-118763577D01*
X87765904Y-118734639D01*
X87852716Y-118684520D01*
X87964520Y-118572716D01*
X87964520Y-118572714D01*
X87974728Y-118562507D01*
X87974729Y-118562504D01*
X89513662Y-117023572D01*
X89574983Y-116990089D01*
X89577150Y-116989638D01*
X89635085Y-116978113D01*
X89732497Y-116958737D01*
X89878179Y-116898394D01*
X90009289Y-116810789D01*
X90120789Y-116699289D01*
X90208394Y-116568179D01*
X90268737Y-116422497D01*
X90299500Y-116267842D01*
X90299500Y-116110158D01*
X90299500Y-116110155D01*
X90275160Y-115987792D01*
X90281387Y-115918200D01*
X90324250Y-115863023D01*
X90390140Y-115839778D01*
X90396777Y-115839600D01*
X101308503Y-115839600D01*
X101375542Y-115859285D01*
X101396184Y-115875919D01*
X107400675Y-121880410D01*
X107434160Y-121941733D01*
X107434611Y-121943899D01*
X107465511Y-122099241D01*
X107465514Y-122099251D01*
X107525852Y-122244922D01*
X107525859Y-122244935D01*
X107613460Y-122376038D01*
X107613463Y-122376042D01*
X107724957Y-122487536D01*
X107724961Y-122487539D01*
X107856064Y-122575140D01*
X107856077Y-122575147D01*
X107967048Y-122621112D01*
X108021452Y-122664952D01*
X108043517Y-122731246D01*
X108026238Y-122798946D01*
X108007277Y-122823354D01*
X102965451Y-127865181D01*
X102904128Y-127898666D01*
X102877770Y-127901500D01*
X100689982Y-127901500D01*
X100587203Y-127912000D01*
X100587202Y-127912001D01*
X100514114Y-127936220D01*
X100420667Y-127967185D01*
X100420662Y-127967187D01*
X100271342Y-128059289D01*
X100147289Y-128183342D01*
X100055187Y-128332662D01*
X100055186Y-128332665D01*
X100000001Y-128499202D01*
X100000001Y-128499203D01*
X100000000Y-128499203D01*
X99989500Y-128601982D01*
X99989500Y-131202017D01*
X100000000Y-131304796D01*
X100055185Y-131471332D01*
X100055187Y-131471337D01*
X100061714Y-131481919D01*
X100147288Y-131620656D01*
X100271344Y-131744712D01*
X100420665Y-131836814D01*
X100587202Y-131891999D01*
X100689990Y-131902500D01*
X100689995Y-131902500D01*
X103290005Y-131902500D01*
X103290010Y-131902500D01*
X103392798Y-131891999D01*
X103559335Y-131836814D01*
X103708656Y-131744712D01*
X103832712Y-131620656D01*
X103924814Y-131471335D01*
X103979999Y-131304798D01*
X103990500Y-131202010D01*
X103990500Y-129014230D01*
X104010185Y-128947191D01*
X104026819Y-128926549D01*
X109565249Y-123388119D01*
X109626572Y-123354634D01*
X109652930Y-123351800D01*
X111757359Y-123351800D01*
X111824398Y-123371485D01*
X111870153Y-123424289D01*
X111880097Y-123493447D01*
X111851072Y-123557003D01*
X111845040Y-123563481D01*
X111812613Y-123595907D01*
X111812610Y-123595911D01*
X111725009Y-123727014D01*
X111725002Y-123727027D01*
X111664664Y-123872698D01*
X111664661Y-123872710D01*
X111633900Y-124027353D01*
X111633900Y-124185046D01*
X111664661Y-124339689D01*
X111664664Y-124339701D01*
X111725002Y-124485372D01*
X111725009Y-124485385D01*
X111812610Y-124616488D01*
X111812613Y-124616492D01*
X111924107Y-124727986D01*
X111924111Y-124727989D01*
X112055214Y-124815590D01*
X112055227Y-124815597D01*
X112172480Y-124864164D01*
X112200903Y-124875937D01*
X112300062Y-124895661D01*
X112355553Y-124906699D01*
X112355556Y-124906700D01*
X112355558Y-124906700D01*
X112513244Y-124906700D01*
X112513245Y-124906699D01*
X112667897Y-124875937D01*
X112740320Y-124845938D01*
X112787771Y-124836500D01*
X114652770Y-124836500D01*
X114719809Y-124856185D01*
X114740451Y-124872819D01*
X115463586Y-125595954D01*
X115485686Y-125610719D01*
X115537270Y-125645186D01*
X115586505Y-125678084D01*
X115606342Y-125686300D01*
X115614132Y-125690958D01*
X115631932Y-125710206D01*
X115652354Y-125726662D01*
X115655280Y-125735453D01*
X115661570Y-125742255D01*
X115666138Y-125768073D01*
X115674421Y-125792956D01*
X115674500Y-125797386D01*
X115674500Y-126310870D01*
X115674501Y-126310871D01*
X115680908Y-126370483D01*
X115728532Y-126498167D01*
X115733516Y-126567858D01*
X115700031Y-126629182D01*
X115638708Y-126662666D01*
X115612350Y-126665500D01*
X108391080Y-126665500D01*
X108246092Y-126694340D01*
X108246082Y-126694343D01*
X108109511Y-126750912D01*
X108109498Y-126750919D01*
X107986584Y-126833048D01*
X107986580Y-126833051D01*
X106135050Y-128684580D01*
X106135044Y-128684588D01*
X106085812Y-128758268D01*
X106085813Y-128758269D01*
X106052921Y-128807496D01*
X106052914Y-128807508D01*
X105996342Y-128944086D01*
X105996340Y-128944092D01*
X105967500Y-129089079D01*
X105967500Y-132743500D01*
X105947815Y-132810539D01*
X105895011Y-132856294D01*
X105843505Y-132867500D01*
X105820132Y-132867500D01*
X105820123Y-132867501D01*
X105760516Y-132873908D01*
X105625671Y-132924202D01*
X105625664Y-132924206D01*
X105510455Y-133010452D01*
X105510452Y-133010455D01*
X105424206Y-133125664D01*
X105424202Y-133125671D01*
X105373908Y-133260517D01*
X105368407Y-133311690D01*
X105367501Y-133320123D01*
X105367500Y-133320135D01*
X105367500Y-133330690D01*
X105347815Y-133397729D01*
X105331181Y-133418371D01*
X104660962Y-134088590D01*
X104643925Y-134025007D01*
X104578099Y-133910993D01*
X104485007Y-133817901D01*
X104370993Y-133752075D01*
X104307409Y-133735037D01*
X104939716Y-133102728D01*
X104885550Y-133063375D01*
X104696217Y-132966904D01*
X104494129Y-132901242D01*
X104284246Y-132868000D01*
X104071754Y-132868000D01*
X103861872Y-132901242D01*
X103861869Y-132901242D01*
X103659782Y-132966904D01*
X103470439Y-133063380D01*
X103416282Y-133102727D01*
X103416282Y-133102728D01*
X104048591Y-133735037D01*
X103985007Y-133752075D01*
X103870993Y-133817901D01*
X103777901Y-133910993D01*
X103712075Y-134025007D01*
X103695037Y-134088591D01*
X103062728Y-133456282D01*
X103062727Y-133456282D01*
X103023380Y-133510440D01*
X103023376Y-133510446D01*
X103018760Y-133519505D01*
X102970781Y-133570297D01*
X102902959Y-133587087D01*
X102836826Y-133564543D01*
X102797794Y-133519493D01*
X102793051Y-133510184D01*
X102793049Y-133510181D01*
X102793048Y-133510179D01*
X102668109Y-133338213D01*
X102517786Y-133187890D01*
X102345820Y-133062951D01*
X102156414Y-132966444D01*
X102156413Y-132966443D01*
X102156412Y-132966443D01*
X101954243Y-132900754D01*
X101954241Y-132900753D01*
X101954240Y-132900753D01*
X101792957Y-132875208D01*
X101744287Y-132867500D01*
X101531713Y-132867500D01*
X101483042Y-132875208D01*
X101321760Y-132900753D01*
X101119585Y-132966444D01*
X100930179Y-133062951D01*
X100758213Y-133187890D01*
X100607890Y-133338213D01*
X100482949Y-133510182D01*
X100478484Y-133518946D01*
X100430509Y-133569742D01*
X100362688Y-133586536D01*
X100296553Y-133563998D01*
X100257516Y-133518946D01*
X100253050Y-133510182D01*
X100128109Y-133338213D01*
X99977786Y-133187890D01*
X99805820Y-133062951D01*
X99616414Y-132966444D01*
X99616413Y-132966443D01*
X99616412Y-132966443D01*
X99414243Y-132900754D01*
X99414241Y-132900753D01*
X99414240Y-132900753D01*
X99252957Y-132875208D01*
X99204287Y-132867500D01*
X98991713Y-132867500D01*
X98943042Y-132875208D01*
X98781760Y-132900753D01*
X98579585Y-132966444D01*
X98390179Y-133062951D01*
X98218213Y-133187890D01*
X98067894Y-133338209D01*
X98067890Y-133338214D01*
X97990611Y-133444581D01*
X97935282Y-133487247D01*
X97865668Y-133493226D01*
X97803873Y-133460621D01*
X97802612Y-133459377D01*
X89993974Y-125650739D01*
X89960489Y-125589416D01*
X89960038Y-125587249D01*
X89929138Y-125431910D01*
X89929137Y-125431903D01*
X89916092Y-125400410D01*
X89868797Y-125286227D01*
X89868790Y-125286214D01*
X89781189Y-125155111D01*
X89781186Y-125155107D01*
X89669692Y-125043613D01*
X89669688Y-125043610D01*
X89538585Y-124956009D01*
X89538572Y-124956002D01*
X89392901Y-124895664D01*
X89392889Y-124895661D01*
X89238245Y-124864900D01*
X89238242Y-124864900D01*
X89080558Y-124864900D01*
X89080555Y-124864900D01*
X88925910Y-124895661D01*
X88925898Y-124895664D01*
X88780227Y-124956002D01*
X88780214Y-124956009D01*
X88649111Y-125043610D01*
X88649107Y-125043613D01*
X88537613Y-125155107D01*
X88537610Y-125155111D01*
X88450009Y-125286214D01*
X88450002Y-125286227D01*
X88389664Y-125431898D01*
X88389661Y-125431910D01*
X88358900Y-125586553D01*
X88358900Y-125744246D01*
X88389661Y-125898889D01*
X88389664Y-125898901D01*
X88450002Y-126044572D01*
X88450009Y-126044585D01*
X88537610Y-126175688D01*
X88537613Y-126175692D01*
X88649107Y-126287186D01*
X88649111Y-126287189D01*
X88780214Y-126374790D01*
X88780227Y-126374797D01*
X88924121Y-126434399D01*
X88925903Y-126435137D01*
X88990547Y-126447995D01*
X89081249Y-126466038D01*
X89143160Y-126498423D01*
X89144739Y-126499974D01*
X97227139Y-134582374D01*
X97227149Y-134582385D01*
X97231479Y-134586715D01*
X97231480Y-134586716D01*
X97343284Y-134698520D01*
X97408917Y-134736412D01*
X97430095Y-134748639D01*
X97430097Y-134748641D01*
X97468151Y-134770611D01*
X97480215Y-134777577D01*
X97632943Y-134818501D01*
X97632946Y-134818501D01*
X97798653Y-134818501D01*
X97798669Y-134818500D01*
X97812281Y-134818500D01*
X97879320Y-134838185D01*
X97922765Y-134886205D01*
X97942945Y-134925810D01*
X97942948Y-134925814D01*
X97942948Y-134925815D01*
X98069220Y-135099615D01*
X98092699Y-135165422D01*
X98076873Y-135233476D01*
X98026767Y-135282170D01*
X97968901Y-135296500D01*
X84169929Y-135296500D01*
X84102890Y-135276815D01*
X84082248Y-135260181D01*
X82438115Y-133616047D01*
X82438113Y-133616045D01*
X82388879Y-133583150D01*
X82356055Y-133561218D01*
X82315195Y-133533916D01*
X82315194Y-133533915D01*
X82315192Y-133533914D01*
X82315190Y-133533913D01*
X82178617Y-133477343D01*
X82178608Y-133477340D01*
X82108306Y-133463356D01*
X82046396Y-133430970D01*
X82011822Y-133370254D01*
X82008499Y-133341739D01*
X82008499Y-133301129D01*
X82008498Y-133301123D01*
X82008497Y-133301116D01*
X82002091Y-133241517D01*
X81982089Y-133187890D01*
X81951797Y-133106671D01*
X81951793Y-133106664D01*
X81865547Y-132991455D01*
X81865544Y-132991452D01*
X81750335Y-132905206D01*
X81750328Y-132905202D01*
X81615482Y-132854908D01*
X81615483Y-132854908D01*
X81555883Y-132848501D01*
X81555881Y-132848500D01*
X81555873Y-132848500D01*
X81555864Y-132848500D01*
X79760129Y-132848500D01*
X79760123Y-132848501D01*
X79700516Y-132854908D01*
X79565671Y-132905202D01*
X79565664Y-132905206D01*
X79450455Y-132991452D01*
X79450452Y-132991455D01*
X79364206Y-133106664D01*
X79364202Y-133106671D01*
X79313908Y-133241517D01*
X79307501Y-133301116D01*
X79307501Y-133301123D01*
X79307500Y-133301135D01*
X79307500Y-133311690D01*
X79287815Y-133378729D01*
X79271181Y-133399371D01*
X78600962Y-134069590D01*
X78583925Y-134006007D01*
X78518099Y-133891993D01*
X78425007Y-133798901D01*
X78310993Y-133733075D01*
X78247409Y-133716037D01*
X78879716Y-133083728D01*
X78825550Y-133044375D01*
X78636217Y-132947904D01*
X78434129Y-132882242D01*
X78224246Y-132849000D01*
X78011754Y-132849000D01*
X77801872Y-132882242D01*
X77801869Y-132882242D01*
X77599782Y-132947904D01*
X77410439Y-133044380D01*
X77356282Y-133083727D01*
X77356282Y-133083728D01*
X77988591Y-133716037D01*
X77925007Y-133733075D01*
X77810993Y-133798901D01*
X77717901Y-133891993D01*
X77652075Y-134006007D01*
X77635037Y-134069591D01*
X77002728Y-133437282D01*
X77002727Y-133437282D01*
X76963380Y-133491440D01*
X76963376Y-133491446D01*
X76958760Y-133500505D01*
X76910781Y-133551297D01*
X76842959Y-133568087D01*
X76776826Y-133545543D01*
X76737794Y-133500493D01*
X76733051Y-133491184D01*
X76733049Y-133491181D01*
X76733048Y-133491179D01*
X76608109Y-133319213D01*
X76457786Y-133168890D01*
X76285820Y-133043951D01*
X76096414Y-132947444D01*
X76096413Y-132947443D01*
X76096412Y-132947443D01*
X75894243Y-132881754D01*
X75894241Y-132881753D01*
X75894240Y-132881753D01*
X75732957Y-132856208D01*
X75684287Y-132848500D01*
X75471713Y-132848500D01*
X75423042Y-132856208D01*
X75261760Y-132881753D01*
X75059585Y-132947444D01*
X74870179Y-133043951D01*
X74698213Y-133168890D01*
X74547890Y-133319213D01*
X74422949Y-133491182D01*
X74418484Y-133499946D01*
X74370509Y-133550742D01*
X74302688Y-133567536D01*
X74236553Y-133544998D01*
X74197516Y-133499946D01*
X74193050Y-133491182D01*
X74068109Y-133319213D01*
X73917786Y-133168890D01*
X73745820Y-133043951D01*
X73556414Y-132947444D01*
X73556413Y-132947443D01*
X73556412Y-132947443D01*
X73354243Y-132881754D01*
X73354241Y-132881753D01*
X73354240Y-132881753D01*
X73192957Y-132856208D01*
X73144287Y-132848500D01*
X72931713Y-132848500D01*
X72883042Y-132856208D01*
X72721760Y-132881753D01*
X72519585Y-132947444D01*
X72330179Y-133043951D01*
X72158213Y-133168890D01*
X72007890Y-133319213D01*
X71882951Y-133491179D01*
X71786444Y-133680585D01*
X71786443Y-133680587D01*
X71786443Y-133680588D01*
X71774287Y-133718000D01*
X71720753Y-133882760D01*
X71688272Y-134087840D01*
X71687500Y-134092713D01*
X71687500Y-134305287D01*
X71720754Y-134515243D01*
X71775562Y-134683925D01*
X71786444Y-134717414D01*
X71882951Y-134906820D01*
X72007890Y-135078786D01*
X72158213Y-135229109D01*
X72330179Y-135354048D01*
X72330181Y-135354049D01*
X72330184Y-135354051D01*
X72519588Y-135450557D01*
X72721757Y-135516246D01*
X72931713Y-135549500D01*
X72931714Y-135549500D01*
X73144286Y-135549500D01*
X73144287Y-135549500D01*
X73354243Y-135516246D01*
X73556412Y-135450557D01*
X73745816Y-135354051D01*
X73767789Y-135338086D01*
X73917786Y-135229109D01*
X73917788Y-135229106D01*
X73917792Y-135229104D01*
X74068104Y-135078792D01*
X74068106Y-135078788D01*
X74068109Y-135078786D01*
X74193048Y-134906820D01*
X74193047Y-134906820D01*
X74193051Y-134906816D01*
X74197514Y-134898054D01*
X74245488Y-134847259D01*
X74313308Y-134830463D01*
X74379444Y-134852999D01*
X74418486Y-134898056D01*
X74422951Y-134906820D01*
X74547890Y-135078786D01*
X74698213Y-135229109D01*
X74870179Y-135354048D01*
X74870181Y-135354049D01*
X74870184Y-135354051D01*
X75059588Y-135450557D01*
X75261757Y-135516246D01*
X75471713Y-135549500D01*
X75471714Y-135549500D01*
X75684286Y-135549500D01*
X75684287Y-135549500D01*
X75894243Y-135516246D01*
X76096412Y-135450557D01*
X76285816Y-135354051D01*
X76307789Y-135338086D01*
X76457786Y-135229109D01*
X76457788Y-135229106D01*
X76457792Y-135229104D01*
X76608104Y-135078792D01*
X76608106Y-135078788D01*
X76608109Y-135078786D01*
X76680086Y-134979716D01*
X76733051Y-134906816D01*
X76737793Y-134897508D01*
X76785763Y-134846711D01*
X76853583Y-134829911D01*
X76919719Y-134852445D01*
X76958763Y-134897500D01*
X76963373Y-134906547D01*
X77002728Y-134960716D01*
X77635037Y-134328408D01*
X77652075Y-134391993D01*
X77717901Y-134506007D01*
X77810993Y-134599099D01*
X77925007Y-134664925D01*
X77988590Y-134681962D01*
X77356282Y-135314269D01*
X77356282Y-135314270D01*
X77410449Y-135353624D01*
X77599782Y-135450095D01*
X77801870Y-135515757D01*
X78011754Y-135549000D01*
X78224246Y-135549000D01*
X78434127Y-135515757D01*
X78434130Y-135515757D01*
X78636217Y-135450095D01*
X78825554Y-135353622D01*
X78879716Y-135314270D01*
X78879717Y-135314270D01*
X78247408Y-134681962D01*
X78310993Y-134664925D01*
X78425007Y-134599099D01*
X78518099Y-134506007D01*
X78583925Y-134391993D01*
X78600962Y-134328408D01*
X79271181Y-134998628D01*
X79304666Y-135059951D01*
X79307500Y-135086300D01*
X79307500Y-135096865D01*
X79307501Y-135096876D01*
X79313908Y-135156483D01*
X79364202Y-135291328D01*
X79364206Y-135291335D01*
X79450452Y-135406544D01*
X79450455Y-135406547D01*
X79565664Y-135492793D01*
X79565671Y-135492797D01*
X79700517Y-135543091D01*
X79700516Y-135543091D01*
X79707444Y-135543835D01*
X79760127Y-135549500D01*
X81555872Y-135549499D01*
X81615483Y-135543091D01*
X81750331Y-135492796D01*
X81865546Y-135406546D01*
X81882676Y-135383662D01*
X81938609Y-135341791D01*
X82008301Y-135336807D01*
X82069624Y-135370292D01*
X83224749Y-136525416D01*
X83329284Y-136629951D01*
X83329287Y-136629953D01*
X83329288Y-136629954D01*
X83452203Y-136712083D01*
X83452206Y-136712085D01*
X83502365Y-136732861D01*
X83508780Y-136735518D01*
X83588788Y-136768659D01*
X83704941Y-136791763D01*
X83728080Y-136796365D01*
X83733781Y-136797500D01*
X83733782Y-136797500D01*
X104962920Y-136797500D01*
X105060462Y-136778096D01*
X105107913Y-136768658D01*
X105244495Y-136712084D01*
X105293729Y-136679186D01*
X105367416Y-136629952D01*
X106392548Y-135604817D01*
X106453871Y-135571333D01*
X106480229Y-135568499D01*
X107615871Y-135568499D01*
X107615872Y-135568499D01*
X107675483Y-135562091D01*
X107810331Y-135511796D01*
X107925546Y-135425546D01*
X108011796Y-135310331D01*
X108062091Y-135175483D01*
X108068500Y-135115873D01*
X108068499Y-133320128D01*
X108062091Y-133260517D01*
X108055004Y-133241517D01*
X108011797Y-133125671D01*
X108011793Y-133125664D01*
X107925547Y-133010455D01*
X107925544Y-133010452D01*
X107810335Y-132924206D01*
X107810328Y-132924202D01*
X107675482Y-132873908D01*
X107675483Y-132873908D01*
X107615883Y-132867501D01*
X107615881Y-132867500D01*
X107615873Y-132867500D01*
X107615865Y-132867500D01*
X107592500Y-132867500D01*
X107525461Y-132847815D01*
X107479706Y-132795011D01*
X107468500Y-132743500D01*
X107468500Y-129525229D01*
X107488185Y-129458190D01*
X107504819Y-129437548D01*
X108739548Y-128202819D01*
X108800871Y-128169334D01*
X108827229Y-128166500D01*
X113295852Y-128166500D01*
X113362891Y-128186185D01*
X113408646Y-128238989D01*
X113418590Y-128308147D01*
X113413783Y-128328818D01*
X113363325Y-128484110D01*
X113334000Y-128669260D01*
X113334000Y-128856739D01*
X113359148Y-129015517D01*
X113363326Y-129041893D01*
X113404539Y-129168734D01*
X113421258Y-129220187D01*
X113472861Y-129321464D01*
X113485757Y-129390133D01*
X113459481Y-129454874D01*
X113402374Y-129495131D01*
X113362247Y-129501759D01*
X110955829Y-129499252D01*
X110954722Y-129499246D01*
X110859508Y-129498296D01*
X110853176Y-129498233D01*
X110853175Y-129498233D01*
X110853172Y-129498233D01*
X110853166Y-129498233D01*
X110646976Y-129525928D01*
X110646966Y-129525930D01*
X110446897Y-129582968D01*
X110446888Y-129582972D01*
X110257098Y-129668166D01*
X110257089Y-129668171D01*
X110081498Y-129779765D01*
X110081487Y-129779773D01*
X109923765Y-129915434D01*
X109787165Y-130072364D01*
X109674537Y-130247293D01*
X109674536Y-130247295D01*
X109636176Y-130331419D01*
X109588215Y-130436597D01*
X109529994Y-130636337D01*
X109503237Y-130827011D01*
X109501081Y-130842372D01*
X109501499Y-130944606D01*
X109501500Y-130945112D01*
X109501585Y-139376614D01*
X109481901Y-139443653D01*
X109429098Y-139489409D01*
X109377586Y-139500615D01*
X70624560Y-139500794D01*
X70557520Y-139481110D01*
X70511765Y-139428306D01*
X70500559Y-139376793D01*
X70500559Y-139376614D01*
X70500646Y-130943571D01*
X70501054Y-130842604D01*
X70472134Y-130636578D01*
X70413909Y-130436846D01*
X70413907Y-130436841D01*
X70327593Y-130247567D01*
X70327583Y-130247548D01*
X70214959Y-130072631D01*
X70078369Y-129915711D01*
X70018282Y-129864029D01*
X69978244Y-129829591D01*
X69920639Y-129780042D01*
X69920632Y-129780037D01*
X69906263Y-129770905D01*
X87290000Y-129770905D01*
X87290000Y-130033094D01*
X87324220Y-130293009D01*
X87324222Y-130293020D01*
X87392075Y-130546255D01*
X87492404Y-130788471D01*
X87492409Y-130788482D01*
X87623488Y-131015516D01*
X87623494Y-131015524D01*
X87710080Y-131128365D01*
X88766212Y-130072233D01*
X88777482Y-130114292D01*
X88849890Y-130239708D01*
X88952292Y-130342110D01*
X89077708Y-130414518D01*
X89119765Y-130425787D01*
X88063633Y-131481917D01*
X88063633Y-131481918D01*
X88176475Y-131568505D01*
X88176483Y-131568511D01*
X88403517Y-131699590D01*
X88403528Y-131699595D01*
X88645744Y-131799924D01*
X88898979Y-131867777D01*
X88898990Y-131867779D01*
X89158905Y-131901999D01*
X89158920Y-131902000D01*
X89421080Y-131902000D01*
X89421094Y-131901999D01*
X89681009Y-131867779D01*
X89681020Y-131867777D01*
X89934255Y-131799924D01*
X90176471Y-131699595D01*
X90176482Y-131699590D01*
X90403516Y-131568511D01*
X90403534Y-131568499D01*
X90516365Y-131481919D01*
X90516365Y-131481917D01*
X89460234Y-130425787D01*
X89502292Y-130414518D01*
X89627708Y-130342110D01*
X89730110Y-130239708D01*
X89802518Y-130114292D01*
X89813787Y-130072234D01*
X90869917Y-131128365D01*
X90869919Y-131128365D01*
X90956499Y-131015534D01*
X90956511Y-131015516D01*
X91087590Y-130788482D01*
X91087595Y-130788471D01*
X91187924Y-130546255D01*
X91255777Y-130293020D01*
X91255779Y-130293009D01*
X91289999Y-130033094D01*
X91290000Y-130033080D01*
X91290000Y-129770919D01*
X91289999Y-129770905D01*
X91255779Y-129510990D01*
X91255777Y-129510979D01*
X91187924Y-129257744D01*
X91087595Y-129015528D01*
X91087590Y-129015517D01*
X90956511Y-128788483D01*
X90956505Y-128788475D01*
X90869918Y-128675633D01*
X90869917Y-128675633D01*
X89813787Y-129731764D01*
X89802518Y-129689708D01*
X89730110Y-129564292D01*
X89627708Y-129461890D01*
X89502292Y-129389482D01*
X89460232Y-129378212D01*
X90516365Y-128322080D01*
X90403524Y-128235494D01*
X90403516Y-128235488D01*
X90176482Y-128104409D01*
X90176471Y-128104404D01*
X89934255Y-128004075D01*
X89681020Y-127936222D01*
X89681009Y-127936220D01*
X89421094Y-127902000D01*
X89158905Y-127902000D01*
X88898990Y-127936220D01*
X88898979Y-127936222D01*
X88645744Y-128004075D01*
X88403528Y-128104404D01*
X88403517Y-128104409D01*
X88176471Y-128235496D01*
X88063633Y-128322079D01*
X88063633Y-128322080D01*
X89119765Y-129378212D01*
X89077708Y-129389482D01*
X88952292Y-129461890D01*
X88849890Y-129564292D01*
X88777482Y-129689708D01*
X88766212Y-129731765D01*
X87710080Y-128675633D01*
X87710079Y-128675633D01*
X87623496Y-128788471D01*
X87492409Y-129015517D01*
X87492404Y-129015528D01*
X87392075Y-129257744D01*
X87324222Y-129510979D01*
X87324220Y-129510990D01*
X87290000Y-129770905D01*
X69906263Y-129770905D01*
X69745057Y-129668451D01*
X69745048Y-129668445D01*
X69555260Y-129583247D01*
X69555256Y-129583246D01*
X69355191Y-129526202D01*
X69353167Y-129525930D01*
X69148991Y-129498497D01*
X69148987Y-129498497D01*
X69048538Y-129499495D01*
X69047303Y-129499501D01*
X41222999Y-129498901D01*
X41155960Y-129479215D01*
X41110207Y-129426410D01*
X41100265Y-129357251D01*
X41122490Y-129302284D01*
X46538586Y-121806153D01*
X64208500Y-121806153D01*
X64208500Y-121963846D01*
X64239261Y-122118489D01*
X64239264Y-122118501D01*
X64299602Y-122264172D01*
X64299609Y-122264185D01*
X64387210Y-122395288D01*
X64387213Y-122395292D01*
X64498707Y-122506786D01*
X64498711Y-122506789D01*
X64629814Y-122594390D01*
X64629827Y-122594397D01*
X64694324Y-122621112D01*
X64775503Y-122654737D01*
X64930153Y-122685499D01*
X64930156Y-122685500D01*
X64930158Y-122685500D01*
X65087844Y-122685500D01*
X65087845Y-122685499D01*
X65242497Y-122654737D01*
X65388179Y-122594394D01*
X65519289Y-122506789D01*
X65630789Y-122395289D01*
X65718394Y-122264179D01*
X65778737Y-122118497D01*
X65798658Y-122018348D01*
X65809638Y-121963150D01*
X65842023Y-121901239D01*
X65843518Y-121899716D01*
X67357781Y-120385453D01*
X78932200Y-120385453D01*
X78932200Y-120543146D01*
X78962961Y-120697789D01*
X78962964Y-120697801D01*
X79023302Y-120843472D01*
X79023309Y-120843485D01*
X79110910Y-120974588D01*
X79110913Y-120974592D01*
X79222407Y-121086086D01*
X79222411Y-121086089D01*
X79353514Y-121173690D01*
X79353527Y-121173697D01*
X79499198Y-121234035D01*
X79499203Y-121234037D01*
X79645865Y-121263210D01*
X79653853Y-121264799D01*
X79653856Y-121264800D01*
X79653858Y-121264800D01*
X79811544Y-121264800D01*
X79811545Y-121264799D01*
X79863093Y-121254545D01*
X79966189Y-121234039D01*
X79966192Y-121234037D01*
X79966197Y-121234037D01*
X79966200Y-121234035D01*
X79970138Y-121232841D01*
X80006139Y-121227500D01*
X84212934Y-121227500D01*
X84279973Y-121247185D01*
X84281825Y-121248398D01*
X84413514Y-121336390D01*
X84413527Y-121336397D01*
X84506017Y-121374707D01*
X84559203Y-121396737D01*
X84713853Y-121427499D01*
X84713856Y-121427500D01*
X84713858Y-121427500D01*
X84871544Y-121427500D01*
X84871545Y-121427499D01*
X85026197Y-121396737D01*
X85171879Y-121336394D01*
X85302989Y-121248789D01*
X85414489Y-121137289D01*
X85502094Y-121006179D01*
X85562437Y-120860497D01*
X85593200Y-120705842D01*
X85593200Y-120548158D01*
X85593200Y-120548155D01*
X85593199Y-120548153D01*
X85562438Y-120393510D01*
X85562437Y-120393503D01*
X85559103Y-120385453D01*
X85502097Y-120247827D01*
X85502090Y-120247814D01*
X85414489Y-120116711D01*
X85414486Y-120116707D01*
X85302992Y-120005213D01*
X85302988Y-120005210D01*
X85171885Y-119917609D01*
X85171872Y-119917602D01*
X85026201Y-119857264D01*
X85026189Y-119857261D01*
X84871545Y-119826500D01*
X84871542Y-119826500D01*
X84713858Y-119826500D01*
X84713855Y-119826500D01*
X84559210Y-119857261D01*
X84559198Y-119857264D01*
X84413527Y-119917602D01*
X84413514Y-119917609D01*
X84281825Y-120005602D01*
X84215147Y-120026480D01*
X84212934Y-120026500D01*
X80469204Y-120026500D01*
X80402165Y-120006815D01*
X80366101Y-119971390D01*
X80354487Y-119954008D01*
X80242992Y-119842513D01*
X80242988Y-119842510D01*
X80111885Y-119754909D01*
X80111872Y-119754902D01*
X79966201Y-119694564D01*
X79966189Y-119694561D01*
X79811545Y-119663800D01*
X79811542Y-119663800D01*
X79653858Y-119663800D01*
X79653855Y-119663800D01*
X79499210Y-119694561D01*
X79499198Y-119694564D01*
X79353527Y-119754902D01*
X79353514Y-119754909D01*
X79222411Y-119842510D01*
X79222407Y-119842513D01*
X79110913Y-119954007D01*
X79110910Y-119954011D01*
X79023309Y-120085114D01*
X79023302Y-120085127D01*
X78962964Y-120230798D01*
X78962961Y-120230810D01*
X78932200Y-120385453D01*
X67357781Y-120385453D01*
X68546581Y-119196653D01*
X88143900Y-119196653D01*
X88143900Y-119354346D01*
X88174661Y-119508989D01*
X88174664Y-119509001D01*
X88235002Y-119654672D01*
X88235009Y-119654685D01*
X88322610Y-119785788D01*
X88322613Y-119785792D01*
X88434110Y-119897289D01*
X88518995Y-119954007D01*
X88565221Y-119984894D01*
X88588875Y-119994691D01*
X88629103Y-120021571D01*
X94719849Y-126112316D01*
X94824384Y-126216851D01*
X94824387Y-126216853D01*
X94824388Y-126216854D01*
X94947294Y-126298977D01*
X94947296Y-126298978D01*
X94947305Y-126298984D01*
X94976006Y-126310872D01*
X94976007Y-126310873D01*
X94976008Y-126310873D01*
X95083888Y-126355559D01*
X95200041Y-126378663D01*
X95219268Y-126382487D01*
X95228881Y-126384400D01*
X95228882Y-126384400D01*
X95228883Y-126384400D01*
X95376718Y-126384400D01*
X96502396Y-126384400D01*
X96549844Y-126393837D01*
X96573503Y-126403637D01*
X96573508Y-126403638D01*
X96573511Y-126403639D01*
X96728153Y-126434399D01*
X96728156Y-126434400D01*
X96728158Y-126434400D01*
X96885844Y-126434400D01*
X96885845Y-126434399D01*
X97040497Y-126403637D01*
X97186179Y-126343294D01*
X97317289Y-126255689D01*
X97428789Y-126144189D01*
X97516394Y-126013079D01*
X97576737Y-125867397D01*
X97607500Y-125712742D01*
X97607500Y-125555058D01*
X97607500Y-125555055D01*
X97607499Y-125555053D01*
X97583004Y-125431910D01*
X97576737Y-125400403D01*
X97576735Y-125400398D01*
X97516397Y-125254727D01*
X97516390Y-125254714D01*
X97428789Y-125123611D01*
X97428786Y-125123607D01*
X97317292Y-125012113D01*
X97317288Y-125012110D01*
X97186185Y-124924509D01*
X97186172Y-124924502D01*
X97040501Y-124864164D01*
X97040489Y-124864161D01*
X96885845Y-124833400D01*
X96885842Y-124833400D01*
X96728158Y-124833400D01*
X96728155Y-124833400D01*
X96573511Y-124864160D01*
X96573506Y-124864162D01*
X96573504Y-124864162D01*
X96573503Y-124864163D01*
X96549844Y-124873962D01*
X96502396Y-124883400D01*
X95665029Y-124883400D01*
X95597990Y-124863715D01*
X95577348Y-124847081D01*
X89690471Y-118960203D01*
X89663591Y-118919975D01*
X89653794Y-118896321D01*
X89606405Y-118825398D01*
X89566189Y-118765210D01*
X89454692Y-118653713D01*
X89454688Y-118653710D01*
X89323585Y-118566109D01*
X89323572Y-118566102D01*
X89177901Y-118505764D01*
X89177889Y-118505761D01*
X89023245Y-118475000D01*
X89023242Y-118475000D01*
X88865558Y-118475000D01*
X88865555Y-118475000D01*
X88710910Y-118505761D01*
X88710898Y-118505764D01*
X88565227Y-118566102D01*
X88565214Y-118566109D01*
X88434111Y-118653710D01*
X88434107Y-118653713D01*
X88322613Y-118765207D01*
X88322610Y-118765211D01*
X88235009Y-118896314D01*
X88235002Y-118896327D01*
X88174664Y-119041998D01*
X88174661Y-119042010D01*
X88143900Y-119196653D01*
X68546581Y-119196653D01*
X70040416Y-117702819D01*
X70101739Y-117669334D01*
X70128097Y-117666500D01*
X73314234Y-117666500D01*
X73381273Y-117686185D01*
X73383125Y-117687398D01*
X73514814Y-117775390D01*
X73514827Y-117775397D01*
X73660498Y-117835735D01*
X73660503Y-117835737D01*
X73815153Y-117866499D01*
X73815156Y-117866500D01*
X73815158Y-117866500D01*
X73972844Y-117866500D01*
X73972845Y-117866499D01*
X74127497Y-117835737D01*
X74273179Y-117775394D01*
X74404289Y-117687789D01*
X74515789Y-117576289D01*
X74603394Y-117445179D01*
X74663737Y-117299497D01*
X74694500Y-117144842D01*
X74694500Y-116987158D01*
X74694500Y-116987155D01*
X74694499Y-116987153D01*
X74676844Y-116898397D01*
X74663737Y-116832503D01*
X74608560Y-116699292D01*
X74603397Y-116686827D01*
X74603390Y-116686814D01*
X74515789Y-116555711D01*
X74515786Y-116555707D01*
X74404292Y-116444213D01*
X74404288Y-116444210D01*
X74273185Y-116356609D01*
X74273172Y-116356602D01*
X74127501Y-116296264D01*
X74127489Y-116296261D01*
X73972845Y-116265500D01*
X73972842Y-116265500D01*
X73815158Y-116265500D01*
X73815155Y-116265500D01*
X73660510Y-116296261D01*
X73660498Y-116296264D01*
X73514827Y-116356602D01*
X73514814Y-116356609D01*
X73383125Y-116444602D01*
X73316447Y-116465480D01*
X73314234Y-116465500D01*
X69907057Y-116465500D01*
X69748943Y-116465500D01*
X69596215Y-116506423D01*
X69596214Y-116506423D01*
X69596212Y-116506424D01*
X69596209Y-116506425D01*
X69546096Y-116535359D01*
X69546095Y-116535360D01*
X69510853Y-116555707D01*
X69459285Y-116585479D01*
X69459282Y-116585481D01*
X64994339Y-121050425D01*
X64933016Y-121083910D01*
X64930850Y-121084361D01*
X64775508Y-121115261D01*
X64775498Y-121115264D01*
X64629827Y-121175602D01*
X64629814Y-121175609D01*
X64498711Y-121263210D01*
X64498707Y-121263213D01*
X64387213Y-121374707D01*
X64387210Y-121374711D01*
X64299609Y-121505814D01*
X64299602Y-121505827D01*
X64239264Y-121651498D01*
X64239261Y-121651510D01*
X64208500Y-121806153D01*
X46538586Y-121806153D01*
X55443053Y-109481953D01*
X69077700Y-109481953D01*
X69077700Y-109639646D01*
X69108461Y-109794289D01*
X69108464Y-109794301D01*
X69168802Y-109939972D01*
X69168809Y-109939985D01*
X69256410Y-110071088D01*
X69256413Y-110071092D01*
X69367907Y-110182586D01*
X69367911Y-110182589D01*
X69499014Y-110270190D01*
X69499027Y-110270197D01*
X69644698Y-110330535D01*
X69644703Y-110330537D01*
X69799353Y-110361299D01*
X69799356Y-110361300D01*
X69799358Y-110361300D01*
X69957044Y-110361300D01*
X69957045Y-110361299D01*
X70111697Y-110330537D01*
X70257379Y-110270194D01*
X70388489Y-110182589D01*
X70499989Y-110071089D01*
X70587594Y-109939979D01*
X70647937Y-109794297D01*
X70673847Y-109664039D01*
X70678838Y-109638950D01*
X70711223Y-109577039D01*
X70712721Y-109575513D01*
X70995554Y-109292679D01*
X71056877Y-109259195D01*
X71126569Y-109264179D01*
X71182502Y-109306051D01*
X71205830Y-109368596D01*
X71206638Y-109368517D01*
X71207235Y-109374581D01*
X71237996Y-109529224D01*
X71237999Y-109529236D01*
X71298337Y-109674907D01*
X71298344Y-109674920D01*
X71385945Y-109806023D01*
X71385948Y-109806027D01*
X71497442Y-109917521D01*
X71497446Y-109917524D01*
X71628549Y-110005125D01*
X71628562Y-110005132D01*
X71755921Y-110057885D01*
X71774238Y-110065472D01*
X71838882Y-110078330D01*
X71929584Y-110096373D01*
X71991495Y-110128758D01*
X71993072Y-110130307D01*
X73001284Y-111138520D01*
X73001286Y-111138521D01*
X73001290Y-111138524D01*
X73138209Y-111217573D01*
X73138216Y-111217577D01*
X73290943Y-111258501D01*
X73290945Y-111258501D01*
X73456654Y-111258501D01*
X73456670Y-111258500D01*
X75025234Y-111258500D01*
X75092273Y-111278185D01*
X75094125Y-111279398D01*
X75225814Y-111367390D01*
X75225827Y-111367397D01*
X75371498Y-111427735D01*
X75371503Y-111427737D01*
X75526153Y-111458499D01*
X75526156Y-111458500D01*
X75526158Y-111458500D01*
X75683844Y-111458500D01*
X75683845Y-111458499D01*
X75838497Y-111427737D01*
X75984179Y-111367394D01*
X76115289Y-111279789D01*
X76226789Y-111168289D01*
X76314394Y-111037179D01*
X76374737Y-110891497D01*
X76405500Y-110736842D01*
X76405638Y-110736150D01*
X76438023Y-110674239D01*
X76439518Y-110672716D01*
X80557416Y-106554819D01*
X80618739Y-106521334D01*
X80645097Y-106518500D01*
X89815234Y-106518500D01*
X89882273Y-106538185D01*
X89884125Y-106539398D01*
X90015814Y-106627390D01*
X90015827Y-106627397D01*
X90161498Y-106687735D01*
X90161503Y-106687737D01*
X90316153Y-106718499D01*
X90316156Y-106718500D01*
X90316158Y-106718500D01*
X90473844Y-106718500D01*
X90473845Y-106718499D01*
X90628497Y-106687737D01*
X90774179Y-106627394D01*
X90905289Y-106539789D01*
X91016789Y-106428289D01*
X91104394Y-106297179D01*
X91164737Y-106151497D01*
X91195500Y-105996842D01*
X91195500Y-105839158D01*
X91195500Y-105839155D01*
X91195499Y-105839153D01*
X91168866Y-105705257D01*
X91165264Y-105687153D01*
X94689500Y-105687153D01*
X94689500Y-105844846D01*
X94720261Y-105999489D01*
X94720264Y-105999501D01*
X94780602Y-106145172D01*
X94780609Y-106145185D01*
X94868210Y-106276288D01*
X94868213Y-106276292D01*
X94979707Y-106387786D01*
X94979711Y-106387789D01*
X95110814Y-106475390D01*
X95110827Y-106475397D01*
X95256498Y-106535735D01*
X95256503Y-106535737D01*
X95411153Y-106566499D01*
X95411156Y-106566500D01*
X95411158Y-106566500D01*
X95568844Y-106566500D01*
X95568845Y-106566499D01*
X95723497Y-106535737D01*
X95869179Y-106475394D01*
X96000289Y-106387789D01*
X96111789Y-106276289D01*
X96199394Y-106145179D01*
X96259737Y-105999497D01*
X96279113Y-105902085D01*
X96290638Y-105844150D01*
X96323023Y-105782239D01*
X96324518Y-105780716D01*
X96808416Y-105296819D01*
X96869739Y-105263334D01*
X96896097Y-105260500D01*
X104767234Y-105260500D01*
X104834273Y-105280185D01*
X104836125Y-105281398D01*
X104967814Y-105369390D01*
X104967827Y-105369397D01*
X105060317Y-105407707D01*
X105113503Y-105429737D01*
X105248044Y-105456499D01*
X105268153Y-105460499D01*
X105268156Y-105460500D01*
X105268158Y-105460500D01*
X105425844Y-105460500D01*
X105425845Y-105460499D01*
X105580497Y-105429737D01*
X105726179Y-105369394D01*
X105803874Y-105317480D01*
X105857875Y-105281398D01*
X105924553Y-105260520D01*
X105926766Y-105260500D01*
X108501939Y-105260500D01*
X108501943Y-105260501D01*
X108660057Y-105260501D01*
X108673751Y-105256831D01*
X108688796Y-105256526D01*
X108689553Y-105256731D01*
X108691313Y-105256500D01*
X112540234Y-105256500D01*
X112607273Y-105276185D01*
X112609125Y-105277398D01*
X112740814Y-105365390D01*
X112740827Y-105365397D01*
X112842974Y-105407707D01*
X112886503Y-105425737D01*
X113041153Y-105456499D01*
X113041156Y-105456500D01*
X113041158Y-105456500D01*
X113198844Y-105456500D01*
X113198845Y-105456499D01*
X113353497Y-105425737D01*
X113499179Y-105365394D01*
X113630289Y-105277789D01*
X113741789Y-105166289D01*
X113829394Y-105035179D01*
X113889737Y-104889497D01*
X113920500Y-104734842D01*
X113920500Y-104577158D01*
X113920500Y-104577155D01*
X113920499Y-104577153D01*
X113889738Y-104422510D01*
X113889737Y-104422503D01*
X113835385Y-104291284D01*
X113829397Y-104276827D01*
X113829390Y-104276814D01*
X113741789Y-104145711D01*
X113741786Y-104145707D01*
X113630292Y-104034213D01*
X113630288Y-104034210D01*
X113499185Y-103946609D01*
X113499172Y-103946602D01*
X113353501Y-103886264D01*
X113353489Y-103886261D01*
X113198845Y-103855500D01*
X113198842Y-103855500D01*
X113041158Y-103855500D01*
X113041155Y-103855500D01*
X112886510Y-103886261D01*
X112886498Y-103886264D01*
X112740827Y-103946602D01*
X112740814Y-103946609D01*
X112609125Y-104034602D01*
X112542447Y-104055480D01*
X112540234Y-104055500D01*
X108664061Y-104055500D01*
X108664057Y-104055499D01*
X108505943Y-104055499D01*
X108492248Y-104059168D01*
X108477204Y-104059474D01*
X108476446Y-104059268D01*
X108474687Y-104059500D01*
X105926766Y-104059500D01*
X105859727Y-104039815D01*
X105857875Y-104038602D01*
X105726185Y-103950609D01*
X105726172Y-103950602D01*
X105580501Y-103890264D01*
X105580489Y-103890261D01*
X105425845Y-103859500D01*
X105425842Y-103859500D01*
X105268158Y-103859500D01*
X105268155Y-103859500D01*
X105113510Y-103890261D01*
X105113498Y-103890264D01*
X104967827Y-103950602D01*
X104967814Y-103950609D01*
X104836125Y-104038602D01*
X104769447Y-104059480D01*
X104767234Y-104059500D01*
X96675057Y-104059500D01*
X96516942Y-104059500D01*
X96364215Y-104100423D01*
X96364214Y-104100423D01*
X96364212Y-104100424D01*
X96364209Y-104100425D01*
X96314096Y-104129359D01*
X96314095Y-104129360D01*
X96285781Y-104145707D01*
X96227285Y-104179479D01*
X96227282Y-104179481D01*
X95475339Y-104931425D01*
X95414016Y-104964910D01*
X95411850Y-104965361D01*
X95256508Y-104996261D01*
X95256498Y-104996264D01*
X95110827Y-105056602D01*
X95110814Y-105056609D01*
X94979711Y-105144210D01*
X94979707Y-105144213D01*
X94868213Y-105255707D01*
X94868210Y-105255711D01*
X94780609Y-105386814D01*
X94780602Y-105386827D01*
X94720264Y-105532498D01*
X94720261Y-105532510D01*
X94689500Y-105687153D01*
X91165264Y-105687153D01*
X91164738Y-105684508D01*
X91164737Y-105684507D01*
X91164737Y-105684503D01*
X91164735Y-105684498D01*
X91104397Y-105538827D01*
X91104390Y-105538814D01*
X91016789Y-105407711D01*
X91016786Y-105407707D01*
X90905292Y-105296213D01*
X90905288Y-105296210D01*
X90774185Y-105208609D01*
X90774172Y-105208602D01*
X90628501Y-105148264D01*
X90628489Y-105148261D01*
X90473845Y-105117500D01*
X90473842Y-105117500D01*
X90316158Y-105117500D01*
X90316155Y-105117500D01*
X90161510Y-105148261D01*
X90161498Y-105148264D01*
X90015827Y-105208602D01*
X90015814Y-105208609D01*
X89884125Y-105296602D01*
X89817447Y-105317480D01*
X89815234Y-105317500D01*
X80770297Y-105317500D01*
X80703258Y-105297815D01*
X80657503Y-105245011D01*
X80647559Y-105175853D01*
X80676584Y-105112297D01*
X80682616Y-105105819D01*
X81053593Y-104734842D01*
X82356113Y-103432321D01*
X82356116Y-103432320D01*
X82467920Y-103320516D01*
X82518039Y-103233704D01*
X82546977Y-103183585D01*
X82587900Y-103030858D01*
X82587900Y-102872743D01*
X82587900Y-89725353D01*
X96512300Y-89725353D01*
X96512300Y-89883046D01*
X96543061Y-90037689D01*
X96543064Y-90037701D01*
X96603402Y-90183372D01*
X96603409Y-90183385D01*
X96691010Y-90314488D01*
X96691013Y-90314492D01*
X96802507Y-90425986D01*
X96802511Y-90425989D01*
X96933614Y-90513590D01*
X96933627Y-90513597D01*
X97079298Y-90573935D01*
X97079303Y-90573937D01*
X97233953Y-90604699D01*
X97233956Y-90604700D01*
X97233958Y-90604700D01*
X97391644Y-90604700D01*
X97391645Y-90604699D01*
X97546297Y-90573937D01*
X97691979Y-90513594D01*
X97746463Y-90477189D01*
X97823675Y-90425598D01*
X97890353Y-90404720D01*
X97892566Y-90404700D01*
X106214055Y-90404700D01*
X106281094Y-90424385D01*
X106326849Y-90477189D01*
X106335672Y-90504509D01*
X106336961Y-90510989D01*
X106336964Y-90511001D01*
X106397302Y-90656672D01*
X106397309Y-90656685D01*
X106484910Y-90787788D01*
X106484913Y-90787792D01*
X106596407Y-90899286D01*
X106596411Y-90899289D01*
X106727514Y-90986890D01*
X106727527Y-90986897D01*
X106873198Y-91047235D01*
X106873203Y-91047237D01*
X107027853Y-91077999D01*
X107027856Y-91078000D01*
X107027858Y-91078000D01*
X107185544Y-91078000D01*
X107185545Y-91077999D01*
X107340197Y-91047237D01*
X107485879Y-90986894D01*
X107616989Y-90899289D01*
X107728489Y-90787789D01*
X107816094Y-90656679D01*
X107876437Y-90510997D01*
X107907200Y-90356342D01*
X107907200Y-90198658D01*
X107907200Y-90198655D01*
X107907199Y-90198653D01*
X107876438Y-90044010D01*
X107876437Y-90044003D01*
X107873822Y-90037689D01*
X107816097Y-89898327D01*
X107816090Y-89898314D01*
X107728489Y-89767211D01*
X107728486Y-89767207D01*
X107616992Y-89655713D01*
X107616988Y-89655710D01*
X107485885Y-89568109D01*
X107485872Y-89568102D01*
X107340201Y-89507764D01*
X107340191Y-89507761D01*
X107184849Y-89476861D01*
X107168092Y-89468095D01*
X107149614Y-89464076D01*
X107124577Y-89445333D01*
X107122938Y-89444476D01*
X107121360Y-89442925D01*
X107120990Y-89442555D01*
X107120988Y-89442552D01*
X107002118Y-89323682D01*
X107002116Y-89323680D01*
X107002113Y-89323678D01*
X106995667Y-89318732D01*
X106996475Y-89317678D01*
X106954083Y-89273216D01*
X106940300Y-89216399D01*
X106940300Y-76025265D01*
X106959985Y-75958226D01*
X106961198Y-75956374D01*
X107049190Y-75824685D01*
X107049190Y-75824684D01*
X107049194Y-75824679D01*
X107109537Y-75678997D01*
X107140300Y-75524342D01*
X107140300Y-75366658D01*
X107140300Y-75366655D01*
X107140299Y-75366653D01*
X107109538Y-75212010D01*
X107109537Y-75212003D01*
X107086015Y-75155215D01*
X107049197Y-75066327D01*
X107049190Y-75066314D01*
X106961589Y-74935211D01*
X106961586Y-74935207D01*
X106850092Y-74823713D01*
X106850088Y-74823710D01*
X106718985Y-74736109D01*
X106718972Y-74736102D01*
X106573301Y-74675764D01*
X106573289Y-74675761D01*
X106418645Y-74645000D01*
X106418642Y-74645000D01*
X106260958Y-74645000D01*
X106260955Y-74645000D01*
X106106310Y-74675761D01*
X106106298Y-74675764D01*
X105960627Y-74736102D01*
X105960614Y-74736109D01*
X105829511Y-74823710D01*
X105829507Y-74823713D01*
X105718013Y-74935207D01*
X105718010Y-74935211D01*
X105630409Y-75066314D01*
X105630402Y-75066327D01*
X105570064Y-75211998D01*
X105570061Y-75212010D01*
X105539300Y-75366653D01*
X105539300Y-75524346D01*
X105570061Y-75678989D01*
X105570064Y-75679001D01*
X105630402Y-75824672D01*
X105630409Y-75824685D01*
X105718402Y-75956374D01*
X105739280Y-76023051D01*
X105739300Y-76025265D01*
X105739300Y-89079700D01*
X105719615Y-89146739D01*
X105666811Y-89192494D01*
X105615300Y-89203700D01*
X97892566Y-89203700D01*
X97825527Y-89184015D01*
X97823675Y-89182802D01*
X97691985Y-89094809D01*
X97691972Y-89094802D01*
X97546301Y-89034464D01*
X97546289Y-89034461D01*
X97391645Y-89003700D01*
X97391642Y-89003700D01*
X97233958Y-89003700D01*
X97233955Y-89003700D01*
X97079310Y-89034461D01*
X97079298Y-89034464D01*
X96933627Y-89094802D01*
X96933614Y-89094809D01*
X96802511Y-89182410D01*
X96802507Y-89182413D01*
X96691013Y-89293907D01*
X96691010Y-89293911D01*
X96603409Y-89425014D01*
X96603402Y-89425027D01*
X96543064Y-89570698D01*
X96543061Y-89570710D01*
X96512300Y-89725353D01*
X82587900Y-89725353D01*
X82587900Y-82540053D01*
X84823000Y-82540053D01*
X84823000Y-82697746D01*
X84853761Y-82852389D01*
X84853764Y-82852401D01*
X84914102Y-82998072D01*
X84914109Y-82998085D01*
X85001710Y-83129188D01*
X85001713Y-83129192D01*
X85113207Y-83240686D01*
X85113211Y-83240689D01*
X85244314Y-83328290D01*
X85244327Y-83328297D01*
X85389998Y-83388635D01*
X85390003Y-83388637D01*
X85544653Y-83419399D01*
X85544656Y-83419400D01*
X85544658Y-83419400D01*
X85702344Y-83419400D01*
X85702345Y-83419399D01*
X85856997Y-83388637D01*
X86002679Y-83328294D01*
X86133789Y-83240689D01*
X86245289Y-83129189D01*
X86332894Y-82998079D01*
X86393237Y-82852397D01*
X86412613Y-82754985D01*
X86424138Y-82697050D01*
X86456523Y-82635139D01*
X86458018Y-82633616D01*
X89469016Y-79622619D01*
X89530339Y-79589134D01*
X89556697Y-79586300D01*
X94224734Y-79586300D01*
X94291773Y-79605985D01*
X94293625Y-79607198D01*
X94425314Y-79695190D01*
X94425327Y-79695197D01*
X94570998Y-79755535D01*
X94571003Y-79755537D01*
X94725653Y-79786299D01*
X94725656Y-79786300D01*
X94725658Y-79786300D01*
X94883344Y-79786300D01*
X94883345Y-79786299D01*
X95037997Y-79755537D01*
X95183679Y-79695194D01*
X95314789Y-79607589D01*
X95426289Y-79496089D01*
X95513894Y-79364979D01*
X95574237Y-79219297D01*
X95605000Y-79064642D01*
X95605000Y-78906958D01*
X95605000Y-78906955D01*
X95604999Y-78906953D01*
X95603495Y-78899390D01*
X95574237Y-78752303D01*
X95518228Y-78617084D01*
X95513897Y-78606627D01*
X95513890Y-78606614D01*
X95426289Y-78475511D01*
X95426286Y-78475507D01*
X95314792Y-78364013D01*
X95314788Y-78364010D01*
X95183685Y-78276409D01*
X95183672Y-78276402D01*
X95038001Y-78216064D01*
X95037989Y-78216061D01*
X94883345Y-78185300D01*
X94883342Y-78185300D01*
X94725658Y-78185300D01*
X94725655Y-78185300D01*
X94571010Y-78216061D01*
X94570998Y-78216064D01*
X94425327Y-78276402D01*
X94425314Y-78276409D01*
X94293625Y-78364402D01*
X94226947Y-78385280D01*
X94224734Y-78385300D01*
X89335657Y-78385300D01*
X89177542Y-78385300D01*
X89024815Y-78426223D01*
X89024814Y-78426223D01*
X89024812Y-78426224D01*
X89024809Y-78426225D01*
X88974696Y-78455159D01*
X88974695Y-78455160D01*
X88939453Y-78475507D01*
X88887885Y-78505279D01*
X88887882Y-78505281D01*
X85608839Y-81784325D01*
X85547516Y-81817810D01*
X85545350Y-81818261D01*
X85390008Y-81849161D01*
X85389998Y-81849164D01*
X85244327Y-81909502D01*
X85244314Y-81909509D01*
X85113211Y-81997110D01*
X85113207Y-81997113D01*
X85001713Y-82108607D01*
X85001710Y-82108611D01*
X84914109Y-82239714D01*
X84914102Y-82239727D01*
X84853764Y-82385398D01*
X84853761Y-82385410D01*
X84823000Y-82540053D01*
X82587900Y-82540053D01*
X82587900Y-76499900D01*
X82607585Y-76432861D01*
X82660389Y-76387106D01*
X82711900Y-76375900D01*
X93308769Y-76375900D01*
X93361357Y-76389071D01*
X93361692Y-76388263D01*
X93367140Y-76390519D01*
X93367217Y-76390539D01*
X93367320Y-76390594D01*
X93469363Y-76432861D01*
X93513003Y-76450937D01*
X93667653Y-76481699D01*
X93667656Y-76481700D01*
X93667658Y-76481700D01*
X93825344Y-76481700D01*
X93825345Y-76481699D01*
X93979997Y-76450937D01*
X94125679Y-76390594D01*
X94256789Y-76302989D01*
X94368289Y-76191489D01*
X94455894Y-76060379D01*
X94516237Y-75914697D01*
X94547000Y-75760042D01*
X94547000Y-75602358D01*
X94547000Y-75602355D01*
X94546999Y-75602353D01*
X94534975Y-75541903D01*
X94516237Y-75447703D01*
X94507202Y-75425890D01*
X94455897Y-75302027D01*
X94455890Y-75302014D01*
X94368289Y-75170911D01*
X94368286Y-75170907D01*
X94256792Y-75059413D01*
X94256788Y-75059410D01*
X94125685Y-74971809D01*
X94125672Y-74971802D01*
X93980001Y-74911464D01*
X93979989Y-74911461D01*
X93825345Y-74880700D01*
X93825342Y-74880700D01*
X93667658Y-74880700D01*
X93667655Y-74880700D01*
X93513010Y-74911461D01*
X93512998Y-74911464D01*
X93367327Y-74971802D01*
X93367314Y-74971809D01*
X93236212Y-75059409D01*
X93196627Y-75098995D01*
X93157039Y-75138582D01*
X93095719Y-75172066D01*
X93069360Y-75174900D01*
X82567166Y-75174900D01*
X82500127Y-75155215D01*
X82498275Y-75154002D01*
X82366585Y-75066009D01*
X82366572Y-75066002D01*
X82220901Y-75005664D01*
X82220889Y-75005661D01*
X82066245Y-74974900D01*
X82066242Y-74974900D01*
X81908558Y-74974900D01*
X81908555Y-74974900D01*
X81753910Y-75005661D01*
X81753898Y-75005664D01*
X81608227Y-75066002D01*
X81608214Y-75066009D01*
X81477111Y-75153610D01*
X81477107Y-75153613D01*
X81365613Y-75265107D01*
X81365610Y-75265111D01*
X81278009Y-75396214D01*
X81278004Y-75396223D01*
X81246061Y-75473343D01*
X81202220Y-75527746D01*
X81135926Y-75549811D01*
X81068227Y-75532532D01*
X81020616Y-75481395D01*
X81007500Y-75425890D01*
X81007500Y-73315765D01*
X81027185Y-73248726D01*
X81028398Y-73246874D01*
X81116390Y-73115185D01*
X81116390Y-73115184D01*
X81116394Y-73115179D01*
X81176737Y-72969497D01*
X81207500Y-72814842D01*
X81207500Y-72657158D01*
X81207500Y-72657155D01*
X81207499Y-72657153D01*
X81176738Y-72502510D01*
X81176737Y-72502503D01*
X81176735Y-72502498D01*
X81116397Y-72356827D01*
X81116390Y-72356814D01*
X81028789Y-72225711D01*
X81028786Y-72225707D01*
X80917292Y-72114213D01*
X80917288Y-72114210D01*
X80786185Y-72026609D01*
X80786172Y-72026602D01*
X80640501Y-71966264D01*
X80640489Y-71966261D01*
X80485845Y-71935500D01*
X80485842Y-71935500D01*
X80328158Y-71935500D01*
X80328155Y-71935500D01*
X80173510Y-71966261D01*
X80173498Y-71966264D01*
X80027827Y-72026602D01*
X80027814Y-72026609D01*
X79896711Y-72114210D01*
X79896707Y-72114213D01*
X79785213Y-72225707D01*
X79785210Y-72225711D01*
X79697609Y-72356814D01*
X79697602Y-72356827D01*
X79637264Y-72502498D01*
X79637261Y-72502510D01*
X79606500Y-72657153D01*
X79606500Y-72814846D01*
X79637261Y-72969489D01*
X79637264Y-72969501D01*
X79697602Y-73115172D01*
X79697609Y-73115185D01*
X79785602Y-73246874D01*
X79806480Y-73313551D01*
X79806500Y-73315765D01*
X79806500Y-76642903D01*
X79786815Y-76709942D01*
X79770181Y-76730584D01*
X79145339Y-77355425D01*
X79084016Y-77388910D01*
X79081850Y-77389361D01*
X78926508Y-77420261D01*
X78926498Y-77420264D01*
X78780827Y-77480602D01*
X78780814Y-77480609D01*
X78649711Y-77568210D01*
X78649707Y-77568213D01*
X78538213Y-77679707D01*
X78538210Y-77679711D01*
X78450609Y-77810814D01*
X78450604Y-77810824D01*
X78411722Y-77904693D01*
X78384842Y-77944921D01*
X76080339Y-80249425D01*
X76019016Y-80282910D01*
X76016850Y-80283361D01*
X75861508Y-80314261D01*
X75861498Y-80314264D01*
X75715827Y-80374602D01*
X75715814Y-80374609D01*
X75584711Y-80462210D01*
X75584707Y-80462213D01*
X75473213Y-80573707D01*
X75473210Y-80573711D01*
X75385609Y-80704814D01*
X75385602Y-80704827D01*
X75325264Y-80850498D01*
X75325261Y-80850510D01*
X75294500Y-81005153D01*
X75294500Y-81162846D01*
X75325261Y-81317489D01*
X75325264Y-81317501D01*
X75385602Y-81463172D01*
X75385609Y-81463185D01*
X75473210Y-81594288D01*
X75473213Y-81594292D01*
X75584707Y-81705786D01*
X75584711Y-81705789D01*
X75715814Y-81793390D01*
X75715827Y-81793397D01*
X75861498Y-81853735D01*
X75861503Y-81853737D01*
X76016153Y-81884499D01*
X76016156Y-81884500D01*
X76016158Y-81884500D01*
X76173844Y-81884500D01*
X76173845Y-81884499D01*
X76328497Y-81853737D01*
X76474179Y-81793394D01*
X76605289Y-81705789D01*
X76716789Y-81594289D01*
X76804394Y-81463179D01*
X76864737Y-81317497D01*
X76884113Y-81220085D01*
X76895638Y-81162150D01*
X76928023Y-81100239D01*
X76929519Y-81098715D01*
X79001415Y-79026818D01*
X79062738Y-78993334D01*
X79089096Y-78990500D01*
X79238844Y-78990500D01*
X79238845Y-78990499D01*
X79393497Y-78959737D01*
X79539179Y-78899394D01*
X79670289Y-78811789D01*
X79781789Y-78700289D01*
X79869394Y-78569179D01*
X79929737Y-78423497D01*
X79958995Y-78276409D01*
X79960638Y-78268150D01*
X79993023Y-78206239D01*
X79994520Y-78204714D01*
X80775713Y-77423521D01*
X80775716Y-77423520D01*
X80887520Y-77311716D01*
X80937639Y-77224904D01*
X80966577Y-77174785D01*
X81007500Y-77022058D01*
X81007500Y-76863943D01*
X81007500Y-76124909D01*
X81027185Y-76057870D01*
X81079989Y-76012115D01*
X81149147Y-76002171D01*
X81212703Y-76031196D01*
X81246061Y-76077457D01*
X81278002Y-76154572D01*
X81278009Y-76154585D01*
X81366002Y-76286274D01*
X81386880Y-76352951D01*
X81386900Y-76355165D01*
X81386900Y-102651703D01*
X81367215Y-102718742D01*
X81350581Y-102739384D01*
X76518639Y-107571325D01*
X76457316Y-107604810D01*
X76455150Y-107605261D01*
X76299808Y-107636161D01*
X76299798Y-107636164D01*
X76154127Y-107696502D01*
X76154114Y-107696509D01*
X76022425Y-107784502D01*
X75955747Y-107805380D01*
X75953534Y-107805400D01*
X71112157Y-107805400D01*
X70954042Y-107805400D01*
X70801315Y-107846323D01*
X70801314Y-107846323D01*
X70801312Y-107846324D01*
X70801309Y-107846325D01*
X70751196Y-107875259D01*
X70751195Y-107875260D01*
X70707789Y-107900320D01*
X70664385Y-107925379D01*
X70664382Y-107925381D01*
X69863539Y-108726225D01*
X69802216Y-108759710D01*
X69800050Y-108760161D01*
X69644708Y-108791061D01*
X69644698Y-108791064D01*
X69499027Y-108851402D01*
X69499014Y-108851409D01*
X69367911Y-108939010D01*
X69367907Y-108939013D01*
X69256413Y-109050507D01*
X69256410Y-109050511D01*
X69168809Y-109181614D01*
X69168802Y-109181627D01*
X69108464Y-109327298D01*
X69108461Y-109327310D01*
X69077700Y-109481953D01*
X55443053Y-109481953D01*
X55578565Y-109294398D01*
X55579645Y-109292931D01*
X55642652Y-109208764D01*
X55749623Y-109005573D01*
X55823088Y-108788014D01*
X55861198Y-108561570D01*
X55862790Y-108357851D01*
X55862992Y-108331957D01*
X55862991Y-108331956D01*
X55862992Y-108331949D01*
X55828423Y-108104938D01*
X55758364Y-107886258D01*
X55657604Y-107687389D01*
X55654580Y-107681420D01*
X55574662Y-107571325D01*
X55519687Y-107495591D01*
X55357085Y-107333450D01*
X55170872Y-107199085D01*
X55170864Y-107199080D01*
X54965745Y-107095884D01*
X54965739Y-107095882D01*
X54932449Y-107085321D01*
X54746864Y-107026444D01*
X54746862Y-107026443D01*
X54746860Y-107026443D01*
X54519753Y-106992519D01*
X54408798Y-106993599D01*
X54407494Y-106993605D01*
X52481706Y-106992085D01*
X52414682Y-106972347D01*
X52368969Y-106919507D01*
X52359080Y-106850341D01*
X52381276Y-106795490D01*
X66817470Y-86805864D01*
X66818623Y-86804295D01*
X66882635Y-86718790D01*
X66989613Y-86515596D01*
X67063084Y-86298032D01*
X67101197Y-86071582D01*
X67102992Y-85841954D01*
X67068423Y-85614936D01*
X66998361Y-85396250D01*
X66894572Y-85191409D01*
X66885736Y-85179236D01*
X66759678Y-85005580D01*
X66759677Y-85005579D01*
X66759675Y-85005577D01*
X66759673Y-85005574D01*
X66597064Y-84843431D01*
X66596751Y-84843205D01*
X66410843Y-84709067D01*
X66205710Y-84605870D01*
X66205706Y-84605868D01*
X66205703Y-84605867D01*
X65986817Y-84536434D01*
X65986815Y-84536433D01*
X65986813Y-84536433D01*
X65759700Y-84502516D01*
X65648832Y-84503599D01*
X65647467Y-84503605D01*
X63718456Y-84501196D01*
X63651441Y-84481428D01*
X63605752Y-84428567D01*
X63595895Y-84359396D01*
X63618068Y-84304621D01*
X77659132Y-64853253D01*
X92483400Y-64853253D01*
X92483400Y-65010946D01*
X92514161Y-65165589D01*
X92514164Y-65165601D01*
X92574502Y-65311272D01*
X92574509Y-65311285D01*
X92662110Y-65442388D01*
X92662113Y-65442392D01*
X92773607Y-65553886D01*
X92773611Y-65553889D01*
X92904714Y-65641490D01*
X92904727Y-65641497D01*
X93050398Y-65701835D01*
X93050403Y-65701837D01*
X93205053Y-65732599D01*
X93205056Y-65732600D01*
X93205058Y-65732600D01*
X93362744Y-65732600D01*
X93362745Y-65732599D01*
X93517397Y-65701837D01*
X93663079Y-65641494D01*
X93794189Y-65553889D01*
X93905689Y-65442389D01*
X93993294Y-65311279D01*
X94053637Y-65165597D01*
X94073013Y-65068185D01*
X94084538Y-65010250D01*
X94116923Y-64948339D01*
X94118418Y-64946816D01*
X98680816Y-60384419D01*
X98742139Y-60350934D01*
X98768497Y-60348100D01*
X99739034Y-60348100D01*
X99806073Y-60367785D01*
X99807925Y-60368998D01*
X99939614Y-60456990D01*
X99939627Y-60456997D01*
X100085298Y-60517335D01*
X100085303Y-60517337D01*
X100239953Y-60548099D01*
X100239956Y-60548100D01*
X100239958Y-60548100D01*
X100397644Y-60548100D01*
X100397645Y-60548099D01*
X100552297Y-60517337D01*
X100697979Y-60456994D01*
X100829089Y-60369389D01*
X100940589Y-60257889D01*
X101028194Y-60126779D01*
X101088537Y-59981097D01*
X101119300Y-59826442D01*
X101119300Y-59668758D01*
X101119300Y-59668755D01*
X101119299Y-59668753D01*
X101088538Y-59514110D01*
X101088537Y-59514103D01*
X101032528Y-59378884D01*
X101028197Y-59368427D01*
X101028190Y-59368414D01*
X100940589Y-59237311D01*
X100940586Y-59237307D01*
X100829092Y-59125813D01*
X100829088Y-59125810D01*
X100697985Y-59038209D01*
X100697972Y-59038202D01*
X100552301Y-58977864D01*
X100552289Y-58977861D01*
X100397645Y-58947100D01*
X100397642Y-58947100D01*
X100239958Y-58947100D01*
X100239955Y-58947100D01*
X100085310Y-58977861D01*
X100085298Y-58977864D01*
X99939627Y-59038202D01*
X99939614Y-59038209D01*
X99807925Y-59126202D01*
X99741247Y-59147080D01*
X99739034Y-59147100D01*
X98547457Y-59147100D01*
X98389342Y-59147100D01*
X98236615Y-59188023D01*
X98236614Y-59188023D01*
X98236612Y-59188024D01*
X98236609Y-59188025D01*
X98186496Y-59216959D01*
X98186495Y-59216960D01*
X98151253Y-59237307D01*
X98099685Y-59267079D01*
X98099682Y-59267081D01*
X93269239Y-64097525D01*
X93207916Y-64131010D01*
X93205750Y-64131461D01*
X93050408Y-64162361D01*
X93050398Y-64162364D01*
X92904727Y-64222702D01*
X92904714Y-64222709D01*
X92773611Y-64310310D01*
X92773607Y-64310313D01*
X92662113Y-64421807D01*
X92662110Y-64421811D01*
X92574509Y-64552914D01*
X92574502Y-64552927D01*
X92514164Y-64698598D01*
X92514161Y-64698610D01*
X92483400Y-64853253D01*
X77659132Y-64853253D01*
X78058533Y-64299955D01*
X78059673Y-64298404D01*
X78122375Y-64214643D01*
X78229340Y-64011454D01*
X78302801Y-63793897D01*
X78340908Y-63567456D01*
X78342544Y-63357754D01*
X78342699Y-63337847D01*
X78342698Y-63337846D01*
X78342699Y-63337839D01*
X78308130Y-63110831D01*
X78238071Y-62892155D01*
X78134289Y-62687321D01*
X77999400Y-62501493D01*
X77836802Y-62339353D01*
X77836451Y-62339100D01*
X77650596Y-62204990D01*
X77650585Y-62204983D01*
X77445474Y-62101787D01*
X77226593Y-62032342D01*
X76999488Y-61998414D01*
X76888668Y-61999490D01*
X76887288Y-61999496D01*
X74975540Y-61996774D01*
X74908529Y-61976994D01*
X74862849Y-61924125D01*
X74853004Y-61854952D01*
X74875206Y-61800154D01*
X82098940Y-51802587D01*
X82099948Y-51801216D01*
X82161077Y-51719443D01*
X82263704Y-51531231D01*
X82338536Y-51330344D01*
X82384053Y-51120859D01*
X82399332Y-50907031D01*
X82384062Y-50693202D01*
X82338553Y-50483716D01*
X82271079Y-50302558D01*
X82263731Y-50282829D01*
X82263729Y-50282825D01*
X82161110Y-50094609D01*
X82161105Y-50094602D01*
X82161104Y-50094600D01*
X82033120Y-49923346D01*
X82032780Y-49922891D01*
X81881345Y-49771157D01*
X81881344Y-49771156D01*
X81881341Y-49771153D01*
X81848622Y-49746606D01*
X81848619Y-49746604D01*
X81838087Y-49738702D01*
X81829731Y-49729088D01*
X81785545Y-49699280D01*
X81783049Y-49697407D01*
X81783048Y-49697406D01*
X81783044Y-49697403D01*
X81750965Y-49673332D01*
X81742903Y-49667282D01*
X81742900Y-49667280D01*
X81735821Y-49663294D01*
X81736225Y-49662575D01*
X81724428Y-49656118D01*
X81161267Y-49254740D01*
X81156167Y-49250903D01*
X80568162Y-48784394D01*
X80563266Y-48780300D01*
X80000034Y-48284145D01*
X79995355Y-48279804D01*
X79458407Y-47755337D01*
X79453978Y-47750784D01*
X78944674Y-47199327D01*
X78940504Y-47194571D01*
X78460273Y-46617665D01*
X78456318Y-46612656D01*
X78301585Y-46406013D01*
X78006423Y-46011830D01*
X78002763Y-46006672D01*
X77584344Y-45383440D01*
X77580952Y-45378095D01*
X77195168Y-44734184D01*
X77192034Y-44728633D01*
X77191182Y-44727030D01*
X76839917Y-44065769D01*
X76837070Y-44060060D01*
X76648890Y-43657026D01*
X76519513Y-43379932D01*
X76516978Y-43374119D01*
X76234833Y-42678543D01*
X76232587Y-42672569D01*
X75986611Y-41963415D01*
X75984676Y-41957333D01*
X75775523Y-41236488D01*
X75773902Y-41230316D01*
X75602106Y-40499630D01*
X75600806Y-40493381D01*
X75600479Y-40491578D01*
X75466835Y-39754833D01*
X75465860Y-39748535D01*
X75370068Y-39004075D01*
X75369419Y-38997745D01*
X75312058Y-38249330D01*
X75311735Y-38242964D01*
X75292959Y-37492613D01*
X75292963Y-37486231D01*
X75293013Y-37484350D01*
X75312821Y-36735866D01*
X75313151Y-36729535D01*
X75371592Y-35981177D01*
X75372252Y-35974841D01*
X75469113Y-35230540D01*
X75470099Y-35224234D01*
X75474655Y-35199324D01*
X75605138Y-34485847D01*
X75606431Y-34479677D01*
X75779292Y-33749184D01*
X75780906Y-33743071D01*
X75991126Y-33022431D01*
X75993046Y-33016431D01*
X76240057Y-32307591D01*
X76242288Y-32301681D01*
X76525452Y-31606466D01*
X76527988Y-31600674D01*
X76846544Y-30920961D01*
X76849366Y-30915322D01*
X77202497Y-30252855D01*
X77205582Y-30247410D01*
X77592293Y-29604054D01*
X77595717Y-29598677D01*
X78015032Y-28976050D01*
X78018691Y-28970908D01*
X78469454Y-28370727D01*
X78473415Y-28365726D01*
X78474648Y-28364249D01*
X78954482Y-27789506D01*
X78958669Y-27784746D01*
X79468742Y-27234049D01*
X79473154Y-27229524D01*
X80010934Y-26705754D01*
X80015547Y-26701488D01*
X80579548Y-26206096D01*
X80584392Y-26202058D01*
X81173139Y-25736340D01*
X81178186Y-25732556D01*
X81790094Y-25297763D01*
X81795331Y-25294240D01*
X82428813Y-24891500D01*
X82434239Y-24888243D01*
X83087571Y-24518649D01*
X83093169Y-24515669D01*
X83764672Y-24180171D01*
X83770427Y-24177479D01*
X84458269Y-23876992D01*
X84464132Y-23874608D01*
X85166574Y-23609891D01*
X85172540Y-23607816D01*
X85887662Y-23379595D01*
X85893748Y-23377825D01*
X86619621Y-23186713D01*
X86625803Y-23185254D01*
X87360583Y-23031737D01*
X87366811Y-23030602D01*
X87897672Y-22947931D01*
X87966942Y-22957065D01*
X88020278Y-23002200D01*
X88040745Y-23069005D01*
X88021845Y-23136270D01*
X88021747Y-23136426D01*
X87895714Y-23337005D01*
X87778734Y-23579917D01*
X87689687Y-23834397D01*
X87689684Y-23834405D01*
X87629688Y-24097268D01*
X87629686Y-24097280D01*
X87599500Y-24365186D01*
X87599500Y-24634813D01*
X87629686Y-24902719D01*
X87629688Y-24902731D01*
X87689684Y-25165594D01*
X87689687Y-25165602D01*
X87778734Y-25420082D01*
X87895714Y-25662994D01*
X87895716Y-25662997D01*
X88039162Y-25891289D01*
X88207266Y-26102085D01*
X88397915Y-26292734D01*
X88608711Y-26460838D01*
X88837003Y-26604284D01*
X89079921Y-26721267D01*
X89271049Y-26788145D01*
X89334397Y-26810312D01*
X89334405Y-26810315D01*
X89334408Y-26810315D01*
X89334409Y-26810316D01*
X89597268Y-26870312D01*
X89865187Y-26900499D01*
X89865188Y-26900500D01*
X89865191Y-26900500D01*
X90134812Y-26900500D01*
X90134812Y-26900499D01*
X90402732Y-26870312D01*
X90665591Y-26810316D01*
X90920079Y-26721267D01*
X91162997Y-26604284D01*
X91391289Y-26460838D01*
X91602085Y-26292734D01*
X91792734Y-26102085D01*
X91960838Y-25891289D01*
X92104284Y-25662997D01*
X92221267Y-25420079D01*
X92310316Y-25165591D01*
X92370312Y-24902732D01*
X92400500Y-24634809D01*
X92400500Y-24365191D01*
X92370312Y-24097268D01*
X92310316Y-23834409D01*
X92221267Y-23579921D01*
X92104284Y-23337003D01*
X92009073Y-23185476D01*
X91978267Y-23136448D01*
X91959267Y-23069211D01*
X91979635Y-23002376D01*
X92032903Y-22957162D01*
X92102159Y-22947925D01*
X92631359Y-23030269D01*
G37*
%TD.AperFunction*%
%TA.AperFunction,Conductor*%
G36*
X103712075Y-134410993D02*
G01*
X103777901Y-134525007D01*
X103870993Y-134618099D01*
X103985007Y-134683925D01*
X104048591Y-134700962D01*
X103489373Y-135260181D01*
X103428050Y-135293666D01*
X103401692Y-135296500D01*
X102767099Y-135296500D01*
X102700060Y-135276815D01*
X102654305Y-135224011D01*
X102644361Y-135154853D01*
X102666780Y-135099615D01*
X102740150Y-134998628D01*
X102793051Y-134925816D01*
X102797793Y-134916508D01*
X102845763Y-134865711D01*
X102913583Y-134848911D01*
X102979719Y-134871445D01*
X103018763Y-134916500D01*
X103023373Y-134925547D01*
X103062728Y-134979716D01*
X103695037Y-134347408D01*
X103712075Y-134410993D01*
G37*
%TD.AperFunction*%
%TD*%
M02*
