%TF.GenerationSoftware,KiCad,Pcbnew,9.0.7*%
%TF.CreationDate,2026-08-23T13:54:47-04:00*%
%TF.ProjectId,Ornament,4f726e61-6d65-46e7-942e-6b696361645f,rev?*%
%TF.SameCoordinates,Original*%
%TF.FileFunction,Profile,NP*%
%FSLAX46Y46*%
G04 Gerber Fmt 4.6, Leading zero omitted, Abs format (unit mm)*
G04 Created by KiCad (PCBNEW 9.0.7) date 2026-08-23 13:54:47*
%MOMM*%
%LPD*%
G01*
G04 APERTURE LIST*
%TA.AperFunction,Profile*%
%ADD10C,0.050000*%
%TD*%
G04 APERTURE END LIST*
D10*
X76890000Y-62500001D02*
X74726021Y-62496920D01*
X98306143Y-51505412D02*
G75*
G02*
X98506434Y-50107382I800957J598612D01*
G01*
X139423000Y-129229000D02*
G75*
G02*
X139023000Y-130029000I-400000J-300000D01*
G01*
X63475308Y-85001394D02*
G75*
G02*
X63075311Y-84201396I-8J499994D01*
G01*
X125598870Y-107500107D02*
X127763786Y-107492063D01*
X105675828Y-61705006D02*
X98306221Y-51505517D01*
X69050299Y-130000003D02*
G75*
G02*
X70000140Y-130944254I10001J-939797D01*
G01*
X110002000Y-130944000D02*
G75*
G02*
X110951847Y-129999743I939800J4500D01*
G01*
X63075308Y-84201394D02*
X77653229Y-64006307D01*
X109508604Y-140001115D02*
X70476388Y-140001296D01*
X110002087Y-139518868D02*
X110002001Y-130944056D01*
X102348917Y-64006053D02*
G75*
G02*
X103112146Y-62499714I753283J564853D01*
G01*
X116926838Y-84201140D02*
G75*
G02*
X116526838Y-85001106I-400038J-299960D01*
G01*
X110002087Y-139518868D02*
G75*
G02*
X109517530Y-140001193I-484787J2468D01*
G01*
X40979360Y-129999396D02*
G75*
G02*
X40579391Y-129199419I40J499996D01*
G01*
X110951847Y-129999749D02*
X139023000Y-130029000D01*
X116926838Y-84201140D02*
X102348921Y-64006058D01*
X54410276Y-107494109D02*
X52238360Y-107492395D01*
X65650238Y-85004109D02*
X63475308Y-85001394D01*
X113588679Y-86510161D02*
G75*
G02*
X114351908Y-85003860I753221J564861D01*
G01*
X65650238Y-85004109D02*
G75*
G02*
X66413437Y-86510392I10062J-941391D01*
G01*
X114356643Y-85003855D02*
X116526838Y-85001105D01*
X81495204Y-50107154D02*
G75*
G02*
X81696000Y-51505663I-600204J-799846D01*
G01*
X76890000Y-62500001D02*
G75*
G02*
X77653169Y-64006262I10000J-941399D01*
G01*
X70000059Y-139519122D02*
X70000146Y-130944254D01*
X54410276Y-107494109D02*
G75*
G02*
X55173450Y-109000374I10024J-941391D01*
G01*
X70484616Y-140001369D02*
G75*
G02*
X70000038Y-139519122I184J484769D01*
G01*
X128163786Y-106692141D02*
G75*
G02*
X127763786Y-107492064I-399986J-299959D01*
G01*
X40579360Y-129199396D02*
X55173505Y-109000415D01*
X51838360Y-106692395D02*
X66413467Y-86510415D01*
X74326003Y-61705665D02*
X81696003Y-51505665D01*
X69050299Y-130000003D02*
X40979360Y-129999396D01*
X103112146Y-62500019D02*
X105276110Y-62496613D01*
X124835641Y-109006413D02*
G75*
G02*
X125598870Y-107500079I753159J564913D01*
G01*
X52238360Y-107492395D02*
G75*
G02*
X51838392Y-106692419I40J499995D01*
G01*
X74726036Y-62496920D02*
G75*
G02*
X74325991Y-61705656I-12736J490320D01*
G01*
X128163786Y-106688319D02*
X113590672Y-86510161D01*
X105676143Y-61705411D02*
G75*
G02*
X105276109Y-62496694I-387243J-300989D01*
G01*
X124835641Y-109005201D02*
X139423000Y-129229000D01*
X81495204Y-50107154D02*
G75*
G02*
X98506388Y-50106080I8504796J12607154D01*
G01*
M02*
