%TF.GenerationSoftware,KiCad,Pcbnew,9.0.7*%
%TF.CreationDate,2026-08-23T13:54:47-04:00*%
%TF.ProjectId,Ornament,4f726e61-6d65-46e7-942e-6b696361645f,rev?*%
%TF.SameCoordinates,Original*%
%TF.FileFunction,Soldermask,Top*%
%TF.FilePolarity,Negative*%
%FSLAX46Y46*%
G04 Gerber Fmt 4.6, Leading zero omitted, Abs format (unit mm)*
G04 Created by KiCad (PCBNEW 9.0.7) date 2026-08-23 13:54:47*
%MOMM*%
%LPD*%
G01*
G04 APERTURE LIST*
G04 Aperture macros list*
%AMRoundRect*
0 Rectangle with rounded corners*
0 $1 Rounding radius*
0 $2 $3 $4 $5 $6 $7 $8 $9 X,Y pos of 4 corners*
0 Add a 4 corners polygon primitive as box body*
4,1,4,$2,$3,$4,$5,$6,$7,$8,$9,$2,$3,0*
0 Add four circle primitives for the rounded corners*
1,1,$1+$1,$2,$3*
1,1,$1+$1,$4,$5*
1,1,$1+$1,$6,$7*
1,1,$1+$1,$8,$9*
0 Add four rect primitives between the rounded corners*
20,1,$1+$1,$2,$3,$4,$5,0*
20,1,$1+$1,$4,$5,$6,$7,0*
20,1,$1+$1,$6,$7,$8,$9,0*
20,1,$1+$1,$8,$9,$2,$3,0*%
G04 Aperture macros list end*
%ADD10RoundRect,0.237500X0.237500X-0.300000X0.237500X0.300000X-0.237500X0.300000X-0.237500X-0.300000X0*%
%ADD11RoundRect,0.237500X-0.250000X-0.237500X0.250000X-0.237500X0.250000X0.237500X-0.250000X0.237500X0*%
%ADD12C,1.700000*%
%ADD13R,1.700000X1.700000*%
%ADD14C,3.000000*%
%ADD15RoundRect,0.249999X1.250001X-1.250001X1.250001X1.250001X-1.250001X1.250001X-1.250001X-1.250001X0*%
%ADD16RoundRect,0.250000X0.350000X0.450000X-0.350000X0.450000X-0.350000X-0.450000X0.350000X-0.450000X0*%
%ADD17RoundRect,0.237500X0.300000X0.237500X-0.300000X0.237500X-0.300000X-0.237500X0.300000X-0.237500X0*%
%ADD18RoundRect,0.237500X-0.237500X0.287500X-0.237500X-0.287500X0.237500X-0.287500X0.237500X0.287500X0*%
%ADD19RoundRect,0.237500X0.237500X-0.250000X0.237500X0.250000X-0.237500X0.250000X-0.237500X-0.250000X0*%
%ADD20RoundRect,0.237500X-0.300000X-0.237500X0.300000X-0.237500X0.300000X0.237500X-0.300000X0.237500X0*%
%ADD21RoundRect,0.250000X-0.800000X-0.450000X0.800000X-0.450000X0.800000X0.450000X-0.800000X0.450000X0*%
%ADD22RoundRect,0.237500X-0.346820X-0.137034X0.200037X-0.314718X0.346820X0.137034X-0.200037X0.314718X0*%
%ADD23RoundRect,0.237500X0.361130X-0.092993X0.023153X0.372191X-0.361130X0.092993X-0.023153X-0.372191X0*%
%ADD24RoundRect,0.100000X-0.680000X-0.100000X0.680000X-0.100000X0.680000X0.100000X-0.680000X0.100000X0*%
%ADD25C,2.600000*%
%ADD26C,3.800000*%
%ADD27RoundRect,0.237500X0.023153X-0.372191X0.361130X0.092993X-0.023153X0.372191X-0.361130X-0.092993X0*%
%ADD28RoundRect,0.250000X0.625000X-0.312500X0.625000X0.312500X-0.625000X0.312500X-0.625000X-0.312500X0*%
%ADD29RoundRect,0.150000X-0.825000X-0.150000X0.825000X-0.150000X0.825000X0.150000X-0.825000X0.150000X0*%
%ADD30RoundRect,0.237500X0.200037X0.314718X-0.346820X0.137034X-0.200037X-0.314718X0.346820X-0.137034X0*%
%ADD31RoundRect,0.250000X1.100000X-0.412500X1.100000X0.412500X-1.100000X0.412500X-1.100000X-0.412500X0*%
%ADD32C,1.381000*%
G04 APERTURE END LIST*
D10*
%TO.C,C4*%
X100321000Y-124006500D03*
X100321000Y-125731500D03*
%TD*%
D11*
%TO.C,R11*%
X103643500Y-125659500D03*
X101818500Y-125659500D03*
%TD*%
%TO.C,R12*%
X103643500Y-123973500D03*
X101818500Y-123973500D03*
%TD*%
%TO.C,R2*%
X97677500Y-119096000D03*
X95852500Y-119096000D03*
%TD*%
D12*
%TO.C,J1*%
X73038000Y-134199000D03*
X75578000Y-134199000D03*
X78118000Y-134199000D03*
D13*
X80658000Y-134199000D03*
%TD*%
D12*
%TO.C,J2*%
X99098000Y-134218000D03*
X101638000Y-134218000D03*
X104178000Y-134218000D03*
D13*
X106718000Y-134218000D03*
%TD*%
D14*
%TO.C,BT1*%
X89290000Y-129902000D03*
D15*
X101990000Y-129902000D03*
%TD*%
D16*
%TO.C,Q1*%
X102953000Y-117904000D03*
X104953000Y-117904000D03*
%TD*%
D17*
%TO.C,C5*%
X90196500Y-117735000D03*
X88471500Y-117735000D03*
%TD*%
D18*
%TO.C,D8*%
X75444000Y-106708000D03*
X75444000Y-108458000D03*
%TD*%
%TO.C,D18*%
X107385000Y-75386000D03*
X107385000Y-77136000D03*
%TD*%
D19*
%TO.C,R4*%
X82322000Y-121325500D03*
X82322000Y-119500500D03*
%TD*%
D18*
%TO.C,D10*%
X107030000Y-104797000D03*
X107030000Y-106547000D03*
%TD*%
D20*
%TO.C,C1*%
X95903000Y-120743000D03*
X97628000Y-120743000D03*
%TD*%
D18*
%TO.C,D17*%
X107967000Y-87463000D03*
X107967000Y-89213000D03*
%TD*%
D21*
%TO.C,SW1*%
X85450000Y-132750000D03*
X94550000Y-132750000D03*
X85450000Y-137250000D03*
X94550000Y-137250000D03*
%TD*%
D18*
%TO.C,D25*%
X90000000Y-36650000D03*
X90000000Y-38400000D03*
%TD*%
%TO.C,D30*%
X90000000Y-31325000D03*
X90000000Y-33075000D03*
%TD*%
%TO.C,D24*%
X89367000Y-50889500D03*
X89367000Y-52639500D03*
%TD*%
D22*
%TO.C,D26*%
X84167826Y-35529611D03*
X85832174Y-36070389D03*
%TD*%
D19*
%TO.C,R8*%
X75541000Y-121325500D03*
X75541000Y-119500500D03*
%TD*%
D23*
%TO.C,D28*%
X93714312Y-42407889D03*
X92685688Y-40992111D03*
%TD*%
D18*
%TO.C,D12*%
X98228000Y-89106500D03*
X98228000Y-90856500D03*
%TD*%
D19*
%TO.C,R6*%
X78940000Y-121324500D03*
X78940000Y-119499500D03*
%TD*%
D18*
%TO.C,D21*%
X91126000Y-66189000D03*
X91126000Y-67939000D03*
%TD*%
%TO.C,D6*%
X51584000Y-121885000D03*
X51584000Y-123635000D03*
%TD*%
%TO.C,D19*%
X96097000Y-79025000D03*
X96097000Y-80775000D03*
%TD*%
D19*
%TO.C,R7*%
X77247000Y-121323500D03*
X77247000Y-119498500D03*
%TD*%
D24*
%TO.C,U2*%
X95457000Y-124395500D03*
X95457000Y-125045500D03*
X95457000Y-125705500D03*
X95457000Y-126355500D03*
X98157000Y-126355500D03*
X98157000Y-125705500D03*
X98157000Y-125045500D03*
X98157000Y-124395500D03*
%TD*%
D19*
%TO.C,R5*%
X80630000Y-121322500D03*
X80630000Y-119497500D03*
%TD*%
D18*
%TO.C,D7*%
X64100000Y-111325000D03*
X64100000Y-113075000D03*
%TD*%
%TO.C,D2*%
X122200000Y-114200000D03*
X122200000Y-115950000D03*
%TD*%
%TO.C,D15*%
X70288000Y-85515500D03*
X70288000Y-87265500D03*
%TD*%
%TO.C,D16*%
X82222000Y-78228500D03*
X82222000Y-79978500D03*
%TD*%
D19*
%TO.C,R9*%
X73840000Y-121326500D03*
X73840000Y-119501500D03*
%TD*%
D18*
%TO.C,D13*%
X83324000Y-91830500D03*
X83324000Y-93580500D03*
%TD*%
%TO.C,D11*%
X117524000Y-97188000D03*
X117524000Y-98938000D03*
%TD*%
D25*
%TO.C,H1*%
X90000000Y-24500000D03*
D26*
X90000000Y-24500000D03*
%TD*%
D18*
%TO.C,D22*%
X99525000Y-58925000D03*
X99525000Y-60675000D03*
%TD*%
D27*
%TO.C,D27*%
X86371388Y-42515790D03*
X87400012Y-41100010D03*
%TD*%
D28*
%TO.C,R10*%
X106503000Y-126764500D03*
X106503000Y-123839500D03*
%TD*%
D18*
%TO.C,D20*%
X75667000Y-70014000D03*
X75667000Y-71764000D03*
%TD*%
%TO.C,D1*%
X128234000Y-123391500D03*
X128234000Y-125141500D03*
%TD*%
%TO.C,D14*%
X60800000Y-99125000D03*
X60800000Y-100875000D03*
%TD*%
%TO.C,D3*%
X110011000Y-120936000D03*
X110011000Y-122686000D03*
%TD*%
D29*
%TO.C,U1*%
X86911000Y-119297000D03*
X86911000Y-120567000D03*
X86911000Y-121837000D03*
X86911000Y-123107000D03*
X86911000Y-124377000D03*
X86911000Y-125647000D03*
X86911000Y-126917000D03*
X91861000Y-126917000D03*
X91861000Y-125647000D03*
X91861000Y-124377000D03*
X91861000Y-123107000D03*
X91861000Y-121837000D03*
X91861000Y-120567000D03*
X91861000Y-119297000D03*
%TD*%
D30*
%TO.C,D29*%
X95832174Y-35629611D03*
X94167826Y-36170389D03*
%TD*%
D18*
%TO.C,D9*%
X91782000Y-104029000D03*
X91782000Y-105779000D03*
%TD*%
D31*
%TO.C,C3*%
X110163000Y-128141500D03*
X110163000Y-125016500D03*
%TD*%
D11*
%TO.C,R1*%
X78113500Y-131455000D03*
X79938500Y-131455000D03*
%TD*%
D18*
%TO.C,D23*%
X80300000Y-58725000D03*
X80300000Y-60475000D03*
%TD*%
%TO.C,D5*%
X69142000Y-124268000D03*
X69142000Y-126018000D03*
%TD*%
%TO.C,D4*%
X89532000Y-113272500D03*
X89532000Y-115022500D03*
%TD*%
D32*
%TO.C,SW2*%
X120825000Y-128763000D03*
X114525000Y-128763000D03*
%TD*%
M02*
